<svg id="Layer_1" height="512" viewBox="0 0 512 512" width="512" xmlns="http://www.w3.org/2000/svg" data-name="Layer 1"><path d="m221.5 335.625-93.064 93.069 34.02 34.01a8.764 8.764 0 0 1 -4.2 14.717l-72.936 16.979-74.582 17.362a8.468 8.468 0 0 1 -8.156-2.362 8.47 8.47 0 0 1 -2.34-8.16l17.368-74.575 16.99-72.927a8.742 8.742 0 0 1 14.688-4.2l34.03 34.011 93.059-93.069a6.944 6.944 0 0 1 9.713 0l35.41 35.428a6.9 6.9 0 0 1 0 9.717zm69 0 93.059 93.069-34.02 34.01a8.767 8.767 0 0 0 4.2 14.717l72.939 16.979 74.582 17.359a8.774 8.774 0 0 0 10.5-10.519l-17.373-74.578-16.987-72.924a8.748 8.748 0 0 0 -14.694-4.2l-34.029 34.011-93.059-93.069a6.938 6.938 0 0 0 -9.708 0l-35.41 35.428a6.9 6.9 0 0 0 0 9.717zm0-159.25 93.059-93.068-34.02-34.007a8.767 8.767 0 0 1 4.2-14.717l72.939-16.983 74.582-17.362a8.478 8.478 0 0 1 8.161 2.362 8.491 8.491 0 0 1 2.339 8.16l-17.373 74.575-16.987 72.927a8.748 8.748 0 0 1 -14.694 4.2l-34.029-34.011-93.059 93.069a6.938 6.938 0 0 1 -9.708 0l-35.41-35.428a6.9 6.9 0 0 1 0-9.717zm-69 0-93.061-93.068 34.02-34.007a8.764 8.764 0 0 0 -4.2-14.717l-72.939-16.983-74.582-17.362a8.468 8.468 0 0 0 -8.156 2.362 8.47 8.47 0 0 0 -2.34 8.16l17.368 74.575 16.99 72.927a8.742 8.742 0 0 0 14.688 4.2l34.03-34.011 93.059 93.069a6.944 6.944 0 0 0 9.713 0l35.41-35.428a6.9 6.9 0 0 0 0-9.717z" fill="#00a71a" fill-rule="evenodd"/></svg>
