<svg height="512" viewBox="0 0 24 24" width="512" xmlns="http://www.w3.org/2000/svg"><path d="m2 20.889v-4.445h2.222a2.224 2.224 0 0 0 2.192-2.595 2.305 2.305 0 0 0 -2.314-1.849h-2.1v-4.444a1.111 1.111 0 0 1 1.111-1.112h4.445v-2.222a2.224 2.224 0 0 1 2.6-2.192 2.305 2.305 0 0 1 1.844 2.311v2.1h4.444a1.112 1.112 0 0 1 1.112 1.112v4.447h2.1a2.305 2.305 0 0 1 2.311 1.849 2.224 2.224 0 0 1 -2.192 2.595h-2.219v4.445a1.111 1.111 0 0 1 -1.112 1.111h-3.333v-2.222a2.224 2.224 0 0 0 -2.6-2.192 2.305 2.305 0 0 0 -1.844 2.314v2.1h-5.556a1.11 1.11 0 0 1 -1.111-1.111z"/></svg>