<svg id="Layer_1" height="512" viewBox="0 0 512 512" width="512" xmlns="http://www.w3.org/2000/svg" data-name="Layer 1"><path d="m504.1 321.474a7.905 7.905 0 0 1 7.9 7.877v57.643a7.916 7.916 0 0 1 -7.9 7.925h-335.963v55.381a10.074 10.074 0 0 1 -15.368 8.538l-73.191-45.52-74.842-46.608a10.063 10.063 0 0 1 0-17.075l74.842-46.558 73.191-45.521a10.074 10.074 0 0 1 15.368 8.539v55.379zm-160.241-130.948v55.379a10.072 10.072 0 0 0 15.368 8.538l73.19-45.52 74.842-46.558a10.058 10.058 0 0 0 0-17.075l-74.842-46.558-73.19-45.568a10.073 10.073 0 0 0 -15.368 8.536v55.379h-335.959a7.912 7.912 0 0 0 -7.9 7.927v57.643a7.9 7.9 0 0 0 7.9 7.877z" fill="#00a71a" fill-rule="evenodd"/></svg>
