<svg width="24" height="24" viewBox="0 0 24 24" fill="none" xmlns="http://www.w3.org/2000/svg">
<path fill-rule="evenodd" clip-rule="evenodd" d="M13.5403 5.45953C13.2865 5.20569 13.2865 4.79414 13.5403 4.5403C13.7942 4.28645 14.2057 4.28645 14.4596 4.5403L21.4596 11.5403L21.9192 11.9999L21.4596 12.4595L14.4596 19.4595C14.2057 19.7134 13.7942 19.7134 13.5403 19.4595C13.2865 19.2057 13.2865 18.7941 13.5403 18.5403L19.4305 12.6501H8.49985C5.37944 12.6501 2.84985 10.1205 2.84985 7.00011V5.00011C2.84985 4.64112 3.14087 4.35011 3.49985 4.35011C3.85884 4.35011 4.14985 4.64112 4.14985 5.00011V7.00011C4.14985 9.40255 6.09741 11.3501 8.49985 11.3501H19.4309L13.5403 5.45953Z" fill="white" fill-opacity="0.24"/>
</svg>
