<svg xmlns="http://www.w3.org/2000/svg" width="24" height="24" viewBox="0 0 24 24" fill="none">
<path fill-rule="evenodd" clip-rule="evenodd" d="M12.0001 2.3501C11.8277 2.35007 11.6623 2.41854 11.5404 2.54044C11.4185 2.66235 11.35 2.82769 11.35 3.0001V11.6659L3.91219 15.9984C3.76285 16.0854 3.65431 16.2283 3.61054 16.3955C3.56678 16.5627 3.5914 16.7404 3.67896 16.8894C4.53559 18.3471 5.76015 19.5541 7.23001 20.3895C8.69986 21.225 10.3634 21.6597 12.0541 21.6499C13.7448 21.6402 15.4033 21.1865 16.8634 20.3342C18.3236 19.4818 19.5342 18.2608 20.374 16.7934C21.2138 15.3261 21.6533 13.6638 21.6486 11.9731C21.6439 10.2824 21.195 8.62259 20.347 7.15992C19.499 5.69726 18.2816 4.48307 16.8167 3.63893C15.3518 2.7948 13.6908 2.35035 12.0001 2.3501ZM12.65 12.0395V3.67554C13.8863 3.77227 15.0884 4.14345 16.1676 4.76531C17.4352 5.49573 18.4886 6.54635 19.2224 7.81197C19.9561 9.07759 20.3445 10.5138 20.3486 11.9767C20.3527 13.4397 19.9724 14.878 19.2457 16.1477C18.519 17.4174 17.4715 18.4739 16.2081 19.2114C14.9446 19.9489 13.5096 20.3415 12.0466 20.35C10.5837 20.3584 9.14426 19.9823 7.87241 19.2594C6.79032 18.6443 5.86188 17.7965 5.15242 16.7805L12.3272 12.6011C12.527 12.4847 12.65 12.2708 12.65 12.0395ZM9.64998 3.51572C9.64998 3.30472 9.54755 3.10684 9.37527 2.98501C9.20299 2.86318 8.9823 2.83256 8.78335 2.90288C6.61623 3.66891 4.79369 5.18332 3.64379 7.17353C2.49388 9.16375 2.09214 11.4991 2.51085 13.7591C2.5493 13.9666 2.6861 14.1426 2.87773 14.231C3.06937 14.3194 3.292 14.3092 3.4748 14.2037L9.3248 10.8287C9.52601 10.7127 9.64998 10.498 9.64998 10.2657V3.51572ZM4.76941 7.8239C5.60697 6.37428 6.85692 5.2164 8.34998 4.49091V9.89031L3.67017 12.5902C3.55306 10.9345 3.93192 9.27341 4.76941 7.8239Z" fill="white" fill-opacity="0.87"/>
</svg>