<svg xmlns="http://www.w3.org/2000/svg" width="20" height="20" viewBox="0 0 20 20" fill="none">
<path fill-rule="evenodd" clip-rule="evenodd" d="M6 2.5C6 2.22386 5.77614 2 5.5 2C5.22386 2 5 2.22386 5 2.5V3H4C2.89543 3 2 3.89543 2 5V16C2 17.1046 2.89543 18 4 18H16C17.1046 18 18 17.1046 18 16V5C18 3.89543 17.1046 3 16 3H15V2.5C15 2.22386 14.7761 2 14.5 2C14.2239 2 14 2.22386 14 2.5V3H6V2.5ZM5 4V4.5C5 4.77614 5.22386 5 5.5 5C5.77614 5 6 4.77614 6 4.5V4H14V4.5C14 4.77614 14.2239 5 14.5 5C14.7761 5 15 4.77614 15 4.5V4H16C16.5523 4 17 4.44772 17 5V7H3V5C3 4.44772 3.44772 4 4 4H5ZM3 8V16C3 16.5523 3.44772 17 4 17H16C16.5523 17 17 16.5523 17 16V8H3Z" fill="black" fill-opacity="0.54"/>
</svg>