<svg width="24" height="24" viewBox="0 0 24 24" fill="none" xmlns="http://www.w3.org/2000/svg">
<path d="M18.0405 5.04048C18.2943 4.78664 18.7059 4.78664 18.9597 5.04048C19.2136 5.29432 19.2136 5.70588 18.9597 5.95972L12.9194 12L18.9599 18.0405C19.2138 18.2943 19.2138 18.7059 18.9599 18.9597C18.7061 19.2136 18.2945 19.2136 18.0407 18.9597L12.0002 12.9192L5.95972 18.9597C5.70588 19.2136 5.29432 19.2136 5.04048 18.9597C4.78664 18.7059 4.78664 18.2943 5.04048 18.0405L11.081 12L5.04067 5.95972C4.78683 5.70588 4.78683 5.29432 5.04067 5.04048C5.29451 4.78664 5.70607 4.78664 5.95991 5.04048L12.0002 11.0808L18.0405 5.04048Z" fill="white" fill-opacity="0.87"/>
</svg>
