<svg width="20" height="20" viewBox="0 0 20 20" fill="none" xmlns="http://www.w3.org/2000/svg">
<path fill-rule="evenodd" clip-rule="evenodd" d="M7.2 5.9998C7.2 4.45341 8.4536 3.1998 10 3.1998C11.5464 3.1998 12.8 4.45341 12.8 5.9998V6.9998H7.2V5.9998ZM5.8 6.9998H5.5C4.11929 6.9998 3 8.11909 3 9.4998V9.9998H4V9.4998C4 8.67138 4.67157 7.9998 5.5 7.9998H14.5C15.3284 7.9998 16 8.67138 16 9.4998V15.4998C16 16.3282 15.3284 16.9998 14.5 16.9998H5.5C4.67157 16.9998 4 16.3282 4 15.4998V14.9998H3V15.4998C3 16.8805 4.11929 17.9998 5.5 17.9998H14.5C15.8807 17.9998 17 16.8805 17 15.4998V9.4998C17 8.11909 15.8807 6.9998 14.5 6.9998H14.2V5.9998C14.2 3.68021 12.3196 1.7998 10 1.7998C7.6804 1.7998 5.8 3.68021 5.8 5.9998V6.9998Z" fill="black" fill-opacity="0.54"/>
<path d="M2 12.5002L11.8509 12.5001M11.8509 12.5001L9.00011 15.351M11.8509 12.5001L9.00011 9.64928" stroke="black" stroke-opacity="0.54" stroke-linecap="round"/>
</svg>
