<svg width="16" height="16" viewBox="0 0 16 16" fill="none" xmlns="http://www.w3.org/2000/svg">
<circle cx="8" cy="8" r="8" fill="transperent"/>
<path fill-rule="evenodd" clip-rule="evenodd" d="M8.00009 13.9998C11.3138 13.9998 14.0001 11.3135 14.0001 7.99976C14.0001 4.68605 11.3138 1.99976 8.00009 1.99976C4.68638 1.99976 2.00009 4.68605 2.00009 7.99976C2.00009 11.3135 4.68638 13.9998 8.00009 13.9998ZM8.00009 14.9998C11.8661 14.9998 15.0001 11.8657 15.0001 7.99976C15.0001 4.13376 11.8661 0.999756 8.00009 0.999756C4.1341 0.999756 1.00009 4.13376 1.00009 7.99976C1.00009 11.8657 4.1341 14.9998 8.00009 14.9998ZM8.93999 11.2912C8.93999 11.8337 8.50023 12.2734 7.95777 12.2734C7.41531 12.2734 6.97556 11.8337 6.97556 11.2912C6.97556 10.7487 7.41531 10.309 7.95777 10.309C8.50023 10.309 8.93999 10.7487 8.93999 11.2912ZM7.58646 3.76071C7.29805 3.76071 7.06944 4.00405 7.08743 4.2919L7.35234 8.53037C7.36881 8.79389 7.58733 8.99918 7.85136 8.99918H8.22153C8.48556 8.99918 8.70409 8.79389 8.72056 8.53037L8.98546 4.2919C9.00345 4.00405 8.77484 3.76071 8.48643 3.76071H7.58646Z" fill="#F0483F"/>
</svg>
