<svg width="148" height="122" viewBox="0 0 148 122" fill="none" xmlns="http://www.w3.org/2000/svg">
<path fill-rule="evenodd" clip-rule="evenodd" d="M136.118 8.30901C110.656 -11.685 73.5301 8.48295 45.8304 25.981C19.3153 42.7307 -7.47257 64.7852 1.91609 93.0853C10.9277 120.249 48.5159 122.954 79.249 121.78C94.8047 121.186 107.903 114.434 117.641 104.068H91.9561V100H62.2662L62.2662 100.023C62.2662 103.502 59.3964 106.297 55.9181 106.204L12.9053 105.06C10.1753 104.988 7.99999 102.754 7.99999 100.023C7.99999 97.7842 9.46167 95.8796 11.4924 95.2256C15.5468 89.8507 22.7566 80.3561 27.3116 74.5475L27.0362 72.6067L24.9471 72.3102L20.7623 68.207C23.9159 68.0389 27.0103 69.1109 29.3842 71.1939L29.7336 71.5005C29.9668 71.2132 30.1798 70.9538 30.3704 70.7251C32.8636 67.7332 35.8553 66.2568 38 65.6284V47C38 46.4477 38.4477 46 39 46H55V43C55 39.134 58.134 36 62 36H88C91.866 36 95 39.134 95 43V46H111C111.552 46 112 46.4477 112 47V63.1356C114.84 61.7673 118.026 61.0002 121.392 61.0002C128.114 61.0002 134.119 64.0592 138.082 68.8566C148.249 46.5433 154.836 23.0074 136.118 8.30901ZM32.3674 79.375C28.6835 83.9525 24.0869 89.5523 21.278 92.9511L19.8347 93.3841L19.6641 94.8055L38 94.3179V84.1822L36.8956 84.0255L36.6363 83.7712L36.3776 81.9481L34.5059 81.6824L34.3085 81.4888L34.0422 79.6127L32.3674 79.375ZM38 78.7539L34.9801 76.1041C36.3642 74.3542 37.4144 72.9886 37.8753 72.3127C37.9177 72.2506 37.9592 72.1881 38 72.1252V78.7539ZM59 43C59 41.3431 60.3431 40 62 40H88C89.6568 40 91 41.3431 91 43V49C91 50.6569 89.6568 52 88 52H62C60.3431 52 59 50.6569 59 49V43ZM112.937 82.5343C112.937 87.1881 116.723 90.9607 121.392 90.9607C126.062 90.9607 129.848 87.1881 129.848 82.5343C129.848 77.8806 126.062 74.108 121.392 74.108C116.723 74.108 112.937 77.8806 112.937 82.5343Z" fill="#B2C8EB" fill-opacity="0.35"/>
<path d="M12 12L17.5 17.5M23 23L17.5 17.5M17.5 17.5L23 12L12 23" stroke="#B2C8EB" stroke-opacity="0.35" stroke-width="2" stroke-linecap="round"/>
<path d="M125 16L130.5 21.5M136 27L130.5 21.5M130.5 21.5L136 16L125 27" stroke="#B2C8EB" stroke-opacity="0.35" stroke-width="2" stroke-linecap="round"/>
<path fill-rule="evenodd" clip-rule="evenodd" d="M53 43C53 38.0294 57.0294 34 62 34H88C92.9706 34 97 38.0294 97 43V44H111C112.657 44 114 45.3432 114 47V62.2935C113.317 62.5415 112.649 62.8228 112 63.1356V47C112 46.4477 111.552 46 111 46H95V43C95 39.134 91.866 36 88 36H62C58.134 36 55 39.134 55 43V46H39C38.4477 46 38 46.4477 38 47V65.6284C37.3913 65.8068 36.7144 66.0534 36 66.3837V47C36 45.3432 37.3431 44 39 44H53V43ZM37.8753 72.3126C37.9177 72.2506 37.9592 72.1881 38 72.1252V78.7539L36 76.999V74.8064C36.8767 73.6824 37.5359 72.8105 37.8753 72.3126ZM36 81.8945V94.3711L38 94.3179V84.1822L36.8956 84.0255L36.6363 83.7712L36.3776 81.9481L36 81.8945ZM62.2662 100.023L62.2662 100H91.9561V102H61.9435C62.1527 101.38 62.2662 100.715 62.2662 100.023ZM112.937 82.5343C112.937 81.0489 113.323 79.6533 114 78.4415V86.6272C113.323 85.4154 112.937 84.0198 112.937 82.5343ZM62 42C61.4477 42 61 42.4477 61 43V49C61 49.5523 61.4477 50 62 50H88C88.5523 50 89 49.5523 89 49V43C89 42.4477 88.5523 42 88 42H62ZM62 40C60.3431 40 59 41.3431 59 43V49C59 50.6569 60.3431 52 62 52H88C89.6569 52 91 50.6569 91 49V43C91 41.3431 89.6569 40 88 40H62Z" fill="#82A5DB"/>
<path fill-rule="evenodd" clip-rule="evenodd" d="M75 93C84.3888 93 92 85.3888 92 76C92 66.6112 84.3888 59 75 59C65.6112 59 58 66.6112 58 76C58 85.3888 65.6112 93 75 93ZM72 68C72 66.8954 72.8954 66 74 66H76C77.1046 66 78 66.8954 78 68V73H83C84.1046 73 85 73.8954 85 75V77C85 78.1046 84.1046 79 83 79H78V84C78 85.1046 77.1046 86 76 86H74C72.8954 86 72 85.1046 72 84V79H67C65.8954 79 65 78.1046 65 77V75C65 73.8954 65.8954 73 67 73L72 73V68Z" fill="#82A5DB"/>
<rect x="42" y="50" width="10" height="4" rx="1" fill="#82A5DB"/>
<rect x="98" y="50" width="10" height="4" rx="1" fill="#82A5DB"/>
<path fill-rule="evenodd" clip-rule="evenodd" d="M55.9555 95.2447L12.9426 96.3886C10.9732 96.441 9.40389 98.0526 9.40389 100.023C9.40389 101.993 10.9732 103.604 12.9426 103.657L55.9555 104.801C58.6441 104.872 60.8623 102.712 60.8623 100.023C60.8623 97.3332 58.6441 95.1732 55.9555 95.2447ZM12.9053 94.9852C10.1753 95.0578 8 97.2918 8 100.023C8 102.754 10.1753 104.988 12.9053 105.06L55.9182 106.204C59.3965 106.297 62.2662 103.502 62.2662 100.023C62.2662 96.5432 59.3965 93.7488 55.9182 93.8413L12.9053 94.9852Z" fill="#82A5DB"/>
<path fill-rule="evenodd" clip-rule="evenodd" d="M48.5708 70.618L48.8236 69.9215L49.5054 70.2115C50.9009 70.8051 53.8706 72.9515 55.3282 76.9874C56.5813 80.4573 59.9675 91.298 61.9671 97.7832C62.0246 97.9696 62.0432 98.1507 62.0295 98.3219C61.6346 96.9381 60.77 95.7542 59.6214 94.9512C57.6379 88.5615 55.057 80.3696 54.0078 77.4643C52.93 74.4801 50.9377 72.6835 49.665 71.8843C49.4151 72.9652 49.2208 74.6618 49.6261 76.2474C50.1496 78.2955 53.5986 88.1494 55.6227 93.8492L54.147 93.8885C52.1137 88.1564 48.7951 78.6652 48.2659 76.595C47.6459 74.1693 48.2078 71.6181 48.5708 70.618Z" fill="#82A5DB"/>
<path fill-rule="evenodd" clip-rule="evenodd" d="M40.7422 64.4996V65.2405C40.7422 66.6251 40.2931 70.0125 38.4554 72.7079C37.9845 73.3985 36.9146 74.7894 35.5082 76.5674L34.452 75.6406C35.8137 73.9187 36.8444 72.5785 37.2954 71.917C38.6358 69.9511 39.1545 67.5141 39.2954 66.0388C37.3481 66.3905 33.7881 67.7203 30.9097 71.1743C30.7162 71.4065 30.4994 71.6707 30.2616 71.9637L29.3843 71.1939C29.3247 71.1416 29.2646 71.0899 29.2041 71.0389C29.4334 70.7566 29.6432 70.5012 29.8312 70.2755C33.433 65.9535 38.0488 64.6452 40.0024 64.5396L40.7422 64.4996ZM27.1751 73.5849C22.4714 79.5627 14.5292 90.0292 10.4704 95.415L10.0623 95.9565C10.7682 95.4388 11.6146 95.1002 12.5355 95.0086C16.7196 89.4667 23.6814 80.3066 28.0422 74.7533L27.3369 74.6533L27.3251 74.6416L27.1751 73.5849ZM31.924 78.8064C28.2927 83.3203 23.7288 88.8824 20.8725 92.3398L19.1926 92.8437L18.9549 94.8244L20.3734 94.7867L20.4769 93.9241L21.6835 93.5621L21.8191 93.3981C24.6841 89.9315 29.4384 84.1396 33.1757 79.4897L32.1164 79.3394L31.9808 79.2064L31.924 78.8064Z" fill="#82A5DB"/>
<path d="M54.1829 93.8875L28.9212 71.7215C27.1192 70.1403 24.8764 69.1776 22.5188 68.9462L25.2739 71.6476L27.657 71.9858L27.9473 74.0309L29.9924 74.3211L30.2826 76.3662L32.3277 76.6565L32.618 78.7016L34.6631 78.9918L34.9533 81.0369L36.9984 81.3272L37.2887 83.3723L39.3338 83.6625L39.624 85.7076L41.6691 85.9979L41.9535 88.0015L42.0019 88.049L44.0044 88.3332L44.2813 90.2839L44.3916 90.3921L46.3398 90.6686L46.6091 92.5663L46.7813 92.7351L48.6751 93.0039L48.8208 94.0301L46.3733 94.0952L46.1276 94.0603L45.2861 93.2353L45.0981 91.9103L43.7379 91.7173L42.9583 90.9529L42.7627 89.5749L41.3482 89.3742L40.6304 88.6705L40.4274 87.2396L38.9585 87.0311L38.3026 86.3881L38.092 84.9043L36.5688 84.6881L35.9748 84.1057L35.7567 82.5689L34.1791 82.345L33.6469 81.8233L33.4213 80.2336L31.7894 80.002L31.3191 79.5409L31.086 77.8982L29.3997 77.6589L28.9913 77.2585L28.7506 75.5629L27.01 75.3158L26.6635 74.9761L26.4153 73.2275L24.6202 72.9728L19.1313 67.591L20.7249 67.5061C24.0616 67.3282 27.3355 68.4624 29.8471 70.6662L56.259 93.8415C56.1461 93.8384 56.0324 93.8383 55.9181 93.8413L54.1829 93.8875Z" fill="#82A5DB"/>
<path fill-rule="evenodd" clip-rule="evenodd" d="M37.1157 100.928H52.4521C54.9973 100.928 57.2542 102.154 58.667 104.045C59.987 103.194 60.8623 101.712 60.8623 100.023C60.8623 97.3332 58.6441 95.1732 55.9555 95.2447L12.9426 96.3886C10.9732 96.441 9.40389 98.0526 9.40389 100.023C9.40389 101.993 10.9732 103.604 12.9426 103.657L35.6013 104.26L37.1157 100.928ZM36.4943 105.688L12.9053 105.06C10.1753 104.988 8 102.754 8 100.023C8 97.2918 10.1753 95.0578 12.9053 94.9852L55.9182 93.8413C59.3965 93.7488 62.2662 96.5432 62.2662 100.023C62.2662 102.722 60.539 105.009 58.1404 105.856C57.1005 103.767 54.9439 102.332 52.4521 102.332H38.0196L36.4943 105.688Z" fill="#82A5DB"/>
<path fill-rule="evenodd" clip-rule="evenodd" d="M119.871 104.016V104.068H91.956V98.5044H106.897C107.526 99.0718 108.189 99.6028 108.882 100.094H93.5511V102.479H113.229C115.302 103.322 117.535 103.854 119.871 104.016Z" fill="#82A5DB"/>
<path fill-rule="evenodd" clip-rule="evenodd" d="M121.466 93.7352C115.299 93.7352 110.3 88.753 110.3 82.6073C110.3 76.4615 115.299 71.4794 121.466 71.4794C127.633 71.4794 132.632 76.4615 132.632 82.6073C132.632 88.753 127.633 93.7352 121.466 93.7352ZM114.288 82.6073C114.288 86.5581 117.501 89.7609 121.466 89.7609C125.43 89.7609 128.644 86.5581 128.644 82.6073C128.644 78.6564 125.43 75.4536 121.466 75.4536C117.501 75.4536 114.288 78.6564 114.288 82.6073Z" fill="#82A5DB"/>
<path d="M121.067 69.0948C128.335 69.0948 134.227 74.9666 134.227 82.2099H135.822C135.822 74.0887 129.216 67.5051 121.067 67.5051C112.918 67.5051 106.312 74.0887 106.312 82.2099C106.312 90.331 112.918 96.9146 121.067 96.9146V95.3249C113.799 95.3249 107.907 89.4531 107.907 82.2099C107.907 74.9666 113.799 69.0948 121.067 69.0948Z" fill="#82A5DB"/>
<path d="M138.215 82.6073C138.215 73.3886 130.716 65.9154 121.466 65.9154V64.3257C131.597 64.3257 139.81 72.5106 139.81 82.6073H138.215Z" fill="#82A5DB"/>
<path fill-rule="evenodd" clip-rule="evenodd" d="M121.392 104.068C109.459 104.068 99.7849 94.4271 99.7849 82.5341C99.7849 70.6411 109.459 61 121.392 61C133.326 61 143 70.6411 143 82.5341C143 94.4271 133.326 104.068 121.392 104.068ZM101.38 82.5341C101.38 93.5491 110.34 102.479 121.392 102.479C132.445 102.479 141.405 93.5491 141.405 82.5341C141.405 71.5191 132.445 62.5897 121.392 62.5897C110.34 62.5897 101.38 71.5191 101.38 82.5341Z" fill="#82A5DB"/>
</svg>
