<svg xmlns="http://www.w3.org/2000/svg" width="24" height="24" viewBox="0 0 24 24" fill="none">
<path fill-rule="evenodd" clip-rule="evenodd" d="M5.50007 2.84961C3.48423 2.84961 1.85007 4.48377 1.85007 6.49961V11.4728L1.84998 11.4998V18.2775C1.84998 19.8638 3.13591 21.1498 4.7222 21.1498H10.3633C10.1344 20.8245 10 20.4279 10 20V19.8498H4.7222C3.85388 19.8498 3.14997 19.1458 3.14997 18.2775V13.5667L3.15007 13.5553V11.4781C3.16172 10.1902 4.20934 9.14976 5.49998 9.14976H18.5C19.7978 9.14976 20.85 10.2019 20.85 11.4998V12H21C21.4281 12 21.8248 12.1345 22.1501 12.3635V8.49985C22.1501 6.48401 20.5159 4.84985 18.5001 4.84985H11.292L9.70799 3.06778L9.51406 2.84961H9.22216H5.50007ZM20.8501 8.70688V8.49985C20.8501 7.20198 19.7979 6.14985 18.5001 6.14985H11.0001H10.7082L10.5142 5.93168L8.93026 4.14961H5.50007C4.2022 4.14961 3.15007 5.20174 3.15007 6.49961V8.70672C3.78501 8.17196 4.60487 7.84976 5.49998 7.84976H18.5C19.3952 7.84976 20.2151 8.17203 20.8501 8.70688ZM17.15 12.45H16.15C15.7634 12.45 15.45 12.7634 15.45 13.15H17.85C17.85 12.7634 17.5366 12.45 17.15 12.45ZM19.15 13.15H20.15C21.2546 13.15 22.15 14.0454 22.15 15.15V19.15C22.15 20.2546 21.2546 21.15 20.15 21.15H13.15C12.0455 21.15 11.15 20.2546 11.15 19.15V15.15C11.15 14.0454 12.0455 13.15 13.15 13.15H14.15C14.15 12.0454 15.0454 11.15 16.15 11.15H17.15C18.2546 11.15 19.15 12.0454 19.15 13.15ZM20.15 14.45H13.15C12.7634 14.45 12.45 14.7634 12.45 15.15V15.8896C12.5982 15.9625 12.796 16.0487 13.048 16.1363C13.5954 16.3267 14.4032 16.5257 15.5191 16.6094L15.5186 16.61C15.5152 16.6142 15.5119 16.6184 15.5086 16.6226L15.5186 16.61C15.7202 16.3602 16.029 16.2004 16.375 16.2004H16.925C17.5325 16.2004 18.025 16.6929 18.025 17.3004C18.025 17.9079 17.5325 18.4004 16.925 18.4004H16.375C15.9923 18.4004 15.6553 18.205 15.4582 17.9084C14.2173 17.8184 13.2866 17.5957 12.621 17.3642C12.5619 17.3436 12.5049 17.323 12.45 17.3025V19.15C12.45 19.5366 12.7634 19.85 13.15 19.85H20.15C20.5366 19.85 20.85 19.5366 20.85 19.15V17.3025C20.7952 17.3231 20.7383 17.3437 20.6793 17.3642C20.0136 17.5957 19.0829 17.8185 17.8418 17.9085C17.9576 17.7343 18.0251 17.5251 18.0251 17.3003C18.0251 17.0386 17.9337 16.7982 17.7811 16.6094C18.8971 16.5257 19.7048 16.3267 20.2522 16.1363C20.5041 16.0487 20.7019 15.9626 20.85 15.8896V15.15C20.85 14.7634 20.5366 14.45 20.15 14.45Z" fill="black" fill-opacity="0.87"/>
</svg>