<svg xmlns="http://www.w3.org/2000/svg" width="40" height="40" viewBox="0 0 40 40" fill="none">
<path d="M4.3335 9C4.3335 7.34315 5.67664 6 7.3335 6H32.6668C34.3237 6 35.6668 7.34315 35.6668 9V31C35.6668 32.6569 34.3237 34 32.6668 34H7.33349C5.67664 34 4.3335 32.6569 4.3335 31V9Z" fill="white"/>
<path d="M4.3335 9C4.3335 7.34315 5.67664 6 7.3335 6H32.6668C34.3237 6 35.6668 7.34315 35.6668 9V31C35.6668 32.6569 34.3237 34 32.6668 34H7.33349C5.67664 34 4.3335 32.6569 4.3335 31V9Z" fill="#82B1FF"/>
<path d="M4.3335 9C4.3335 7.34315 5.67664 6 7.3335 6H32.6668C34.3237 6 35.6668 7.34315 35.6668 9V31C35.6668 32.6569 34.3237 34 32.6668 34H7.33349C5.67664 34 4.3335 32.6569 4.3335 31V9Z" fill="url(#paint0_linear_4380_1645)"/>
<path d="M4.3335 9C4.3335 7.34315 5.67664 6 7.3335 6H32.6668C34.3237 6 35.6668 7.34315 35.6668 9V31C35.6668 32.6569 34.3237 34 32.6668 34H7.33349C5.67664 34 4.3335 32.6569 4.3335 31V9Z" stroke="#535961" stroke-width="2"/>
<path d="M4.3335 9C4.3335 7.34315 5.67664 6 7.3335 6H32.6668C34.3237 6 35.6668 7.34315 35.6668 9V13H4.3335V9Z" fill="white" stroke="#535961" stroke-width="2"/>
<rect x="3.3335" y="12" width="33.3333" height="2" fill="#535961"/>
<path fill-rule="evenodd" clip-rule="evenodd" d="M22.75 8.25C22.0596 8.25 21.5 8.80964 21.5 9.5C21.5 10.1904 22.0596 10.75 22.75 10.75C23.4404 10.75 24 10.1904 24 9.5C24 8.80964 23.4404 8.25 22.75 8.25ZM26 9.5C26 8.80964 26.5596 8.25 27.25 8.25C27.9404 8.25 28.5 8.80964 28.5 9.5C28.5 10.1904 27.9404 10.75 27.25 10.75C26.5596 10.75 26 10.1904 26 9.5ZM30.5 9.5C30.5 8.80964 31.0596 8.25 31.75 8.25C32.4404 8.25 33 8.80964 33 9.5C33 10.1904 32.4404 10.75 31.75 10.75C31.0596 10.75 30.5 10.1904 30.5 9.5Z" fill="#535961"/>
<defs>
<linearGradient id="paint0_linear_4380_1645" x1="20.0002" y1="5" x2="20.0002" y2="35" gradientUnits="userSpaceOnUse">
<stop stop-color="#B2C6D9"/>
<stop offset="1" stop-color="#96ACCA"/>
</linearGradient>
</defs>
</svg>