<svg xmlns="http://www.w3.org/2000/svg" width="24" height="24" viewBox="0 0 24 24" fill="none">
<path d="M5.5 3C5.5 2.17157 6.17157 1.5 7 1.5H17C17.8284 1.5 18.5 2.17157 18.5 3V21C18.5 21.8284 17.8284 22.5 17 22.5H7C6.17157 22.5 5.5 21.8284 5.5 21V3Z" fill="#CED1D9"/>
<path d="M5.5 3C5.5 2.17157 6.17157 1.5 7 1.5H17C17.8284 1.5 18.5 2.17157 18.5 3V21C18.5 21.8284 17.8284 22.5 17 22.5H7C6.17157 22.5 5.5 21.8284 5.5 21V3Z" fill="#82B1FF"/>
<path d="M5.5 3C5.5 2.17157 6.17157 1.5 7 1.5H17C17.8284 1.5 18.5 2.17157 18.5 3V21C18.5 21.8284 17.8284 22.5 17 22.5H7C6.17157 22.5 5.5 21.8284 5.5 21V3Z" fill="url(#paint0_linear_9445_19403)"/>
<path d="M5.5 3C5.5 2.17157 6.17157 1.5 7 1.5H17C17.8284 1.5 18.5 2.17157 18.5 3V21C18.5 21.8284 17.8284 22.5 17 22.5H7C6.17157 22.5 5.5 21.8284 5.5 21V3Z" fill="#F3D1D7"/>
<path d="M5.5 3C5.5 2.17157 6.17157 1.5 7 1.5H17C17.8284 1.5 18.5 2.17157 18.5 3V21C18.5 21.8284 17.8284 22.5 17 22.5H7C6.17157 22.5 5.5 21.8284 5.5 21V3Z" fill="url(#paint1_radial_9445_19403)"/>
<path d="M5.5 3C5.5 2.17157 6.17157 1.5 7 1.5H17C17.8284 1.5 18.5 2.17157 18.5 3V21C18.5 21.8284 17.8284 22.5 17 22.5H7C6.17157 22.5 5.5 21.8284 5.5 21V3Z" fill="url(#paint2_radial_9445_19403)"/>
<path d="M5.5 3C5.5 2.17157 6.17157 1.5 7 1.5H17C17.8284 1.5 18.5 2.17157 18.5 3V21C18.5 21.8284 17.8284 22.5 17 22.5H7C6.17157 22.5 5.5 21.8284 5.5 21V3Z" stroke="#535961"/>
<path d="M10 3.5C10 3.22386 10.2239 3 10.5 3H13.5C13.7761 3 14 3.22386 14 3.5C14 3.77614 13.7761 4 13.5 4H10.5C10.2239 4 10 3.77614 10 3.5Z" fill="#535961"/>
<defs>
<linearGradient id="paint0_linear_9445_19403" x1="12" y1="1" x2="12" y2="23" gradientUnits="userSpaceOnUse">
<stop stop-color="#BFD7FF"/>
<stop offset="1" stop-color="#82B1FF"/>
</linearGradient>
<radialGradient id="paint1_radial_9445_19403" cx="0" cy="0" r="1" gradientUnits="userSpaceOnUse" gradientTransform="translate(11.6957 23) rotate(-90) scale(22 14)">
<stop stop-color="#CFEAF9"/>
<stop offset="1" stop-color="#CFEAF9" stop-opacity="0"/>
</radialGradient>
<radialGradient id="paint2_radial_9445_19403" cx="0" cy="0" r="1" gradientUnits="userSpaceOnUse" gradientTransform="translate(5 1) scale(14 22)">
<stop stop-color="#F7DDCB"/>
<stop offset="1" stop-color="#F7DDCB" stop-opacity="0"/>
</radialGradient>
</defs>
</svg>