<svg xmlns="http://www.w3.org/2000/svg" width="24" height="24" viewBox="0 0 24 24" fill="none">
<path d="M2.5 6C2.5 5.17157 3.17157 4.5 4 4.5H20C20.8284 4.5 21.5 5.17157 21.5 6V16C21.5 16.8284 20.8284 17.5 20 17.5H4C3.17157 17.5 2.5 16.8284 2.5 16V6Z" fill="#298CFF"/>
<path d="M2.5 6C2.5 5.17157 3.17157 4.5 4 4.5H20C20.8284 4.5 21.5 5.17157 21.5 6V16C21.5 16.8284 20.8284 17.5 20 17.5H4C3.17157 17.5 2.5 16.8284 2.5 16V6Z" fill="url(#paint0_linear_4631_1815)"/>
<path d="M2.5 6C2.5 5.17157 3.17157 4.5 4 4.5H20C20.8284 4.5 21.5 5.17157 21.5 6V16C21.5 16.8284 20.8284 17.5 20 17.5H4C3.17157 17.5 2.5 16.8284 2.5 16V6Z" stroke="#535961"/>
<path d="M1 19.5L23 19.5" stroke="#535961" stroke-linecap="round"/>
<defs>
<linearGradient id="paint0_linear_4631_1815" x1="8.5" y1="18" x2="8.5" y2="6" gradientUnits="userSpaceOnUse">
<stop stop-color="#6ECAFF" stop-opacity="0"/>
<stop offset="1" stop-color="#6ECAFF"/>
</linearGradient>
</defs>
</svg>