<svg xmlns="http://www.w3.org/2000/svg" width="24" height="24" viewBox="0 0 24 24" fill="none">
<path d="M2.5 5C2.5 4.17157 3.17157 3.5 4 3.5H20C20.8284 3.5 21.5 4.17157 21.5 5V19C21.5 19.8284 20.8284 20.5 20 20.5H4C3.17157 20.5 2.5 19.8284 2.5 19V5Z" fill="white"/>
<path d="M2.5 5C2.5 4.17157 3.17157 3.5 4 3.5H20C20.8284 3.5 21.5 4.17157 21.5 5V19C21.5 19.8284 20.8284 20.5 20 20.5H4C3.17157 20.5 2.5 19.8284 2.5 19V5Z" fill="#82B1FF"/>
<path d="M2.5 5C2.5 4.17157 3.17157 3.5 4 3.5H20C20.8284 3.5 21.5 4.17157 21.5 5V19C21.5 19.8284 20.8284 20.5 20 20.5H4C3.17157 20.5 2.5 19.8284 2.5 19V5Z" fill="url(#paint0_linear_4631_1818)"/>
<path d="M2.5 5C2.5 4.17157 3.17157 3.5 4 3.5H20C20.8284 3.5 21.5 4.17157 21.5 5V19C21.5 19.8284 20.8284 20.5 20 20.5H4C3.17157 20.5 2.5 19.8284 2.5 19V5Z" stroke="#535961"/>
<path d="M2.5 5C2.5 4.17157 3.17157 3.5 4 3.5H20C20.8284 3.5 21.5 4.17157 21.5 5V7.5H2.5V5Z" fill="white" stroke="#535961"/>
<rect x="2" y="7" width="20" height="1" fill="#535961"/>
<rect x="19" y="5" width="1" height="1" fill="#535961"/>
<rect x="17" y="5" width="1" height="1" fill="#535961"/>
<rect x="15" y="5" width="1" height="1" fill="#535961"/>
<defs>
<linearGradient id="paint0_linear_4631_1818" x1="12" y1="3" x2="12" y2="21" gradientUnits="userSpaceOnUse">
<stop stop-color="#B2C6D9"/>
<stop offset="1" stop-color="#96ACCA"/>
</linearGradient>
</defs>
</svg>