<svg xmlns="http://www.w3.org/2000/svg" width="24" height="24" viewBox="0 0 24 24" fill="none">
<path fill-rule="evenodd" clip-rule="evenodd" d="M2 6C2 4.89543 2.89543 4 4 4H16C17.1046 4 18 4.89543 18 6V8.68604C18 9.18106 18.791 9.4847 19.2401 9.27657C19.6232 9.09906 20.05 9 20.5 9C22.1569 9 23.5 10.3431 23.5 12C23.5 13.6569 22.1569 15 20.5 15C20.05 15 19.6232 14.9009 19.2401 14.7234C18.791 14.5153 18 14.8189 18 15.314V18C18 19.1046 17.1046 20 16 20H4C2.89543 20 2 19.1046 2 18V15.314C2 14.8189 2.79098 14.5153 3.24013 14.7234C3.6232 14.9009 4.05003 15 4.5 15C6.15685 15 7.5 13.6569 7.5 12C7.5 10.3431 6.15685 9 4.5 9C4.05003 9 3.6232 9.09906 3.24013 9.27657C2.79098 9.4847 2 9.18106 2 8.68604V6Z" fill="url(#paint0_linear_4664_1912)"/>
<path fill-rule="evenodd" clip-rule="evenodd" d="M2 6C2 4.89543 2.89543 4 4 4H16C17.1046 4 18 4.89543 18 6V8.68604C18 9.18106 18.791 9.4847 19.2401 9.27657C19.6232 9.09906 20.05 9 20.5 9C22.1569 9 23.5 10.3431 23.5 12C23.5 13.6569 22.1569 15 20.5 15C20.05 15 19.6232 14.9009 19.2401 14.7234C18.791 14.5153 18 14.8189 18 15.314V18C18 19.1046 17.1046 20 16 20H4C2.89543 20 2 19.1046 2 18V15.314C2 14.8189 2.79098 14.5153 3.24013 14.7234C3.6232 14.9009 4.05003 15 4.5 15C6.15685 15 7.5 13.6569 7.5 12C7.5 10.3431 6.15685 9 4.5 9C4.05003 9 3.6232 9.09906 3.24013 9.27657C2.79098 9.4847 2 9.18106 2 8.68604V6Z" fill="#5BB254"/>
<path fill-rule="evenodd" clip-rule="evenodd" d="M2 6C2 4.89543 2.89543 4 4 4H16C17.1046 4 18 4.89543 18 6V8.68604C18 9.18106 18.791 9.4847 19.2401 9.27657C19.6232 9.09906 20.05 9 20.5 9C22.1569 9 23.5 10.3431 23.5 12C23.5 13.6569 22.1569 15 20.5 15C20.05 15 19.6232 14.9009 19.2401 14.7234C18.791 14.5153 18 14.8189 18 15.314V18C18 19.1046 17.1046 20 16 20H4C2.89543 20 2 19.1046 2 18V15.314C2 14.8189 2.79098 14.5153 3.24013 14.7234C3.6232 14.9009 4.05003 15 4.5 15C6.15685 15 7.5 13.6569 7.5 12C7.5 10.3431 6.15685 9 4.5 9C4.05003 9 3.6232 9.09906 3.24013 9.27657C2.79098 9.4847 2 9.18106 2 8.68604V6Z" fill="url(#paint1_radial_4664_1912)"/>
<path fill-rule="evenodd" clip-rule="evenodd" d="M2 6C2 4.89543 2.89543 4 4 4H16C17.1046 4 18 4.89543 18 6V8.68604C18 9.18106 18.791 9.4847 19.2401 9.27657C19.6232 9.09906 20.05 9 20.5 9C22.1569 9 23.5 10.3431 23.5 12C23.5 13.6569 22.1569 15 20.5 15C20.05 15 19.6232 14.9009 19.2401 14.7234C18.791 14.5153 18 14.8189 18 15.314V18C18 19.1046 17.1046 20 16 20H4C2.89543 20 2 19.1046 2 18V15.314C2 14.8189 2.79098 14.5153 3.24013 14.7234C3.6232 14.9009 4.05003 15 4.5 15C6.15685 15 7.5 13.6569 7.5 12C7.5 10.3431 6.15685 9 4.5 9C4.05003 9 3.6232 9.09906 3.24013 9.27657C2.79098 9.4847 2 9.18106 2 8.68604V6Z" fill="#E5E7EE"/>
<path fill-rule="evenodd" clip-rule="evenodd" d="M2 6C2 4.89543 2.89543 4 4 4H16C17.1046 4 18 4.89543 18 6V8.68604C18 9.18106 18.791 9.4847 19.2401 9.27657C19.6232 9.09906 20.05 9 20.5 9C22.1569 9 23.5 10.3431 23.5 12C23.5 13.6569 22.1569 15 20.5 15C20.05 15 19.6232 14.9009 19.2401 14.7234C18.791 14.5153 18 14.8189 18 15.314V18C18 19.1046 17.1046 20 16 20H4C2.89543 20 2 19.1046 2 18V15.314C2 14.8189 2.79098 14.5153 3.24013 14.7234C3.6232 14.9009 4.05003 15 4.5 15C6.15685 15 7.5 13.6569 7.5 12C7.5 10.3431 6.15685 9 4.5 9C4.05003 9 3.6232 9.09906 3.24013 9.27657C2.79098 9.4847 2 9.18106 2 8.68604V6Z" fill="url(#paint2_linear_4664_1912)"/>
<path d="M19.2401 14.7234L19.4503 14.2698L19.2401 14.7234ZM19.2401 9.27657L19.0299 8.82291L19.2401 9.27657ZM4 3.5C2.61929 3.5 1.5 4.61929 1.5 6H2.5C2.5 5.17157 3.17157 4.5 4 4.5V3.5ZM16 3.5H4V4.5H16V3.5ZM18.5 6C18.5 4.61929 17.3807 3.5 16 3.5V4.5C16.8284 4.5 17.5 5.17157 17.5 6H18.5ZM18.5 8.68604V6H17.5V8.68604H18.5ZM20.5 8.5C19.976 8.5 19.4775 8.6155 19.0299 8.82291L19.4503 9.73023C19.7689 9.58263 20.1241 9.5 20.5 9.5V8.5ZM24 12C24 10.067 22.433 8.5 20.5 8.5V9.5C21.8807 9.5 23 10.6193 23 12H24ZM20.5 15.5C22.433 15.5 24 13.933 24 12H23C23 13.3807 21.8807 14.5 20.5 14.5V15.5ZM19.0299 15.1771C19.4775 15.3845 19.976 15.5 20.5 15.5V14.5C20.1241 14.5 19.7689 14.4174 19.4503 14.2698L19.0299 15.1771ZM18.5 18V15.314H17.5V18H18.5ZM16 20.5C17.3807 20.5 18.5 19.3807 18.5 18H17.5C17.5 18.8284 16.8284 19.5 16 19.5V20.5ZM4 20.5H16V19.5H4V20.5ZM1.5 18C1.5 19.3807 2.61929 20.5 4 20.5V19.5C3.17157 19.5 2.5 18.8284 2.5 18H1.5ZM1.5 15.314V18H2.5V15.314H1.5ZM4.5 14.5C4.12411 14.5 3.76889 14.4174 3.45035 14.2698L3.02991 15.1771C3.47751 15.3845 3.97595 15.5 4.5 15.5V14.5ZM7 12C7 13.3807 5.88071 14.5 4.5 14.5V15.5C6.433 15.5 8 13.933 8 12H7ZM4.5 9.5C5.88071 9.5 7 10.6193 7 12H8C8 10.067 6.433 8.5 4.5 8.5V9.5ZM3.45035 9.73024C3.76889 9.58263 4.12411 9.5 4.5 9.5V8.5C3.97595 8.5 3.47751 8.6155 3.02991 8.82291L3.45035 9.73024ZM1.5 6V8.68604H2.5V6H1.5ZM3.02991 8.82291C3.0079 8.83311 2.95897 8.84624 2.88209 8.84235C2.80705 8.83857 2.72569 8.81933 2.6531 8.78737C2.57905 8.75477 2.53278 8.71735 2.51045 8.69127C2.49104 8.66859 2.5 8.66834 2.5 8.68604H1.5C1.5 9.22463 1.91866 9.55666 2.25017 9.7026C2.59263 9.85337 3.05829 9.91191 3.45035 9.73024L3.02991 8.82291ZM2.5 15.314C2.5 15.3317 2.49104 15.3314 2.51045 15.3087C2.53278 15.2826 2.57905 15.2452 2.6531 15.2126C2.72569 15.1807 2.80705 15.1614 2.88209 15.1576C2.95897 15.1538 3.0079 15.1669 3.02991 15.1771L3.45035 14.2698C3.05829 14.0881 2.59263 14.1466 2.25017 14.2974C1.91866 14.4433 1.5 14.7754 1.5 15.314H2.5ZM19.4503 14.2698C19.0583 14.0881 18.5926 14.1466 18.2502 14.2974C17.9187 14.4433 17.5 14.7754 17.5 15.314H18.5C18.5 15.3317 18.491 15.3314 18.5105 15.3087C18.5328 15.2827 18.579 15.2452 18.6531 15.2126C18.7257 15.1807 18.807 15.1614 18.8821 15.1576C18.959 15.1538 19.0079 15.1669 19.0299 15.1771L19.4503 14.2698ZM17.5 8.68604C17.5 9.22463 17.9187 9.55666 18.2502 9.7026C18.5926 9.85337 19.0583 9.91191 19.4503 9.73023L19.0299 8.82291C19.0079 8.83311 18.959 8.84624 18.8821 8.84235C18.807 8.83856 18.7257 8.81933 18.6531 8.78737C18.579 8.75477 18.5328 8.71735 18.5105 8.69127C18.491 8.66859 18.5 8.66834 18.5 8.68604H17.5Z" fill="#535961"/>
<defs>
<linearGradient id="paint0_linear_4664_1912" x1="12.75" y1="4" x2="12.75" y2="20" gradientUnits="userSpaceOnUse">
<stop stop-color="#9FD584"/>
<stop offset="1" stop-color="#5CB531"/>
</linearGradient>
<radialGradient id="paint1_radial_4664_1912" cx="0" cy="0" r="1" gradientUnits="userSpaceOnUse" gradientTransform="translate(12.2826 20) rotate(-90) scale(16 21.5)">
<stop stop-color="#9AC73A"/>
<stop offset="1" stop-color="#9AC73A" stop-opacity="0"/>
</radialGradient>
<linearGradient id="paint2_linear_4664_1912" x1="8.9875" y1="20" x2="8.9875" y2="6.28572" gradientUnits="userSpaceOnUse">
<stop stop-color="#BFD7FF" stop-opacity="0"/>
<stop offset="1" stop-color="#BFD7FF"/>
</linearGradient>
</defs>
</svg>