<svg xmlns="http://www.w3.org/2000/svg" width="40" height="40" viewBox="0 0 40 40" fill="none">
<path d="M9.3335 5.66651C9.3335 4.00965 10.6766 2.6665 12.3335 2.6665H27.6668C29.3237 2.6665 30.6668 4.00965 30.6668 5.6665V34.3332C30.6668 35.99 29.3237 37.3332 27.6668 37.3332H12.3335C10.6766 37.3332 9.3335 35.99 9.3335 34.3332V5.66651Z" fill="#CED1D9"/>
<path d="M9.3335 5.66651C9.3335 4.00965 10.6766 2.6665 12.3335 2.6665H27.6668C29.3237 2.6665 30.6668 4.00965 30.6668 5.6665V34.3332C30.6668 35.99 29.3237 37.3332 27.6668 37.3332H12.3335C10.6766 37.3332 9.3335 35.99 9.3335 34.3332V5.66651Z" fill="#82B1FF"/>
<path d="M9.3335 5.66651C9.3335 4.00965 10.6766 2.6665 12.3335 2.6665H27.6668C29.3237 2.6665 30.6668 4.00965 30.6668 5.6665V34.3332C30.6668 35.99 29.3237 37.3332 27.6668 37.3332H12.3335C10.6766 37.3332 9.3335 35.99 9.3335 34.3332V5.66651Z" fill="url(#paint0_linear_4380_1644)"/>
<path d="M9.3335 5.66651C9.3335 4.00965 10.6766 2.6665 12.3335 2.6665H27.6668C29.3237 2.6665 30.6668 4.00965 30.6668 5.6665V34.3332C30.6668 35.99 29.3237 37.3332 27.6668 37.3332H12.3335C10.6766 37.3332 9.3335 35.99 9.3335 34.3332V5.66651Z" fill="#F3D1D7"/>
<path d="M9.3335 5.66651C9.3335 4.00965 10.6766 2.6665 12.3335 2.6665H27.6668C29.3237 2.6665 30.6668 4.00965 30.6668 5.6665V34.3332C30.6668 35.99 29.3237 37.3332 27.6668 37.3332H12.3335C10.6766 37.3332 9.3335 35.99 9.3335 34.3332V5.66651Z" fill="url(#paint1_radial_4380_1644)"/>
<path d="M9.3335 5.66651C9.3335 4.00965 10.6766 2.6665 12.3335 2.6665H27.6668C29.3237 2.6665 30.6668 4.00965 30.6668 5.6665V34.3332C30.6668 35.99 29.3237 37.3332 27.6668 37.3332H12.3335C10.6766 37.3332 9.3335 35.99 9.3335 34.3332V5.66651Z" fill="url(#paint2_radial_4380_1644)"/>
<path d="M9.3335 5.66651C9.3335 4.00965 10.6766 2.6665 12.3335 2.6665H27.6668C29.3237 2.6665 30.6668 4.00965 30.6668 5.6665V34.3332C30.6668 35.99 29.3237 37.3332 27.6668 37.3332H12.3335C10.6766 37.3332 9.3335 35.99 9.3335 34.3332V5.66651Z" stroke="#535961" stroke-width="2"/>
<path d="M16.6665 5.83333C16.6665 5.3731 17.0396 5 17.4998 5H22.4998C22.9601 5 23.3332 5.3731 23.3332 5.83333C23.3332 6.29357 22.9601 6.66667 22.4998 6.66667H17.4998C17.0396 6.66667 16.6665 6.29357 16.6665 5.83333Z" fill="#535961"/>
<defs>
<linearGradient id="paint0_linear_4380_1644" x1="20.0002" y1="1.6665" x2="20.0002" y2="38.3332" gradientUnits="userSpaceOnUse">
<stop stop-color="#BFD7FF"/>
<stop offset="1" stop-color="#82B1FF"/>
</linearGradient>
<radialGradient id="paint1_radial_4380_1644" cx="0" cy="0" r="1" gradientUnits="userSpaceOnUse" gradientTransform="translate(19.4929 38.3332) rotate(-90) scale(36.6667 23.3333)">
<stop stop-color="#CFEAF9"/>
<stop offset="1" stop-color="#CFEAF9" stop-opacity="0"/>
</radialGradient>
<radialGradient id="paint2_radial_4380_1644" cx="0" cy="0" r="1" gradientUnits="userSpaceOnUse" gradientTransform="translate(8.3335 1.6665) scale(23.3333 36.6667)">
<stop stop-color="#F7DDCB"/>
<stop offset="1" stop-color="#F7DDCB" stop-opacity="0"/>
</radialGradient>
</defs>
</svg>