<svg xmlns="http://www.w3.org/2000/svg" width="40" height="40" viewBox="0 0 40 40" fill="none">
<path d="M4.3335 10.6665C4.3335 9.00965 5.67664 7.6665 7.3335 7.6665H32.6668C34.3237 7.6665 35.6668 9.00965 35.6668 10.6665V28.9998H4.3335V10.6665Z" fill="#CED1D9"/>
<path d="M4.3335 10.6665C4.3335 9.00965 5.67664 7.6665 7.3335 7.6665H32.6668C34.3237 7.6665 35.6668 9.00965 35.6668 10.6665V28.9998H4.3335V10.6665Z" fill="#82B1FF"/>
<path d="M4.3335 10.6665C4.3335 9.00965 5.67664 7.6665 7.3335 7.6665H32.6668C34.3237 7.6665 35.6668 9.00965 35.6668 10.6665V28.9998H4.3335V10.6665Z" fill="url(#paint0_radial_4380_1646)"/>
<path d="M4.3335 10.6665C4.3335 9.00965 5.67664 7.6665 7.3335 7.6665H32.6668C34.3237 7.6665 35.6668 9.00965 35.6668 10.6665V28.9998H4.3335V10.6665Z" stroke="#535961" stroke-width="2"/>
<path d="M1.6665 32.5L38.3332 32.5" stroke="#535961" stroke-width="2" stroke-linecap="round"/>
<defs>
<radialGradient id="paint0_radial_4380_1646" cx="0" cy="0" r="1" gradientUnits="userSpaceOnUse" gradientTransform="translate(19.2755 29.9998) rotate(-90) scale(23.3333 33.3333)">
<stop stop-color="#F9CFF7"/>
<stop offset="1" stop-color="#F9CFF7" stop-opacity="0"/>
</radialGradient>
</defs>
</svg>