<svg xmlns="http://www.w3.org/2000/svg" width="40" height="40" viewBox="0 0 40 40" fill="none">
<path d="M4.3335 10.6665C4.3335 9.00965 5.67664 7.6665 7.3335 7.6665H32.6668C34.3237 7.6665 35.6668 9.00965 35.6668 10.6665V25.9998C35.6668 27.6567 34.3237 28.9998 32.6668 28.9998H7.33349C5.67664 28.9998 4.3335 27.6567 4.3335 25.9998V10.6665Z" fill="#298CFF"/>
<path d="M4.3335 10.6665C4.3335 9.00965 5.67664 7.6665 7.3335 7.6665H32.6668C34.3237 7.6665 35.6668 9.00965 35.6668 10.6665V25.9998C35.6668 27.6567 34.3237 28.9998 32.6668 28.9998H7.33349C5.67664 28.9998 4.3335 27.6567 4.3335 25.9998V10.6665Z" fill="url(#paint0_linear_4643_2203)"/>
<path d="M4.3335 10.6665C4.3335 9.00965 5.67664 7.6665 7.3335 7.6665H32.6668C34.3237 7.6665 35.6668 9.00965 35.6668 10.6665V25.9998C35.6668 27.6567 34.3237 28.9998 32.6668 28.9998H7.33349C5.67664 28.9998 4.3335 27.6567 4.3335 25.9998V10.6665Z" stroke="#535961" stroke-width="2"/>
<path d="M1.6665 32.5L38.3332 32.5" stroke="#535961" stroke-width="2" stroke-linecap="round"/>
<defs>
<linearGradient id="paint0_linear_4643_2203" x1="14.1668" y1="29.9998" x2="14.1668" y2="9.99984" gradientUnits="userSpaceOnUse">
<stop stop-color="#6ECAFF" stop-opacity="0"/>
<stop offset="1" stop-color="#6ECAFF"/>
</linearGradient>
</defs>
</svg>