<svg xmlns="http://www.w3.org/2000/svg" width="24" height="24" viewBox="0 0 24 24" fill="none">
<path d="M2.5 6C2.5 5.17157 3.17157 4.5 4 4.5H20C20.8284 4.5 21.5 5.17157 21.5 6V17.5H2.5V6Z" fill="#CED1D9"/>
<path d="M2.5 6C2.5 5.17157 3.17157 4.5 4 4.5H20C20.8284 4.5 21.5 5.17157 21.5 6V17.5H2.5V6Z" fill="#82B1FF"/>
<path d="M2.5 6C2.5 5.17157 3.17157 4.5 4 4.5H20C20.8284 4.5 21.5 5.17157 21.5 6V17.5H2.5V6Z" fill="url(#paint0_radial_9445_23445)"/>
<path d="M2.5 6C2.5 5.17157 3.17157 4.5 4 4.5H20C20.8284 4.5 21.5 5.17157 21.5 6V17.5H2.5V6Z" stroke="#535961"/>
<path d="M1 19.5L23 19.5" stroke="#535961" stroke-linecap="round"/>
<defs>
<radialGradient id="paint0_radial_9445_23445" cx="0" cy="0" r="1" gradientUnits="userSpaceOnUse" gradientTransform="translate(11.5652 18) rotate(-90) scale(14 20)">
<stop stop-color="#F9CFF7"/>
<stop offset="1" stop-color="#F9CFF7" stop-opacity="0"/>
</radialGradient>
</defs>
</svg>