<svg xmlns="http://www.w3.org/2000/svg" width="40" height="40" viewBox="0 0 40 40" fill="none">
<g clip-path="url(#clip0_4665_2092)">
<path fill-rule="evenodd" clip-rule="evenodd" d="M3.3335 8.6665C3.3335 7.56193 4.22893 6.6665 5.3335 6.6665H28.0002C29.1047 6.6665 30.0002 7.56193 30.0002 8.6665V15.5799C30.0002 16.075 30.7324 16.3326 31.1251 16.0311C31.9678 15.3843 33.0224 14.9998 34.1668 14.9998C36.9283 14.9998 39.1668 17.2384 39.1668 19.9998C39.1668 22.7613 36.9283 24.9998 34.1668 24.9998C33.0224 24.9998 31.9678 24.6154 31.1251 23.9685C30.7324 23.6671 30.0002 23.9247 30.0002 24.4197V31.3332C30.0002 32.4377 29.1047 33.3332 28.0002 33.3332H5.33349C4.22892 33.3332 3.3335 32.4377 3.3335 31.3332V24.4197C3.3335 23.9247 4.06576 23.6671 4.45844 23.9685C5.30113 24.6154 6.35575 24.9998 7.50016 24.9998C10.2616 24.9998 12.5002 22.7613 12.5002 19.9998C12.5002 17.2384 10.2616 14.9998 7.50016 14.9998C6.35575 14.9998 5.30113 15.3843 4.45844 16.0311C4.06576 16.3326 3.3335 16.075 3.3335 15.5799V8.6665Z" fill="url(#paint0_linear_4665_2092)"/>
<path fill-rule="evenodd" clip-rule="evenodd" d="M3.3335 8.6665C3.3335 7.56193 4.22893 6.6665 5.3335 6.6665H28.0002C29.1047 6.6665 30.0002 7.56193 30.0002 8.6665V15.5799C30.0002 16.075 30.7324 16.3326 31.1251 16.0311C31.9678 15.3843 33.0224 14.9998 34.1668 14.9998C36.9283 14.9998 39.1668 17.2384 39.1668 19.9998C39.1668 22.7613 36.9283 24.9998 34.1668 24.9998C33.0224 24.9998 31.9678 24.6154 31.1251 23.9685C30.7324 23.6671 30.0002 23.9247 30.0002 24.4197V31.3332C30.0002 32.4377 29.1047 33.3332 28.0002 33.3332H5.33349C4.22892 33.3332 3.3335 32.4377 3.3335 31.3332V24.4197C3.3335 23.9247 4.06576 23.6671 4.45844 23.9685C5.30113 24.6154 6.35575 24.9998 7.50016 24.9998C10.2616 24.9998 12.5002 22.7613 12.5002 19.9998C12.5002 17.2384 10.2616 14.9998 7.50016 14.9998C6.35575 14.9998 5.30113 15.3843 4.45844 16.0311C4.06576 16.3326 3.3335 16.075 3.3335 15.5799V8.6665Z" fill="#5BB254"/>
<path fill-rule="evenodd" clip-rule="evenodd" d="M3.3335 8.6665C3.3335 7.56193 4.22893 6.6665 5.3335 6.6665H28.0002C29.1047 6.6665 30.0002 7.56193 30.0002 8.6665V15.5799C30.0002 16.075 30.7324 16.3326 31.1251 16.0311C31.9678 15.3843 33.0224 14.9998 34.1668 14.9998C36.9283 14.9998 39.1668 17.2384 39.1668 19.9998C39.1668 22.7613 36.9283 24.9998 34.1668 24.9998C33.0224 24.9998 31.9678 24.6154 31.1251 23.9685C30.7324 23.6671 30.0002 23.9247 30.0002 24.4197V31.3332C30.0002 32.4377 29.1047 33.3332 28.0002 33.3332H5.33349C4.22892 33.3332 3.3335 32.4377 3.3335 31.3332V24.4197C3.3335 23.9247 4.06576 23.6671 4.45844 23.9685C5.30113 24.6154 6.35575 24.9998 7.50016 24.9998C10.2616 24.9998 12.5002 22.7613 12.5002 19.9998C12.5002 17.2384 10.2616 14.9998 7.50016 14.9998C6.35575 14.9998 5.30113 15.3843 4.45844 16.0311C4.06576 16.3326 3.3335 16.075 3.3335 15.5799V8.6665Z" fill="url(#paint1_radial_4665_2092)"/>
<path fill-rule="evenodd" clip-rule="evenodd" d="M3.3335 8.6665C3.3335 7.56193 4.22893 6.6665 5.3335 6.6665H28.0002C29.1047 6.6665 30.0002 7.56193 30.0002 8.6665V15.5799C30.0002 16.075 30.7324 16.3326 31.1251 16.0311C31.9678 15.3843 33.0224 14.9998 34.1668 14.9998C36.9283 14.9998 39.1668 17.2384 39.1668 19.9998C39.1668 22.7613 36.9283 24.9998 34.1668 24.9998C33.0224 24.9998 31.9678 24.6154 31.1251 23.9685C30.7324 23.6671 30.0002 23.9247 30.0002 24.4197V31.3332C30.0002 32.4377 29.1047 33.3332 28.0002 33.3332H5.33349C4.22892 33.3332 3.3335 32.4377 3.3335 31.3332V24.4197C3.3335 23.9247 4.06576 23.6671 4.45844 23.9685C5.30113 24.6154 6.35575 24.9998 7.50016 24.9998C10.2616 24.9998 12.5002 22.7613 12.5002 19.9998C12.5002 17.2384 10.2616 14.9998 7.50016 14.9998C6.35575 14.9998 5.30113 15.3843 4.45844 16.0311C4.06576 16.3326 3.3335 16.075 3.3335 15.5799V8.6665Z" fill="#E5E7EE"/>
<path fill-rule="evenodd" clip-rule="evenodd" d="M3.3335 8.6665C3.3335 7.56193 4.22893 6.6665 5.3335 6.6665H28.0002C29.1047 6.6665 30.0002 7.56193 30.0002 8.6665V15.5799C30.0002 16.075 30.7324 16.3326 31.1251 16.0311C31.9678 15.3843 33.0224 14.9998 34.1668 14.9998C36.9283 14.9998 39.1668 17.2384 39.1668 19.9998C39.1668 22.7613 36.9283 24.9998 34.1668 24.9998C33.0224 24.9998 31.9678 24.6154 31.1251 23.9685C30.7324 23.6671 30.0002 23.9247 30.0002 24.4197V31.3332C30.0002 32.4377 29.1047 33.3332 28.0002 33.3332H5.33349C4.22892 33.3332 3.3335 32.4377 3.3335 31.3332V24.4197C3.3335 23.9247 4.06576 23.6671 4.45844 23.9685C5.30113 24.6154 6.35575 24.9998 7.50016 24.9998C10.2616 24.9998 12.5002 22.7613 12.5002 19.9998C12.5002 17.2384 10.2616 14.9998 7.50016 14.9998C6.35575 14.9998 5.30113 15.3843 4.45844 16.0311C4.06576 16.3326 3.3335 16.075 3.3335 15.5799V8.6665Z" fill="url(#paint2_linear_4665_2092)"/>
<path d="M4.45844 16.0311L5.06733 16.8244L4.45844 16.0311ZM4.45844 23.9685L3.84956 24.7618L4.45844 23.9685ZM31.1251 16.0311L30.5162 15.2379L31.1251 16.0311ZM5.3335 5.6665C3.67664 5.6665 2.3335 7.00965 2.3335 8.6665H4.3335C4.3335 8.11422 4.78121 7.6665 5.3335 7.6665V5.6665ZM28.0002 5.6665H5.3335V7.6665H28.0002V5.6665ZM31.0002 8.6665C31.0002 7.00965 29.657 5.6665 28.0002 5.6665V7.6665C28.5524 7.6665 29.0002 8.11422 29.0002 8.6665H31.0002ZM31.0002 15.5799V8.6665H29.0002V15.5799H31.0002ZM34.1668 13.9998C32.7946 13.9998 31.5275 14.4617 30.5162 15.2379L31.734 16.8244C32.4081 16.3069 33.2502 15.9998 34.1668 15.9998V13.9998ZM40.1668 19.9998C40.1668 16.6861 37.4805 13.9998 34.1668 13.9998V15.9998C36.376 15.9998 38.1668 17.7907 38.1668 19.9998H40.1668ZM34.1668 25.9998C37.4805 25.9998 40.1668 23.3135 40.1668 19.9998H38.1668C38.1668 22.209 36.376 23.9998 34.1668 23.9998V25.9998ZM30.5162 24.7618C31.5275 25.538 32.7946 25.9998 34.1668 25.9998V23.9998C33.2502 23.9998 32.4081 23.6927 31.734 23.1753L30.5162 24.7618ZM31.0002 31.3332V24.4197H29.0002V31.3332H31.0002ZM28.0002 34.3332C29.657 34.3332 31.0002 32.99 31.0002 31.3332H29.0002C29.0002 31.8855 28.5524 32.3332 28.0002 32.3332V34.3332ZM5.33349 34.3332H28.0002V32.3332H5.33349V34.3332ZM2.3335 31.3332C2.3335 32.99 3.67664 34.3332 5.33349 34.3332V32.3332C4.78121 32.3332 4.3335 31.8855 4.3335 31.3332H2.3335ZM2.3335 24.4197V31.3332H4.3335V24.4197H2.3335ZM7.50016 23.9998C6.58354 23.9998 5.74148 23.6927 5.06733 23.1753L3.84956 24.7618C4.86079 25.538 6.12796 25.9998 7.50016 25.9998V23.9998ZM11.5002 19.9998C11.5002 22.209 9.7093 23.9998 7.50016 23.9998V25.9998C10.8139 25.9998 13.5002 23.3135 13.5002 19.9998H11.5002ZM7.50016 15.9998C9.7093 15.9998 11.5002 17.7907 11.5002 19.9998H13.5002C13.5002 16.6861 10.8139 13.9998 7.50016 13.9998V15.9998ZM5.06733 16.8244C5.74148 16.3069 6.58354 15.9998 7.50016 15.9998V13.9998C6.12796 13.9998 4.86079 14.4617 3.84955 15.2379L5.06733 16.8244ZM2.3335 8.6665V15.5799H4.3335V8.6665H2.3335ZM3.84955 15.2379C3.92705 15.1784 3.99818 15.1639 4.03253 15.161C4.06547 15.1582 4.08759 15.1632 4.10528 15.1699C4.12153 15.1761 4.16823 15.1971 4.21983 15.2586C4.27826 15.3281 4.3335 15.4418 4.3335 15.5799H2.3335C2.3335 16.3857 2.92666 16.8608 3.39215 17.0385C3.85789 17.2162 4.52625 17.2397 5.06733 16.8244L3.84955 15.2379ZM4.3335 24.4197C4.3335 24.5579 4.27826 24.6715 4.21983 24.7411C4.16823 24.8025 4.12153 24.8235 4.10528 24.8297C4.08759 24.8365 4.06547 24.8415 4.03253 24.8387C3.99818 24.8358 3.92705 24.8213 3.84956 24.7618L5.06733 23.1753C4.52625 22.7599 3.85789 22.7834 3.39215 22.9612C2.92666 23.1388 2.3335 23.6139 2.3335 24.4197H4.3335ZM31.734 23.1753C31.1929 22.7599 30.5246 22.7834 30.0588 22.9612C29.5933 23.1388 29.0002 23.6139 29.0002 24.4197H31.0002C31.0002 24.5579 30.9449 24.6715 30.8865 24.7411C30.8349 24.8026 30.7882 24.8235 30.7719 24.8297C30.7543 24.8365 30.7321 24.8415 30.6992 24.8387C30.6648 24.8358 30.5937 24.8213 30.5162 24.7618L31.734 23.1753ZM29.0002 15.5799C29.0002 16.3857 29.5933 16.8608 30.0588 17.0385C30.5246 17.2162 31.1929 17.2397 31.734 16.8244L30.5162 15.2379C30.5937 15.1784 30.6648 15.1639 30.6992 15.161C30.7321 15.1582 30.7543 15.1632 30.7719 15.1699C30.7882 15.1761 30.8349 15.1971 30.8865 15.2586C30.9449 15.3281 31.0002 15.4418 31.0002 15.5799H29.0002Z" fill="#535961"/>
</g>
<defs>
<linearGradient id="paint0_linear_4665_2092" x1="21.2502" y1="6.6665" x2="21.2502" y2="33.3332" gradientUnits="userSpaceOnUse">
<stop stop-color="#9FD584"/>
<stop offset="1" stop-color="#5CB531"/>
</linearGradient>
<radialGradient id="paint1_radial_4665_2092" cx="0" cy="0" r="1" gradientUnits="userSpaceOnUse" gradientTransform="translate(20.4712 33.3332) rotate(-90) scale(26.6667 35.8333)">
<stop stop-color="#9AC73A"/>
<stop offset="1" stop-color="#9AC73A" stop-opacity="0"/>
</radialGradient>
<linearGradient id="paint2_linear_4665_2092" x1="14.9793" y1="33.3332" x2="14.9793" y2="10.476" gradientUnits="userSpaceOnUse">
<stop stop-color="#BFD7FF" stop-opacity="0"/>
<stop offset="1" stop-color="#BFD7FF"/>
</linearGradient>
<clipPath id="clip0_4665_2092">
<rect width="40" height="40" fill="white"/>
</clipPath>
</defs>
</svg>