<svg width="16" height="16" viewBox="0 0 16 16" fill="none" xmlns="http://www.w3.org/2000/svg">
<path fill-rule="evenodd" clip-rule="evenodd" d="M8 4.44444C6.00889 4.44444 4.44444 6.00889 4.44444 8C4.44444 9.99111 6.00889 11.5556 8 11.5556C9.99111 11.5556 11.5556 9.99111 11.5556 8C11.5556 6.00889 9.99111 4.44444 8 4.44444ZM8 0C3.6 0 0 3.6 0 8C0 12.4 3.6 16 8 16C12.4 16 16 12.4 16 8C16 3.6 12.4 0 8 0ZM8 15.1111C4.08889 15.1111 0.888889 11.9111 0.888889 8C0.888889 4.08889 4.08889 0.888889 8 0.888889C11.9111 0.888889 15.1111 4.08889 15.1111 8C15.1111 11.9111 11.9111 15.1111 8 15.1111Z" fill="#2979FF"/>
</svg>
