<svg width="896" height="992" viewBox="0 0 896 992" fill="none" xmlns="http://www.w3.org/2000/svg">
<path d="M448 0C429.92 0 411.84 4.64067 395.68 13.9222L53.12 209.634C20.32 228.357 0 263.403 0 301.169V690.831C0 728.597 20.32 763.643 53.12 782.366L395.68 978.078C411.84 987.359 429.92 992 448 992C466.08 992 484.16 987.359 500.32 978.078L842.88 782.366C875.68 763.643 896 728.597 896 690.831V301.169C896 263.403 875.68 228.357 842.88 209.634L500.32 13.9222C484.16 4.64067 466.08 0 448 0Z" fill="url(#paint0_linear_7484_8049)"/>
<path d="M448 48.0077C457.92 48.0077 467.84 50.5682 476.48 55.529L819.04 251.24C836.96 261.482 848 280.525 848 301.169V690.831C848 711.475 836.96 730.518 819.04 740.759L476.48 936.471C467.84 941.432 457.92 943.992 448 943.992C438.08 943.992 428.16 941.432 419.52 936.471L76.96 740.759C59.04 730.518 48 711.475 48 690.831V301.169C48 280.525 59.04 261.482 76.96 251.24L419.52 55.529C428.16 50.5682 438.08 48.0077 448 48.0077ZM448 0C429.92 0 411.84 4.64067 395.68 13.9222L53.12 209.634C20.32 228.357 0 263.403 0 301.169V690.831C0 728.597 20.32 763.643 53.12 782.366L395.68 978.078C411.84 987.359 429.92 992 448 992C466.08 992 484.16 987.359 500.32 978.078L842.88 782.366C875.68 763.643 896 728.597 896 690.831V301.169C896 263.403 875.68 228.357 842.88 209.634L500.32 13.9222C484.16 4.64067 466.08 0 448 0Z" fill="black"/>
<path fill-rule="evenodd" clip-rule="evenodd" d="M384 503.281H416V546.835C416 551.078 417.685 555.148 420.685 558.148L435.315 572.78C438.315 575.78 440 579.85 440 584.093V600.099C440 604.342 438.315 608.411 435.315 611.412L416.971 629.759C416.349 630.38 416 631.223 416 632.102C416 632.981 416.349 633.824 416.971 634.446L435.315 652.793C438.315 655.793 440 659.863 440 664.106V680.112C440 684.355 438.315 688.424 435.315 691.425L420.685 706.056C417.685 709.057 416 713.126 416 717.369V722.272C416 728.034 419.098 733.35 424.111 736.191L440.111 745.26C445.005 748.033 450.995 748.033 455.889 745.26L471.889 736.191C476.902 733.35 480 728.034 480 722.272V503.281H512V731.599C512 743.123 505.804 753.757 495.778 759.439L463.778 777.575C453.991 783.122 442.009 783.122 432.222 777.575L400.222 759.439C390.196 753.757 384 743.123 384 731.599V704.112C384 699.869 385.685 695.8 388.685 692.799L407.029 674.452C407.651 673.831 408 672.988 408 672.109C408 671.23 407.651 670.387 407.029 669.765L388.685 651.418C385.685 648.418 384 644.348 384 640.105V624.099C384 619.856 385.685 615.787 388.685 612.786L407.029 594.439C407.651 593.818 408 592.975 408 592.096C408 591.217 407.651 590.374 407.029 589.752L388.685 571.405C385.685 568.405 384 564.335 384 560.092V503.281Z" fill="black"/>
<path fill-rule="evenodd" clip-rule="evenodd" d="M296 376.061C296 292.011 363.963 224.036 447.999 224.036C532.036 224.036 599.999 292.011 599.999 376.061C599.999 460.111 532.036 528.085 447.999 528.085C363.963 528.085 296 460.111 296 376.061ZM447.999 256.041C381.636 256.041 328 309.686 328 376.061C328 442.435 381.636 496.08 447.999 496.08C514.363 496.08 567.999 442.435 567.999 376.061C567.999 309.686 514.363 256.041 447.999 256.041ZM447.999 304.049C439.236 304.049 432 311.287 432 320.052C432 328.816 439.236 336.054 447.999 336.054C456.763 336.054 463.999 328.816 463.999 320.052C463.999 311.287 456.763 304.049 447.999 304.049ZM400 320.052C400 293.611 421.563 272.044 447.999 272.044C474.436 272.044 495.999 293.611 495.999 320.052C495.999 346.492 474.436 368.059 447.999 368.059C421.563 368.059 400 346.492 400 320.052Z" fill="black"/>
<defs>
<linearGradient id="paint0_linear_7484_8049" x1="104.8" y1="839.335" x2="791.311" y2="152.935" gradientUnits="userSpaceOnUse">
<stop stop-color="#23D1AE"/>
<stop offset="1" stop-color="#7EFF33"/>
</linearGradient>
</defs>
</svg>
