<svg width="20" height="20" viewBox="0 0 20 20" fill="none" xmlns="http://www.w3.org/2000/svg">
<path fill-rule="evenodd" clip-rule="evenodd" d="M10.0001 17C13.8661 17 17.0001 13.866 17.0001 10C17.0001 6.13401 13.8661 3 10.0001 3C6.13407 3 3.00006 6.13401 3.00006 10C3.00006 13.866 6.13407 17 10.0001 17ZM10.0001 18C14.4183 18 18.0001 14.4183 18.0001 10C18.0001 5.58172 14.4183 2 10.0001 2C5.58178 2 2.00006 5.58172 2.00006 10C2.00006 14.4183 5.58178 18 10.0001 18ZM10.9355 6.5882C10.9355 7.10452 10.5169 7.52308 10.0006 7.52308C9.48429 7.52308 9.06573 7.10452 9.06573 6.5882C9.06573 6.07188 9.48429 5.65332 10.0006 5.65332C10.5169 5.65332 10.9355 6.07188 10.9355 6.5882ZM10.8335 8.48096H9.16681V14.1667H10.8335V8.48096Z" fill="black" fill-opacity="0.23"/>
</svg>
