<svg xmlns="http://www.w3.org/2000/svg" width="20" height="20" viewBox="0 0 20 20" fill="none">
<path fill-rule="evenodd" clip-rule="evenodd" d="M10 3.1998C8.4536 3.1998 7.2 4.45341 7.2 5.9998V6.9998H12.8V5.9998C12.8 4.45341 11.5464 3.1998 10 3.1998ZM5.5 6.9998H5.8V5.9998C5.8 3.68021 7.6804 1.7998 10 1.7998C12.3196 1.7998 14.2 3.68021 14.2 5.9998V6.9998H14.5C15.8807 6.9998 17 8.11909 17 9.4998V15.4998C17 16.8805 15.8807 17.9998 14.5 17.9998H5.5C4.11929 17.9998 3 16.8805 3 15.4998V9.4998C3 8.11909 4.11929 6.9998 5.5 6.9998ZM5.5 7.9998C4.67157 7.9998 4 8.67138 4 9.4998V15.4998C4 16.3282 4.67157 16.9998 5.5 16.9998H14.5C15.3284 16.9998 16 16.3282 16 15.4998V9.4998C16 8.67138 15.3284 7.9998 14.5 7.9998H5.5ZM11.3 12.2998C11.3 12.8014 11.0159 13.2366 10.5999 13.4534V14.3998C10.5999 14.7312 10.3313 14.9998 9.99994 14.9998C9.66857 14.9998 9.39994 14.7312 9.39994 14.3998V13.4534C8.98397 13.2365 8.69995 12.8013 8.69995 12.2998C8.69995 11.5818 9.28198 10.9998 9.99995 10.9998C10.7179 10.9998 11.3 11.5818 11.3 12.2998Z" fill="white" fill-opacity="0.54"/>
</svg>