<svg width="24" height="24" viewBox="0 0 24 24" fill="none" xmlns="http://www.w3.org/2000/svg">
<path fill-rule="evenodd" clip-rule="evenodd" d="M18.2812 0C21.75 0 24 2.25 24 5.71875V18.2812C24 21.75 21.75 24 18.2812 24H5.71875C2.25 24 0 21.75 0 18.2812V5.71875C0 2.25 2.25 0 5.71875 0H18.2812Z" fill="url(#paint0_radial_4350_1666)"/>
<rect x="3" y="5" width="18" height="14" rx="2" fill="white"/>
<path fill-rule="evenodd" clip-rule="evenodd" d="M5 6.3H19C19.3866 6.3 19.7 6.6134 19.7 7V7.68806L12 11.7645L4.3 7.68806V7C4.3 6.6134 4.6134 6.3 5 6.3ZM4.3 9.159V17C4.3 17.3866 4.6134 17.7 5 17.7H19C19.3866 17.7 19.7 17.3866 19.7 17V9.159L12.3041 13.0745L12 13.2355L11.6959 13.0745L4.3 9.159ZM3 7C3 5.89543 3.89543 5 5 5H19C20.1046 5 21 5.89543 21 7V17C21 18.1046 20.1046 19 19 19H5C3.89543 19 3 18.1046 3 17V7Z" fill="#1C62D8"/>
<defs>
<radialGradient id="paint0_radial_4350_1666" cx="0" cy="0" r="1" gradientUnits="userSpaceOnUse" gradientTransform="translate(12) rotate(90) scale(24)">
<stop stop-color="#73BCFF"/>
<stop offset="1" stop-color="#448AFF"/>
</radialGradient>
</defs>
</svg>
