<svg xmlns="http://www.w3.org/2000/svg" width="20" height="20" viewBox="0 0 20 20" fill="none">
<path fill-rule="evenodd" clip-rule="evenodd" d="M14.5 7.5C14.2239 7.5 14 7.27614 14 7V4C14 3.72386 14.2239 3.5 14.5 3.5C14.7761 3.5 15 3.72386 15 4V5L17 5C17.2761 5 17.5 5.22386 17.5 5.5C17.5 5.77614 17.2761 6 17 6L15 6V7C15 7.27614 14.7761 7.5 14.5 7.5ZM2.5 5.5C2.5 5.22386 2.72386 5 3 5H12C12.2761 5 12.5 5.22386 12.5 5.5C12.5 5.77614 12.2761 6 12 6H3C2.72386 6 2.5 5.77614 2.5 5.5ZM13 16V15H17C17.2761 15 17.5 14.7761 17.5 14.5C17.5 14.2239 17.2761 14 17 14H13V13C13 12.7239 12.7761 12.5 12.5 12.5C12.2239 12.5 12 12.7239 12 13V16C12 16.2761 12.2239 16.5 12.5 16.5C12.7761 16.5 13 16.2761 13 16ZM3 9.5C2.72386 9.5 2.5 9.72386 2.5 10C2.5 10.2761 2.72386 10.5 3 10.5L7 10.5V11.5C7 11.7761 7.22386 12 7.5 12C7.77614 12 8 11.7761 8 11.5V8.5C8 8.22386 7.77614 8 7.5 8C7.22386 8 7 8.22386 7 8.5V9.5L3 9.5Z" fill="white" fill-opacity="0.54"/>
<path d="M3 14.5H10" stroke="white" stroke-opacity="0.54" stroke-linecap="round"/>
<path d="M10 10L17 10" stroke="white" stroke-opacity="0.54" stroke-linecap="round"/>
</svg>