<svg width="346" height="184" viewBox="0 0 346 184" fill="none" xmlns="http://www.w3.org/2000/svg">
<path d="M0 8C0 3.58172 3.58172 0 8 0H338C342.418 0 346 3.58172 346 8V176C346 180.418 342.418 184 338 184H8.00001C3.58173 184 0 180.418 0 176V8Z" fill="url(#paint0_linear_28436_92203)"/>
<g filter="url(#filter0_d_28436_92203)">
<rect x="35" y="13" width="142" height="94" rx="8" fill="#7391B7"/>
</g>
<path d="M56.3572 68H87" stroke="#B6D0F1" stroke-width="6" stroke-linecap="round"/>
<path d="M55.4286 82.8574H74.9286" stroke="#B6D0F1" stroke-width="6" stroke-linecap="round"/>
<path fill-rule="evenodd" clip-rule="evenodd" d="M140.652 80.0531C140.652 76.1945 143.78 73.0664 147.639 73.0664C151.498 73.0664 154.626 76.1945 154.626 80.0531C154.626 83.9118 151.498 87.0398 147.639 87.0398C143.78 87.0398 140.652 83.9118 140.652 80.0531ZM138.31 74.2473C137.259 75.9319 136.652 77.9216 136.652 80.0531C136.652 82.1852 137.26 84.1755 138.311 85.8604C137.199 86.6059 135.862 87.0409 134.423 87.0409C130.565 87.0409 127.437 83.9128 127.437 80.0542C127.437 76.1955 130.565 73.0674 134.423 73.0674C135.862 73.0674 137.199 73.5021 138.31 74.2473ZM141.03 71.2754C139.192 69.8892 136.903 69.0674 134.423 69.0674C128.356 69.0674 123.437 73.9864 123.437 80.0542C123.437 86.122 128.356 91.0409 134.423 91.0409C136.904 91.0409 139.193 90.2187 141.032 88.8319C142.871 90.218 145.159 91.0398 147.639 91.0398C153.707 91.0398 158.626 86.1209 158.626 80.0531C158.626 73.9853 153.707 69.0664 147.639 69.0664C145.158 69.0664 142.87 69.8886 141.03 71.2754Z" fill="#B6D0F1"/>
<path fill-rule="evenodd" clip-rule="evenodd" d="M51 36C51 33.7909 52.7909 32 55 32H58.5V37.5H51V36ZM51 38.5H58.5V47.5H51V38.5ZM51 48.5V50C51 52.2091 52.7909 54 55 54H58.5V48.5H51ZM59.5 54V32H68.5V54H59.5ZM69.5 54H73C75.2091 54 77 52.2091 77 50V48.5H69.5V54ZM69.5 47.5V38.5H77V47.5H69.5ZM77 36V37.5H69.5V32H73C75.2091 32 77 33.7909 77 36Z" fill="url(#paint1_linear_28436_92203)"/>
<rect x="35" y="13" width="142" height="94" rx="8" fill="url(#paint2_linear_28436_92203)" fill-opacity="0.5"/>
<g filter="url(#filter1_d_28436_92203)">
<rect x="100" y="54" width="137" height="98" rx="8" fill="#DFDFDF"/>
<rect x="103" y="57" width="131" height="92" rx="5" stroke="#737373" stroke-width="6"/>
</g>
<path opacity="0.3" d="M152 103L185 103" stroke="#737373" stroke-width="6" stroke-linecap="round"/>
<path opacity="0.3" d="M157 118H179" stroke="#737373" stroke-width="6" stroke-linecap="round"/>
<path d="M108.864 132.537C108.738 132.63 108.644 134.769 108.644 137.248C108.644 137.736 108.64 138.184 108.636 138.595C108.616 140.624 108.605 141.76 109.164 142.393C109.875 143.199 111.507 143.191 115.216 143.174C115.81 143.171 116.457 143.168 117.162 143.168C121.28 143.168 124.675 143.106 124.675 143.044C124.675 142.672 121.091 133.033 120.808 132.692C120.588 132.413 118.985 132.32 114.773 132.32C111.63 132.32 108.958 132.413 108.864 132.537Z" fill="#737373"/>
<path d="M146.363 71.0469C145.609 71.2328 145.483 71.1089 145.672 70.1791C145.86 69.2183 146.174 69.1873 146.615 70.1481C146.897 70.768 146.866 70.9229 146.363 71.0469Z" fill="#737373"/>
<path d="M199.075 70.2399C198.887 71.2317 199.044 71.5726 199.641 71.5726C200.427 71.5726 200.804 70.4569 200.238 69.899C199.547 69.1862 199.264 69.2792 199.075 70.2399Z" fill="#737373"/>
<path d="M125.146 75.602C124.455 74.8272 124.14 72.3788 124.675 71.7279C124.895 71.48 125.398 71.263 125.838 71.263C126.718 71.263 127.503 72.7507 127.503 74.4553C127.503 76.1909 126.246 76.8108 125.146 75.602Z" fill="#737373"/>
<path fill-rule="evenodd" clip-rule="evenodd" d="M108.707 74.8588C108.644 65.8399 108.707 64.2592 109.116 63.6084L109.587 62.8955H168.429C222.713 62.8955 227.302 62.9265 227.836 63.4224C228.371 63.8873 228.402 64.6621 228.402 74.7349V85.5204H221.644C214.257 85.5204 213.534 85.6444 211.994 87.256C210.894 88.4028 210.485 89.5495 210.485 91.3471C210.485 94.3844 212.686 96.7089 215.798 96.9259C217.118 97.0188 217.904 96.8949 218.689 96.523C221.047 95.3452 221.738 94.0745 220.638 92.8968C219.947 92.1529 219.507 92.1839 218.375 93.1447C216.929 94.3534 215.389 94.2915 214.226 93.0207C213.252 91.936 213.126 91.2541 213.66 90.0454C214.352 88.5268 215.515 88.3098 222.241 88.3098H228.402V130.46H216.143V99.8702L214.855 99.6533C210.737 99.0024 207.657 95.4072 207.657 91.2232C207.657 88.5268 209.071 85.8614 211.271 84.3737C212.12 83.7848 213.22 83.2269 213.692 83.134C214.823 82.917 214.823 82.5451 213.723 82.3281C213.424 82.2913 212.325 82.0902 210.863 81.8224C209.865 81.6398 208.698 81.4261 207.499 81.2124C193.418 78.64 184.899 77.9271 168.209 77.9271C154.095 77.9271 149.192 78.2371 138.191 79.8177C131.37 80.7785 122.411 82.4831 122.694 82.7621C122.852 82.886 123.449 83.134 124.077 83.3199C125.712 83.8468 127.629 85.5824 128.572 87.442C129.61 89.4565 129.704 92.7108 128.792 94.6944C127.566 97.3288 125.115 99.1884 122.223 99.6533L120.903 99.8702V130.46H108.644L108.707 109.447L108.801 88.4648L114.459 88.3718C117.571 88.3098 120.588 88.3718 121.186 88.4648C124.14 88.9916 124.706 92.6488 122.003 93.7646C120.808 94.2605 119.96 94.0435 118.388 92.9278C117.508 92.2769 117.445 92.2769 116.691 92.7728C115.276 93.6716 115.748 94.9733 117.885 96.213C119.425 97.1118 121.563 97.2358 123.197 96.554C125.146 95.7791 126.875 93.1137 126.875 90.9132C126.875 89.7665 125.335 87.256 124.14 86.4502C123.009 85.7064 122.82 85.6754 115.905 85.5204L108.801 85.3655L108.707 74.8588ZM168.366 67.8234C169.812 68.8462 170.189 68.6602 169.749 67.0486C169.592 66.4907 169.309 66.3977 167.454 66.3667C165.191 66.3047 164.248 66.7696 163.808 68.1643C163.4 69.466 165.285 70.9537 167.454 70.9537C168.209 70.9537 168.712 71.6046 168.334 72.1004C167.769 72.7513 166.291 72.5653 165.254 71.6975C164.311 70.9227 163.557 70.8917 163.808 71.6665C163.871 71.8835 163.997 72.3794 164.091 72.8133C164.248 73.5881 164.374 73.6191 166.228 73.5881C169.026 73.5261 169.12 73.4951 169.875 72.8133C170.692 72.0385 170.818 70.3028 170.095 69.59C169.812 69.3421 169.089 69.0321 168.429 68.9392C165.977 68.5362 165.065 67.7614 166.669 67.3585C167.234 67.2035 167.737 67.3585 168.366 67.8234ZM178.581 67.6684C178.204 66.7696 178.047 66.7077 176.224 66.5217C175.124 66.3977 173.615 66.3047 172.892 66.3047C171.729 66.3047 171.509 66.3977 171.509 66.9246C171.509 67.2655 171.666 67.5445 171.823 67.5445C172.012 67.5445 172.138 68.5362 172.138 69.8689C172.138 71.6665 172.012 72.2554 171.666 72.3794C171.415 72.5033 171.195 72.7513 171.195 72.9682C171.195 73.3712 173.772 73.7431 176.507 73.7431C177.858 73.7431 178.016 73.6501 178.55 72.6583C179.43 71.0777 178.833 70.5818 177.481 71.6975C176.916 72.1624 176.098 72.5033 175.564 72.5033C174.715 72.5033 174.652 72.4104 174.652 71.4186C174.652 70.1789 174.998 70.0239 175.658 71.0157C176.318 72.0075 176.853 71.4496 176.853 69.683C176.853 68.5982 176.727 68.1643 176.413 68.1643C176.161 68.1643 175.91 68.3813 175.784 68.6292C175.47 69.435 174.652 69.1871 174.652 68.2883C174.652 67.5135 174.715 67.4825 175.784 67.6374C176.413 67.7614 177.23 68.1023 177.607 68.4433C178.55 69.3421 179.116 68.9082 178.581 67.6684ZM155.321 67.9784C155.573 67.7924 155.793 67.3895 155.793 67.1106C155.793 66.6147 155.133 66.5527 152.744 66.8316C151.675 66.9556 151.329 67.6374 152.178 67.9784C152.775 68.1953 152.838 72.1934 152.272 73.1232C152.052 73.4331 151.958 73.8051 152.084 73.898C152.178 73.991 153.593 73.991 155.258 73.8671L158.245 73.6501L158.748 72.4104C159.408 70.7367 158.81 70.2719 157.679 71.6046C157.239 72.1004 156.547 72.5343 156.107 72.5963C155.353 72.6583 155.321 72.5653 155.101 70.4888C154.913 68.7532 154.976 68.2573 155.321 67.9784ZM186.628 68.2263C186.471 67.2655 186.282 67.0796 185.654 67.0486C185.214 67.0176 184.459 66.9246 183.925 66.8006C180.436 66.0878 178.487 71.2016 181.379 73.4951C182.668 74.5489 186.22 73.929 186.754 72.5963C186.974 71.9455 186 71.7595 185.371 72.3174C184.554 73.0302 183.233 72.9373 182.793 72.1624C182.322 71.2946 182.605 68.8772 183.265 68.2263C183.674 67.8234 183.894 67.8234 184.585 68.1023C185.025 68.3193 185.465 68.7532 185.559 69.0941C185.717 69.683 186.282 69.8999 186.66 69.559C186.754 69.466 186.722 68.8772 186.628 68.2263ZM150.921 73.0302C150.669 72.9063 149.821 71.5736 149.035 70.0239C147.746 67.4825 147.526 67.2345 146.709 67.2345C145.546 67.2345 145.357 67.5135 144.477 70.4888C144.1 71.8525 143.566 73.1852 143.346 73.4641C142.56 74.3319 142.843 74.6729 144.32 74.6729C145.514 74.6729 145.734 74.5799 145.734 74.053C145.734 73.7121 145.609 73.4331 145.42 73.4331C145.263 73.4331 145.106 73.1542 145.106 72.8133C145.106 72.2864 145.326 72.1934 146.332 72.1934C147.589 72.1934 148.375 72.9682 147.463 73.3092C146.583 73.6501 146.96 74.3629 148.029 74.3629C150.669 74.3629 152.367 73.5571 150.921 73.0302ZM191.123 68.5982C191.815 68.1023 191.752 67.6374 190.934 67.4205C189.489 67.0486 187.54 67.2035 187.54 67.6994C187.54 67.9474 187.697 68.1643 187.885 68.1643C188.137 68.1643 188.168 68.9082 188.011 70.7367C187.823 73.0922 187.854 73.3402 188.483 73.898C188.954 74.3009 189.74 74.5179 191.092 74.6109C193.638 74.7658 194.141 74.27 194.361 71.4496C194.455 70.2719 194.738 69.2491 194.958 69.0631C195.744 68.4433 195.429 67.9164 194.235 67.7924C192.946 67.6374 192.38 68.0404 192.946 68.6912C193.418 69.2801 193.04 72.7823 192.443 73.3712C192.035 73.7741 191.815 73.7741 191.123 73.4641C190.306 73.1232 190.274 73.0302 190.463 71.0467C190.557 69.652 190.777 68.8462 191.123 68.5982ZM141.648 68.7842C141.868 68.6602 141.931 68.3813 141.837 68.1953C141.617 67.8544 140.925 67.8234 138.914 68.0714C137.845 68.1953 137.468 68.9701 138.316 69.2801C138.945 69.528 139.354 73.3092 138.851 74.146C138.253 75.0448 138.819 75.3237 140.8 75.1068C142.591 74.8898 143.126 74.3939 142.12 73.8361C141.491 73.4641 141.082 69.1251 141.648 68.7842ZM202.25 72.2244C203.476 71.2326 203.413 69.466 202.093 68.9392C201.779 68.8152 200.333 68.5362 198.918 68.3503C196.655 68.0094 196.247 68.0094 196.121 68.4123C196.026 68.6292 196.121 68.9701 196.341 69.0941C196.938 69.466 196.247 73.6501 195.492 74.239C194.738 74.7968 195.272 75.1688 197.378 75.3857C199.201 75.6027 199.453 75.5097 198.918 74.6729C198.478 73.96 198.415 72.9373 198.824 72.6893C198.981 72.5963 199.421 73.2472 199.798 74.177C200.427 75.7576 200.553 75.8506 201.747 75.9746C202.627 76.0676 203.067 75.9436 203.193 75.6646C203.287 75.4167 203.193 75.1378 203.036 75.0138C202.847 74.9208 202.47 74.3629 202.156 73.7741C201.621 72.7513 201.621 72.6893 202.25 72.2244ZM135.645 70.4578C136.713 71.5736 137.311 71.2326 136.808 69.776C136.368 68.5052 136.242 68.4743 133.822 68.7532C131.59 69.0321 130.647 70.0239 130.647 72.1314C130.647 74.9208 132.627 76.5634 135.142 75.8816C136.525 75.5097 138.128 73.8671 137.625 73.3712C137.342 73.0922 137.028 73.2162 136.336 73.8671C134.702 75.4167 133.161 74.3319 133.161 71.6356C133.161 69.652 134.356 69.0941 135.645 70.4578ZM208.914 70.3648C208.914 69.9309 208.6 69.745 207.468 69.59C206.651 69.497 205.802 69.404 205.582 69.404C205.11 69.404 204.985 70.2099 205.425 70.4578C205.896 70.7677 204.985 74.9518 204.325 75.4477C203.539 76.0366 204.073 76.4085 206.148 76.6564C207.971 76.9044 208.254 76.7494 207.719 75.9126C207.216 75.0758 207.845 70.9537 208.474 70.9537C208.725 70.9537 208.914 70.7058 208.914 70.3648ZM128.981 76.1605C130.49 74.7658 130.144 71.6975 128.321 70.6128C126.561 69.559 123.889 70.0239 122.537 71.6356C121.343 73.0922 122.034 76.1295 123.763 76.9973C125.366 77.8342 127.566 77.4622 128.981 76.1605ZM217.086 72.8753C217.086 71.5736 216.803 71.3876 214.132 70.8297C210.737 70.1479 210.391 70.1789 209.763 71.2326C209.071 72.3794 209.511 72.6893 210.737 71.9765C211.271 71.6665 211.806 71.5116 211.9 71.6356C212.026 71.7595 211.931 72.8133 211.711 74.022C211.428 75.6646 211.177 76.2535 210.737 76.3775C209.605 76.7494 210.171 77.3693 211.963 77.7412C212.937 77.9271 213.912 78.0821 214.163 78.0821C214.666 78.0821 214.697 77.2453 214.194 77.0903C213.88 76.9664 213.88 76.4705 214.194 74.6729C214.415 73.4022 214.635 72.3484 214.697 72.2864C214.949 72.0385 215.829 72.6273 215.986 73.1542C216.3 74.084 217.086 73.8671 217.086 72.8753ZM120.274 73.2782C120.274 73.1542 120.054 72.6893 119.803 72.1934C119.3 71.2326 118.891 71.0467 118.545 71.5736C118.451 71.7285 117.791 71.8835 117.099 71.8835C115.559 71.8835 114.302 72.9682 114.302 74.3009C114.302 75.6646 115.119 76.1605 117.445 76.2845C119.205 76.3775 119.488 76.4705 119.488 76.9664C119.488 77.9891 117.98 78.2371 116.471 77.4932C114.962 76.7184 114.585 77.1523 115.402 78.671C115.905 79.6627 116.314 79.8797 116.659 79.3218C116.754 79.1359 117.382 79.0119 118.042 79.0119C118.765 79.0119 119.677 78.733 120.306 78.299C121.186 77.7102 121.406 77.3693 121.469 76.3155C121.594 74.5799 120.808 74.053 118.168 74.053C116.691 74.053 116.188 73.929 116.188 73.6191C116.188 72.8753 118.451 72.4414 118.86 73.1232C119.048 73.4331 120.274 73.5571 120.274 73.2782ZM221.707 73.2782C222.021 73.0612 222.21 72.8133 222.115 72.7203C222.021 72.6583 221.078 72.3794 219.978 72.1004C218.249 71.6975 217.966 71.6975 217.809 72.0695C217.715 72.3174 217.841 72.7513 218.092 73.0612C218.752 73.7741 219.507 76.2225 219.349 77.1213C219.287 77.5242 218.972 77.9271 218.626 77.9891C217.621 78.2681 217.966 78.9809 219.224 79.2908C222.021 80.0347 222.115 80.0347 222.115 79.5388C222.115 79.2598 221.958 78.9499 221.77 78.8259C220.858 78.299 222.744 75.4787 224.724 74.4869C225.919 73.8671 225.793 73.5571 224.19 73.1542C223.064 72.8719 222.621 72.761 222.497 72.9119C222.417 73.0095 222.469 73.2164 222.556 73.5571C222.681 74.053 222.556 74.4559 222.147 74.7968C221.581 75.2927 221.55 75.2927 221.361 74.4869C221.204 73.898 221.298 73.5571 221.707 73.2782Z" fill="#737373"/>
<path d="M213.912 138.889C214.76 136.565 215.672 134.116 215.923 133.466L216.426 132.319L222.335 132.381L228.245 132.474L228.339 137.247C228.402 141.369 228.339 142.082 227.899 142.578C227.396 143.135 226.767 143.166 219.884 143.166H212.403L213.912 138.889Z" fill="#737373"/>
<rect x="100" y="54" width="137" height="98" rx="8" fill="url(#paint3_linear_28436_92203)" fill-opacity="0.5"/>
<g filter="url(#filter2_d_28436_92203)">
<rect x="210" y="83" width="93.9789" height="93.9789" rx="46.9895" fill="white"/>
</g>
<mask id="path-15-outside-1_28436_92203" maskUnits="userSpaceOnUse" x="226.113" y="95.999" width="39" height="69" fill="black">
<rect fill="white" x="226.113" y="95.999" width="39" height="69"/>
<path fill-rule="evenodd" clip-rule="evenodd" d="M261.559 115.222C261.559 122.819 256.338 129.197 249.287 130.961L255.709 137.382C256.49 138.164 256.49 139.43 255.709 140.211L249.392 146.528L253.681 150.817C254.462 151.598 254.462 152.865 253.681 153.646L246.877 160.45C246.096 161.231 244.829 161.231 244.048 160.45L239.632 156.034V130.415C233.486 128.106 229.113 122.175 229.113 115.222C229.113 106.262 236.376 98.999 245.336 98.999C254.296 98.999 261.559 106.262 261.559 115.222ZM245.336 114.207C247.856 114.207 249.899 112.165 249.899 109.645C249.899 107.125 247.856 105.082 245.336 105.082C242.816 105.082 240.773 107.125 240.773 109.645C240.773 112.165 242.816 114.207 245.336 114.207Z"/>
</mask>
<path fill-rule="evenodd" clip-rule="evenodd" d="M261.559 115.222C261.559 122.819 256.338 129.197 249.287 130.961L255.709 137.382C256.49 138.164 256.49 139.43 255.709 140.211L249.392 146.528L253.681 150.817C254.462 151.598 254.462 152.865 253.681 153.646L246.877 160.45C246.096 161.231 244.829 161.231 244.048 160.45L239.632 156.034V130.415C233.486 128.106 229.113 122.175 229.113 115.222C229.113 106.262 236.376 98.999 245.336 98.999C254.296 98.999 261.559 106.262 261.559 115.222ZM245.336 114.207C247.856 114.207 249.899 112.165 249.899 109.645C249.899 107.125 247.856 105.082 245.336 105.082C242.816 105.082 240.773 107.125 240.773 109.645C240.773 112.165 242.816 114.207 245.336 114.207Z" fill="#FFC509"/>
<path d="M249.287 130.961L248.559 128.051L243.421 129.337L247.166 133.082L249.287 130.961ZM255.709 137.382L253.588 139.504H253.588L255.709 137.382ZM249.392 146.528L247.27 144.407L245.149 146.528L247.27 148.649L249.392 146.528ZM253.681 150.817L251.56 152.939H251.56L253.681 150.817ZM253.681 153.646L251.56 151.524L253.681 153.646ZM246.877 160.45L248.998 162.571L248.998 162.571L246.877 160.45ZM244.048 160.45L246.17 158.329L246.17 158.329L244.048 160.45ZM239.632 156.034H236.632V157.277L237.511 158.155L239.632 156.034ZM239.632 130.415H242.632V128.337L240.687 127.606L239.632 130.415ZM250.016 133.871C258.369 131.781 264.559 124.228 264.559 115.222H258.559C258.559 121.41 254.306 126.613 248.559 128.051L250.016 133.871ZM257.83 135.261L251.409 128.84L247.166 133.082L253.588 139.504L257.83 135.261ZM257.83 142.332C259.783 140.38 259.783 137.214 257.83 135.261L253.588 139.504C253.197 139.113 253.197 138.48 253.588 138.09L257.83 142.332ZM251.513 148.649L257.83 142.332L253.588 138.09L247.27 144.407L251.513 148.649ZM255.802 148.696L251.513 144.407L247.27 148.649L251.56 152.939L255.802 148.696ZM255.802 155.767C257.755 153.815 257.755 150.649 255.802 148.696L251.56 152.939C251.169 152.548 251.169 151.915 251.56 151.524L255.802 155.767ZM248.998 162.571L255.802 155.767L251.56 151.524L244.756 158.329L248.998 162.571ZM241.927 162.571C243.88 164.524 247.046 164.524 248.998 162.571L244.756 158.329C245.146 157.938 245.779 157.938 246.17 158.329L241.927 162.571ZM237.511 158.155L241.927 162.571L246.17 158.329L241.754 153.913L237.511 158.155ZM236.632 130.415V156.034H242.632V130.415H236.632ZM226.113 115.222C226.113 123.465 231.3 130.489 238.578 133.223L240.687 127.606C235.673 125.723 232.113 120.885 232.113 115.222H226.113ZM245.336 95.999C234.719 95.999 226.113 104.606 226.113 115.222H232.113C232.113 107.919 238.033 101.999 245.336 101.999V95.999ZM264.559 115.222C264.559 104.606 255.953 95.999 245.336 95.999V101.999C252.639 101.999 258.559 107.919 258.559 115.222H264.559ZM246.899 109.645C246.899 110.508 246.199 111.207 245.336 111.207V117.207C249.513 117.207 252.899 113.821 252.899 109.645H246.899ZM245.336 108.082C246.199 108.082 246.899 108.782 246.899 109.645H252.899C252.899 105.468 249.513 102.082 245.336 102.082V108.082ZM243.773 109.645C243.773 108.782 244.473 108.082 245.336 108.082V102.082C241.159 102.082 237.773 105.468 237.773 109.645H243.773ZM245.336 111.207C244.473 111.207 243.773 110.508 243.773 109.645H237.773C237.773 113.821 241.159 117.207 245.336 117.207V111.207Z" fill="white" mask="url(#path-15-outside-1_28436_92203)"/>
<mask id="path-17-outside-2_28436_92203" maskUnits="userSpaceOnUse" x="237.266" y="95.999" width="39" height="69" fill="black">
<rect fill="white" x="237.266" y="95.999" width="39" height="69"/>
<path fill-rule="evenodd" clip-rule="evenodd" d="M272.713 115.222C272.713 122.819 267.491 129.197 260.441 130.961L266.862 137.382C267.643 138.164 267.643 139.43 266.862 140.211L260.545 146.528L264.834 150.817C265.616 151.598 265.616 152.865 264.834 153.646L258.03 160.45C257.249 161.231 255.983 161.231 255.202 160.45L250.786 156.034V130.415C244.64 128.106 240.266 122.175 240.266 115.222C240.266 106.262 247.53 98.999 256.489 98.999C265.449 98.999 272.713 106.262 272.713 115.222ZM256.489 114.207C259.009 114.207 261.052 112.165 261.052 109.645C261.052 107.125 259.009 105.082 256.489 105.082C253.969 105.082 251.926 107.125 251.926 109.645C251.926 112.165 253.969 114.207 256.489 114.207Z"/>
</mask>
<path fill-rule="evenodd" clip-rule="evenodd" d="M272.713 115.222C272.713 122.819 267.491 129.197 260.441 130.961L266.862 137.382C267.643 138.164 267.643 139.43 266.862 140.211L260.545 146.528L264.834 150.817C265.616 151.598 265.616 152.865 264.834 153.646L258.03 160.45C257.249 161.231 255.983 161.231 255.202 160.45L250.786 156.034V130.415C244.64 128.106 240.266 122.175 240.266 115.222C240.266 106.262 247.53 98.999 256.489 98.999C265.449 98.999 272.713 106.262 272.713 115.222ZM256.489 114.207C259.009 114.207 261.052 112.165 261.052 109.645C261.052 107.125 259.009 105.082 256.489 105.082C253.969 105.082 251.926 107.125 251.926 109.645C251.926 112.165 253.969 114.207 256.489 114.207Z" fill="#FF8844"/>
<path d="M260.441 130.961L259.713 128.051L254.574 129.337L258.32 133.082L260.441 130.961ZM266.862 137.382L264.741 139.504L266.862 137.382ZM266.862 140.211L264.741 138.09L266.862 140.211ZM260.545 146.528L258.424 144.407L256.303 146.528L258.424 148.649L260.545 146.528ZM264.834 150.817L262.713 152.939L264.834 150.817ZM264.834 153.646L262.713 151.524H262.713L264.834 153.646ZM258.03 160.45L260.152 162.571L258.03 160.45ZM255.202 160.45L257.323 158.329L257.323 158.329L255.202 160.45ZM250.786 156.034H247.786V157.277L248.665 158.155L250.786 156.034ZM250.786 130.415H253.786V128.337L251.841 127.606L250.786 130.415ZM261.169 133.871C269.523 131.781 275.713 124.228 275.713 115.222H269.713C269.713 121.41 265.459 126.612 259.713 128.051L261.169 133.871ZM268.984 135.261L262.562 128.84L258.32 133.082L264.741 139.504L268.984 135.261ZM268.984 142.332C270.936 140.38 270.936 137.214 268.984 135.261L264.741 139.504C264.351 139.113 264.351 138.48 264.741 138.09L268.984 142.332ZM262.667 148.649L268.984 142.332L264.741 138.09L258.424 144.407L262.667 148.649ZM266.956 148.696L262.667 144.407L258.424 148.649L262.713 152.939L266.956 148.696ZM266.956 155.767C268.908 153.815 268.908 150.649 266.956 148.696L262.713 152.939C262.323 152.548 262.323 151.915 262.713 151.524L266.956 155.767ZM260.152 162.571L266.956 155.767L262.713 151.524L255.909 158.329L260.152 162.571ZM253.081 162.571C255.033 164.524 258.199 164.524 260.152 162.571L255.909 158.329C256.3 157.938 256.933 157.938 257.323 158.329L253.081 162.571ZM248.665 158.155L253.081 162.571L257.323 158.329L252.907 153.913L248.665 158.155ZM247.786 130.415V156.034H253.786V130.415H247.786ZM237.266 115.222C237.266 123.465 242.453 130.49 249.731 133.223L251.841 127.606C246.826 125.723 243.266 120.885 243.266 115.222H237.266ZM256.489 95.999C245.873 95.999 237.266 104.606 237.266 115.222H243.266C243.266 107.919 249.186 101.999 256.489 101.999V95.999ZM275.713 115.222C275.713 104.606 267.106 95.999 256.489 95.999V101.999C263.792 101.999 269.713 107.919 269.713 115.222H275.713ZM258.052 109.645C258.052 110.508 257.352 111.207 256.489 111.207V117.207C260.666 117.207 264.052 113.821 264.052 109.645H258.052ZM256.489 108.082C257.352 108.082 258.052 108.782 258.052 109.645H264.052C264.052 105.468 260.666 102.082 256.489 102.082V108.082ZM254.926 109.645C254.926 108.782 255.626 108.082 256.489 108.082V102.082C252.312 102.082 248.926 105.468 248.926 109.645H254.926ZM256.489 111.207C255.626 111.207 254.926 110.508 254.926 109.645H248.926C248.926 113.821 252.312 117.207 256.489 117.207V111.207Z" fill="white" mask="url(#path-17-outside-2_28436_92203)"/>
<mask id="path-19-outside-3_28436_92203" maskUnits="userSpaceOnUse" x="248.42" y="95.999" width="39" height="69" fill="black">
<rect fill="white" x="248.42" y="95.999" width="39" height="69"/>
<path fill-rule="evenodd" clip-rule="evenodd" d="M283.866 115.222C283.866 122.819 278.645 129.197 271.594 130.961L278.016 137.382C278.797 138.164 278.797 139.43 278.016 140.211L271.699 146.528L275.988 150.817C276.769 151.598 276.769 152.865 275.988 153.646L269.184 160.45C268.403 161.231 267.137 161.231 266.356 160.45L261.939 156.034V130.415C255.793 128.106 251.42 122.175 251.42 115.222C251.42 106.262 258.683 98.999 267.643 98.999C276.603 98.999 283.866 106.262 283.866 115.222ZM267.643 114.207C270.163 114.207 272.206 112.165 272.206 109.645C272.206 107.125 270.163 105.082 267.643 105.082C265.123 105.082 263.08 107.125 263.08 109.645C263.08 112.165 265.123 114.207 267.643 114.207Z"/>
</mask>
<path fill-rule="evenodd" clip-rule="evenodd" d="M283.866 115.222C283.866 122.819 278.645 129.197 271.594 130.961L278.016 137.382C278.797 138.164 278.797 139.43 278.016 140.211L271.699 146.528L275.988 150.817C276.769 151.598 276.769 152.865 275.988 153.646L269.184 160.45C268.403 161.231 267.137 161.231 266.356 160.45L261.939 156.034V130.415C255.793 128.106 251.42 122.175 251.42 115.222C251.42 106.262 258.683 98.999 267.643 98.999C276.603 98.999 283.866 106.262 283.866 115.222ZM267.643 114.207C270.163 114.207 272.206 112.165 272.206 109.645C272.206 107.125 270.163 105.082 267.643 105.082C265.123 105.082 263.08 107.125 263.08 109.645C263.08 112.165 265.123 114.207 267.643 114.207Z" fill="#2979FF"/>
<path d="M271.594 130.961L270.866 128.051L265.728 129.337L269.473 133.082L271.594 130.961ZM278.016 137.382L275.895 139.504L278.016 137.382ZM278.016 140.211L275.895 138.09L278.016 140.211ZM271.699 146.528L269.577 144.407L267.456 146.528L269.577 148.649L271.699 146.528ZM275.988 150.817L273.867 152.939L275.988 150.817ZM275.988 153.646L273.867 151.524H273.867L275.988 153.646ZM269.184 160.45L271.305 162.571L271.305 162.571L269.184 160.45ZM266.356 160.45L268.477 158.329L268.477 158.329L266.356 160.45ZM261.939 156.034H258.939V157.277L259.818 158.155L261.939 156.034ZM261.939 130.415H264.939V128.337L262.994 127.606L261.939 130.415ZM272.323 133.871C280.676 131.781 286.866 124.228 286.866 115.222H280.866C280.866 121.41 276.613 126.613 270.866 128.051L272.323 133.871ZM280.137 135.261L273.716 128.84L269.473 133.082L275.895 139.504L280.137 135.261ZM280.137 142.332C282.09 140.38 282.09 137.214 280.137 135.261L275.895 139.504C275.504 139.113 275.504 138.48 275.895 138.09L280.137 142.332ZM273.82 148.649L280.137 142.332L275.895 138.09L269.577 144.407L273.82 148.649ZM278.109 148.696L273.82 144.407L269.577 148.649L273.867 152.939L278.109 148.696ZM278.109 155.767C280.062 153.815 280.062 150.649 278.109 148.696L273.867 152.939C273.476 152.548 273.476 151.915 273.867 151.524L278.109 155.767ZM271.305 162.571L278.109 155.767L273.867 151.524L267.063 158.329L271.305 162.571ZM264.234 162.571C266.187 164.524 269.353 164.524 271.305 162.571L267.063 158.329C267.453 157.938 268.086 157.938 268.477 158.329L264.234 162.571ZM259.818 158.155L264.234 162.571L268.477 158.329L264.061 153.913L259.818 158.155ZM258.939 130.415V156.034H264.939V130.415H258.939ZM248.42 115.222C248.42 123.465 253.607 130.489 260.885 133.223L262.994 127.606C257.98 125.723 254.42 120.885 254.42 115.222H248.42ZM267.643 95.999C257.026 95.999 248.42 104.606 248.42 115.222H254.42C254.42 107.919 260.34 101.999 267.643 101.999V95.999ZM286.866 115.222C286.866 104.606 278.26 95.999 267.643 95.999V101.999C274.946 101.999 280.866 107.919 280.866 115.222H286.866ZM269.206 109.645C269.206 110.508 268.506 111.207 267.643 111.207V117.207C271.82 117.207 275.206 113.821 275.206 109.645H269.206ZM267.643 108.082C268.506 108.082 269.206 108.782 269.206 109.645H275.206C275.206 105.468 271.82 102.082 267.643 102.082V108.082ZM266.08 109.645C266.08 108.782 266.78 108.082 267.643 108.082V102.082C263.466 102.082 260.08 105.468 260.08 109.645H266.08ZM267.643 111.207C266.78 111.207 266.08 110.508 266.08 109.645H260.08C260.08 113.821 263.466 117.207 267.643 117.207V111.207Z" fill="white" mask="url(#path-19-outside-3_28436_92203)"/>
<rect x="210" y="83" width="93.9789" height="93.9789" rx="46.9895" fill="url(#paint4_linear_28436_92203)" fill-opacity="0.5"/>
<defs>
<filter id="filter0_d_28436_92203" x="34" y="13" width="144" height="96" filterUnits="userSpaceOnUse" color-interpolation-filters="sRGB">
<feFlood flood-opacity="0" result="BackgroundImageFix"/>
<feColorMatrix in="SourceAlpha" type="matrix" values="0 0 0 0 0 0 0 0 0 0 0 0 0 0 0 0 0 0 127 0" result="hardAlpha"/>
<feOffset dy="1"/>
<feGaussianBlur stdDeviation="0.5"/>
<feComposite in2="hardAlpha" operator="out"/>
<feColorMatrix type="matrix" values="0 0 0 0 0 0 0 0 0 0 0 0 0 0 0 0 0 0 0.16 0"/>
<feBlend mode="normal" in2="BackgroundImageFix" result="effect1_dropShadow_28436_92203"/>
<feBlend mode="normal" in="SourceGraphic" in2="effect1_dropShadow_28436_92203" result="shape"/>
</filter>
<filter id="filter1_d_28436_92203" x="99" y="54" width="139" height="100" filterUnits="userSpaceOnUse" color-interpolation-filters="sRGB">
<feFlood flood-opacity="0" result="BackgroundImageFix"/>
<feColorMatrix in="SourceAlpha" type="matrix" values="0 0 0 0 0 0 0 0 0 0 0 0 0 0 0 0 0 0 127 0" result="hardAlpha"/>
<feOffset dy="1"/>
<feGaussianBlur stdDeviation="0.5"/>
<feComposite in2="hardAlpha" operator="out"/>
<feColorMatrix type="matrix" values="0 0 0 0 0 0 0 0 0 0 0 0 0 0 0 0 0 0 0.16 0"/>
<feBlend mode="normal" in2="BackgroundImageFix" result="effect1_dropShadow_28436_92203"/>
<feBlend mode="normal" in="SourceGraphic" in2="effect1_dropShadow_28436_92203" result="shape"/>
</filter>
<filter id="filter2_d_28436_92203" x="209" y="83" width="95.9789" height="95.9785" filterUnits="userSpaceOnUse" color-interpolation-filters="sRGB">
<feFlood flood-opacity="0" result="BackgroundImageFix"/>
<feColorMatrix in="SourceAlpha" type="matrix" values="0 0 0 0 0 0 0 0 0 0 0 0 0 0 0 0 0 0 127 0" result="hardAlpha"/>
<feOffset dy="1"/>
<feGaussianBlur stdDeviation="0.5"/>
<feComposite in2="hardAlpha" operator="out"/>
<feColorMatrix type="matrix" values="0 0 0 0 0 0 0 0 0 0 0 0 0 0 0 0 0 0 0.16 0"/>
<feBlend mode="normal" in2="BackgroundImageFix" result="effect1_dropShadow_28436_92203"/>
<feBlend mode="normal" in="SourceGraphic" in2="effect1_dropShadow_28436_92203" result="shape"/>
</filter>
<linearGradient id="paint0_linear_28436_92203" x1="345.666" y1="8.10317e-06" x2="-15.3985" y2="145.89" gradientUnits="userSpaceOnUse">
<stop stop-color="#F9F5EB"/>
<stop offset="0.5" stop-color="#D9ECEF"/>
<stop offset="1" stop-color="#C7D5F9"/>
</linearGradient>
<linearGradient id="paint1_linear_28436_92203" x1="51" y1="32" x2="77" y2="54" gradientUnits="userSpaceOnUse">
<stop stop-color="#BFBFBF"/>
<stop offset="0.395" stop-color="#EBEBEB"/>
<stop offset="0.57" stop-color="#EBEBEB"/>
<stop offset="1" stop-color="#BFBFBF"/>
</linearGradient>
<linearGradient id="paint2_linear_28436_92203" x1="176.929" y1="13" x2="115.362" y2="112.777" gradientUnits="userSpaceOnUse">
<stop stop-color="white"/>
<stop offset="1" stop-color="white" stop-opacity="0"/>
</linearGradient>
<linearGradient id="paint3_linear_28436_92203" x1="236.931" y1="54" x2="170.636" y2="153.425" gradientUnits="userSpaceOnUse">
<stop stop-color="white"/>
<stop offset="1" stop-color="white" stop-opacity="0"/>
</linearGradient>
<linearGradient id="paint4_linear_28436_92203" x1="303.932" y1="83" x2="235.234" y2="156.7" gradientUnits="userSpaceOnUse">
<stop stop-color="white"/>
<stop offset="1" stop-color="white" stop-opacity="0"/>
</linearGradient>
</defs>
</svg>
