<svg width="346" height="184" viewBox="0 0 346 184" fill="none" xmlns="http://www.w3.org/2000/svg">
<g clip-path="url(#clip0_28435_73310)">
<path d="M0 8C0 3.58172 3.58172 0 8 0H338C342.418 0 346 3.58172 346 8V176C346 180.418 342.418 184 338 184H8.00001C3.58173 184 0 180.418 0 176V8Z" fill="url(#paint0_linear_28435_73310)"/>
<rect x="36" y="13" width="274" height="158" rx="4" fill="white"/>
<mask id="path-3-inside-1_28435_73310" fill="white">
<path d="M36 13H310V32.069H36V13Z"/>
</mask>
<path d="M310 31.069H36V33.069H310V31.069Z" fill="black" fill-opacity="0.16" mask="url(#path-3-inside-1_28435_73310)"/>
<rect x="44.8116" y="19.8105" width="41.0949" height="5.44828" rx="2" fill="#D6D6D6"/>
<g clip-path="url(#clip1_28435_73310)">
<rect x="95.4161" y="31.0479" width="57.7366" height="1.02155" rx="0.510776" fill="#2979FF"/>
<rect x="108.373" y="19.8105" width="33.37" height="5.44828" rx="2" fill="#D6D6D6"/>
</g>
<rect width="274" height="17.7069" transform="translate(36 32.0693)" fill="#EEF4FF"/>
<path fill-rule="evenodd" clip-rule="evenodd" d="M44.6216 43.1721C45.977 43.1721 47.0776 42.0706 47.0776 40.7096C47.0776 39.3485 45.977 38.2471 44.6216 38.2471C43.2663 38.2471 42.1656 39.3485 42.1656 40.7096C42.1656 42.0706 43.2663 43.1721 44.6216 43.1721ZM44.6216 43.6721C46.2542 43.6721 47.5776 42.3457 47.5776 40.7096C47.5776 39.0734 46.2542 37.7471 44.6216 37.7471C42.9891 37.7471 41.6656 39.0734 41.6656 40.7096C41.6656 42.3457 42.9891 43.6721 44.6216 43.6721ZM44.9673 39.4461C44.9673 39.6373 44.8126 39.7923 44.6218 39.7923C44.4311 39.7923 44.2764 39.6373 44.2764 39.4461C44.2764 39.2549 44.4311 39.0999 44.6218 39.0999C44.8126 39.0999 44.9673 39.2549 44.9673 39.4461ZM44.9296 40.147H44.3137V42.2526H44.9296V40.147Z" fill="#B2C8EB"/>
<rect opacity="0.3" x="51" y="38" width="226" height="6" rx="2" fill="#B2C8EB"/>
<rect width="274" height="14.9828" transform="translate(36 49.7754)" fill="#F0F0F0"/>
<rect x="40.9266" y="54.543" width="41.0949" height="5.44828" rx="2" fill="#D6D6D6"/>
<rect x="127.36" y="54.543" width="41.0949" height="5.44828" rx="2" fill="#D6D6D6"/>
<rect x="213.285" y="54.543" width="41.0949" height="5.44828" rx="2" fill="#D6D6D6"/>
<mask id="path-13-inside-2_28435_73310" fill="white">
<path d="M36 64.7588H310V82.4657H36V64.7588Z"/>
</mask>
<path d="M36 64.7588H310V82.4657H36V64.7588Z" fill="white"/>
<path d="M310 81.4657H36V83.4657H310V81.4657Z" fill="black" fill-opacity="0.08" mask="url(#path-13-inside-2_28435_73310)"/>
<rect x="55.0192" y="70.8877" width="32.6042" height="5.44828" rx="2" fill="#F0F0F0"/>
<rect x="213.285" y="70.8877" width="16.3021" height="5.44828" rx="2" fill="#F0F0F0"/>
<rect x="127.36" y="70.8877" width="16.3021" height="5.44828" rx="2" fill="#F0F0F0"/>
<path fill-rule="evenodd" clip-rule="evenodd" d="M47.6429 69.5264C48.821 69.5264 49.5851 70.2925 49.5851 71.4737V75.7514C49.5851 76.9326 48.821 77.6988 47.6429 77.6988H43.3763C42.1982 77.6988 41.4341 76.9326 41.4341 75.7514V71.4737C41.4341 70.2925 42.1982 69.5264 43.3763 69.5264H47.6429Z" fill="url(#paint1_radial_28435_73310)"/>
<path fill-rule="evenodd" clip-rule="evenodd" d="M93.0574 75.4958C94.0931 75.4958 94.9348 74.6537 94.9348 73.6121C94.9348 72.5706 94.0931 71.7285 93.0574 71.7285C92.0218 71.7285 91.1801 72.5706 91.1801 73.6121C91.1801 74.6537 92.0218 75.4958 93.0574 75.4958ZM93.0574 75.9958C94.3704 75.9958 95.4348 74.9286 95.4348 73.6121C95.4348 72.2957 94.3704 71.2285 93.0574 71.2285C91.7444 71.2285 90.6801 72.2957 90.6801 73.6121C90.6801 74.9286 91.7444 75.9958 93.0574 75.9958ZM93.3767 74.7329C93.3767 74.9176 93.2273 75.0674 93.0431 75.0674C92.8588 75.0674 92.7095 74.9176 92.7095 74.7329C92.7095 74.5482 92.8588 74.3985 93.0431 74.3985C93.2273 74.3985 93.3767 74.5482 93.3767 74.7329ZM93.0698 72.1687C92.889 72.1687 92.7457 72.3212 92.757 72.5016L92.8336 73.7305C92.8413 73.8553 92.9448 73.9525 93.0698 73.9525C93.1948 73.9525 93.2982 73.8553 93.306 73.7305L93.3826 72.5016C93.3939 72.3212 93.2506 72.1687 93.0698 72.1687Z" fill="#F0483F"/>
<mask id="path-20-inside-3_28435_73310" fill="white">
<path d="M36 82.4658H310V100.173H36V82.4658Z"/>
</mask>
<path d="M36 82.4658H310V100.173H36V82.4658Z" fill="white"/>
<path d="M310 99.1727H36V101.173H310V99.1727Z" fill="black" fill-opacity="0.08" mask="url(#path-20-inside-3_28435_73310)"/>
<rect x="55.0192" y="88.5947" width="32.6042" height="5.44828" rx="2" fill="#F0F0F0"/>
<rect x="213.285" y="88.5947" width="16.3021" height="5.44828" rx="2" fill="#F0F0F0"/>
<rect x="127.36" y="88.5947" width="16.3021" height="5.44828" rx="2" fill="#F0F0F0"/>
<path fill-rule="evenodd" clip-rule="evenodd" d="M47.6429 86.8076C48.821 86.8076 49.5851 87.5738 49.5851 88.755V93.0327C49.5851 94.2139 48.821 94.98 47.6429 94.98H43.3763C42.1982 94.98 41.4341 94.2139 41.4341 93.0327V88.755C41.4341 87.5738 42.1982 86.8076 43.3763 86.8076H47.6429Z" fill="url(#paint2_radial_28435_73310)"/>
<circle cx="98.3403" cy="96.5947" r="8" fill="white"/>
<path fill-rule="evenodd" clip-rule="evenodd" d="M93.0573 93.2028C94.0929 93.2028 94.9347 92.3607 94.9347 91.3192C94.9347 90.2776 94.0929 89.4355 93.0573 89.4355C92.0217 89.4355 91.1799 90.2776 91.1799 91.3192C91.1799 92.3607 92.0217 93.2028 93.0573 93.2028ZM93.0573 93.7028C94.3703 93.7028 95.4347 92.6356 95.4347 91.3192C95.4347 90.0027 94.3703 88.9355 93.0573 88.9355C91.7443 88.9355 90.6799 90.0027 90.6799 91.3192C90.6799 92.6356 91.7443 93.7028 93.0573 93.7028ZM93.3765 92.44C93.3765 92.6247 93.2272 92.7744 93.0429 92.7744C92.8587 92.7744 92.7094 92.6247 92.7094 92.44C92.7094 92.2552 92.8587 92.1055 93.0429 92.1055C93.2272 92.1055 93.3765 92.2552 93.3765 92.44ZM93.0697 89.8757C92.8889 89.8757 92.7456 90.0282 92.7568 90.2086L92.8334 91.4375C92.8412 91.5623 92.9447 91.6595 93.0697 91.6595C93.1947 91.6595 93.2981 91.5623 93.3059 91.4375L93.3825 90.2086C93.3937 90.0282 93.2504 89.8757 93.0697 89.8757Z" fill="#F0483F"/>
<mask id="path-28-inside-4_28435_73310" fill="white">
<path d="M36 100.173H310V117.88H36V100.173Z"/>
</mask>
<path d="M36 100.173H310V117.88H36V100.173Z" fill="white"/>
<path d="M310 116.88H36V118.88H310V116.88Z" fill="black" fill-opacity="0.08" mask="url(#path-28-inside-4_28435_73310)"/>
<rect x="55.0192" y="106.302" width="32.6042" height="5.44828" rx="2" fill="#F0F0F0"/>
<rect x="213.285" y="106.302" width="16.3021" height="5.44828" rx="2" fill="#F0F0F0"/>
<rect x="127.36" y="106.302" width="16.3021" height="5.44828" rx="2" fill="#F0F0F0"/>
<path fill-rule="evenodd" clip-rule="evenodd" d="M47.6429 105.322C48.821 105.322 49.5851 106.088 49.5851 107.27V111.547C49.5851 112.729 48.821 113.495 47.6429 113.495H43.3763C42.1982 113.495 41.4341 112.729 41.4341 111.547V107.27C41.4341 106.088 42.1982 105.322 43.3763 105.322H47.6429Z" fill="url(#paint3_radial_28435_73310)"/>
<circle cx="98.3403" cy="114.302" r="8" fill="white"/>
<path fill-rule="evenodd" clip-rule="evenodd" d="M93.0573 110.91C94.0929 110.91 94.9347 110.068 94.9347 109.026C94.9347 107.985 94.0929 107.143 93.0573 107.143C92.0217 107.143 91.1799 107.985 91.1799 109.026C91.1799 110.068 92.0217 110.91 93.0573 110.91ZM93.0573 111.41C94.3703 111.41 95.4347 110.343 95.4347 109.026C95.4347 107.71 94.3703 106.643 93.0573 106.643C91.7443 106.643 90.6799 107.71 90.6799 109.026C90.6799 110.343 91.7443 111.41 93.0573 111.41ZM93.3765 110.147C93.3765 110.332 93.2272 110.481 93.0429 110.481C92.8587 110.481 92.7094 110.332 92.7094 110.147C92.7094 109.962 92.8587 109.813 93.0429 109.813C93.2272 109.813 93.3765 109.962 93.3765 110.147ZM93.0697 107.583C92.8889 107.583 92.7456 107.735 92.7568 107.916L92.8334 109.145C92.8412 109.269 92.9447 109.367 93.0697 109.367C93.1947 109.367 93.2981 109.269 93.3059 109.145L93.3825 107.916C93.3937 107.735 93.2504 107.583 93.0697 107.583Z" fill="#F0483F"/>
<mask id="path-36-inside-5_28435_73310" fill="white">
<path d="M36 117.879H310V135.586H36V117.879Z"/>
</mask>
<path d="M36 117.879H310V135.586H36V117.879Z" fill="white"/>
<path d="M310 134.586H36V136.586H310V134.586Z" fill="black" fill-opacity="0.08" mask="url(#path-36-inside-5_28435_73310)"/>
<rect x="55.0192" y="124.008" width="32.6042" height="5.44828" rx="2" fill="#F0F0F0"/>
<rect x="213.285" y="124.008" width="16.3021" height="5.44828" rx="2" fill="#F0F0F0"/>
<rect x="127.36" y="124.008" width="16.3021" height="5.44828" rx="2" fill="#F0F0F0"/>
<circle cx="98.3403" cy="132.008" r="8" fill="white"/>
<path fill-rule="evenodd" clip-rule="evenodd" d="M93.0573 128.616C94.0929 128.616 94.9347 127.774 94.9347 126.732C94.9347 125.691 94.0929 124.849 93.0573 124.849C92.0217 124.849 91.1799 125.691 91.1799 126.732C91.1799 127.774 92.0217 128.616 93.0573 128.616ZM93.0573 129.116C94.3703 129.116 95.4347 128.049 95.4347 126.732C95.4347 125.416 94.3703 124.349 93.0573 124.349C91.7443 124.349 90.6799 125.416 90.6799 126.732C90.6799 128.049 91.7443 129.116 93.0573 129.116ZM93.3765 127.853C93.3765 128.038 93.2272 128.188 93.0429 128.188C92.8587 128.188 92.7094 128.038 92.7094 127.853C92.7094 127.668 92.8587 127.519 93.0429 127.519C93.2272 127.519 93.3765 127.668 93.3765 127.853ZM93.0697 125.289C92.8889 125.289 92.7456 125.441 92.7568 125.622L92.8334 126.851C92.8412 126.975 92.9447 127.073 93.0697 127.073C93.1947 127.073 93.2981 126.975 93.3059 126.851L93.3825 125.622C93.3937 125.441 93.2504 125.289 93.0697 125.289Z" fill="#F0483F"/>
<path fill-rule="evenodd" clip-rule="evenodd" d="M47.6429 122.604C48.821 122.604 49.5851 123.37 49.5851 124.551V128.829C49.5851 130.01 48.821 130.776 47.6429 130.776H43.3763C42.1982 130.776 41.4341 130.01 41.4341 128.829V124.551C41.4341 123.37 42.1982 122.604 43.3763 122.604H47.6429Z" fill="url(#paint4_radial_28435_73310)"/>
<mask id="path-44-inside-6_28435_73310" fill="white">
<path d="M36 135.586H310V153.293H36V135.586Z"/>
</mask>
<path d="M36 135.586H310V153.293H36V135.586Z" fill="white"/>
<path d="M310 152.293H36V154.293H310V152.293Z" fill="black" fill-opacity="0.08" mask="url(#path-44-inside-6_28435_73310)"/>
<rect x="55.0192" y="141.715" width="32.6042" height="5.44828" rx="2" fill="#F0F0F0"/>
<rect x="213.285" y="141.715" width="16.3021" height="5.44828" rx="2" fill="#F0F0F0"/>
<rect x="127.36" y="141.715" width="16.3021" height="5.44828" rx="2" fill="#F0F0F0"/>
<circle cx="98.3403" cy="149.715" r="8" fill="white"/>
<path fill-rule="evenodd" clip-rule="evenodd" d="M92.7094 145.56C92.7094 145.655 92.7485 145.74 92.8114 145.801C92.1697 145.685 91.6799 145.121 91.6799 144.439C91.6799 143.737 92.1991 143.161 92.8689 143.069C92.7952 143.13 92.7504 143.225 92.7568 143.329L92.8334 144.558C92.8412 144.682 92.9447 144.78 93.0697 144.78C93.1947 144.78 93.2981 144.682 93.3059 144.558L93.3825 143.329C93.3888 143.227 93.3463 143.135 93.2756 143.073C93.9309 143.178 94.4347 143.748 94.4347 144.439C94.4347 145.133 93.9271 145.705 93.2682 145.807C93.3348 145.746 93.3765 145.658 93.3765 145.56C93.3765 145.375 93.2272 145.226 93.0429 145.226C92.8587 145.226 92.7094 145.375 92.7094 145.56ZM93.0573 146.823C94.3703 146.823 95.4347 145.756 95.4347 144.439C95.4347 143.123 94.3703 142.056 93.0573 142.056C91.7443 142.056 90.6799 143.123 90.6799 144.439C90.6799 145.756 91.7443 146.823 93.0573 146.823Z" fill="#F0483F"/>
<path fill-rule="evenodd" clip-rule="evenodd" d="M47.6429 139.885C48.821 139.885 49.5851 140.651 49.5851 141.832V146.11C49.5851 147.291 48.821 148.057 47.6429 148.057H43.3763C42.1982 148.057 41.4341 147.291 41.4341 146.11V141.832C41.4341 140.651 42.1982 139.885 43.3763 139.885H47.6429Z" fill="url(#paint5_radial_28435_73310)"/>
<path d="M44.9987 160.4C45.1423 160.4 45.2587 160.516 45.2587 160.66V161.732H46.3386C46.4822 161.732 46.5986 161.849 46.5986 161.992C46.5986 162.136 46.4822 162.252 46.3386 162.252H45.2587V163.338C45.2587 163.482 45.1423 163.598 44.9987 163.598C44.8551 163.598 44.7387 163.482 44.7387 163.338V162.252H43.66C43.5164 162.252 43.4 162.136 43.4 161.992C43.4 161.849 43.5164 161.732 43.66 161.732H44.7387V160.66C44.7387 160.516 44.8551 160.4 44.9987 160.4Z" fill="#D6D6D6"/>
<path fill-rule="evenodd" clip-rule="evenodd" d="M45 166C47.2091 166 49 164.209 49 162C49 159.791 47.2091 158 45 158C42.7909 158 41 159.791 41 162C41 164.209 42.7909 166 45 166ZM48.48 162C48.48 163.922 46.922 165.48 45 165.48C43.078 165.48 41.52 163.922 41.52 162C41.52 160.078 43.078 158.52 45 158.52C46.922 158.52 48.48 160.078 48.48 162Z" fill="#D6D6D6"/>
<rect x="55.0192" y="159.422" width="32.6042" height="5.44828" rx="2" fill="#D6D6D6"/>
<g filter="url(#filter0_d_28435_73310)">
<rect x="258" y="8" width="64" height="48" rx="6" fill="#34932E"/>
<rect x="258" y="8" width="64" height="48" rx="6" fill="#448AFF"/>
</g>
<g filter="url(#filter1_d_28435_73310)">
<path d="M258 14C258 10.6863 260.686 8 264 8H316C319.314 8 322 10.6863 322 14V17.783C322 19.1622 321.29 20.444 320.12 21.175L292.12 38.675C290.823 39.4857 289.177 39.4857 287.88 38.675L259.88 21.175C258.71 20.444 258 19.1622 258 17.783V14Z" fill="#31A629"/>
<path d="M258 14C258 10.6863 260.686 8 264 8H316C319.314 8 322 10.6863 322 14V17.783C322 19.1622 321.29 20.444 320.12 21.175L292.12 38.675C290.823 39.4857 289.177 39.4857 287.88 38.675L259.88 21.175C258.71 20.444 258 19.1622 258 17.783V14Z" fill="#73BCFF"/>
</g>
<circle cx="310" cy="44" r="9" fill="white"/>
<path d="M306 43.7844L308.721 47L314 41" stroke="#31A629" stroke-width="2" stroke-linecap="round"/>
<rect x="134" y="157" width="18" height="23" fill="#3C4043"/>
<path d="M96.8351 153.416C97.2281 154.969 98.6258 156.058 100.228 156.058H195.976C198.257 156.058 199.929 153.911 199.369 151.699L183.417 88.6416C183.024 87.0882 181.626 86 180.024 86H84.2759C81.9948 86 80.3233 88.147 80.8828 90.3584L96.8351 153.416Z" fill="url(#paint6_linear_28435_73310)"/>
<path d="M96.8351 153.416C97.2281 154.969 98.6258 156.058 100.228 156.058H195.976C198.257 156.058 199.929 153.911 199.369 151.699L183.417 88.6416C183.024 87.0882 181.626 86 180.024 86H84.2759C81.9948 86 80.3233 88.147 80.8828 90.3584L96.8351 153.416Z" fill="url(#paint7_linear_28435_73310)"/>
<path d="M96.8351 153.416C97.2281 154.969 98.6258 156.058 100.228 156.058H195.976C198.257 156.058 199.929 153.911 199.369 151.699L183.417 88.6416C183.024 87.0882 181.626 86 180.024 86H84.2759C81.9948 86 80.3233 88.147 80.8828 90.3584L96.8351 153.416Z" stroke="#606369" stroke-width="9"/>
<path d="M97.8351 152.416C98.2281 153.969 99.6258 155.058 101.228 155.058H196.976C199.257 155.058 200.929 152.911 200.369 150.699L184.417 87.6416C184.024 86.0882 182.626 85 181.024 85H85.2759C82.9948 85 81.3233 87.147 81.8828 89.3584L97.8351 152.416Z" fill="url(#paint8_linear_28435_73310)"/>
<path d="M97.8351 152.416C98.2281 153.969 99.6258 155.058 101.228 155.058H196.976C199.257 155.058 200.929 152.911 200.369 150.699L184.417 87.6416C184.024 86.0882 182.626 85 181.024 85H85.2759C82.9948 85 81.3233 87.147 81.8828 89.3584L97.8351 152.416Z" fill="url(#paint9_linear_28435_73310)"/>
<path d="M97.8351 152.416C98.2281 153.969 99.6258 155.058 101.228 155.058H196.976C199.257 155.058 200.929 152.911 200.369 150.699L184.417 87.6416C184.024 86.0882 182.626 85 181.024 85H85.2759C82.9948 85 81.3233 87.147 81.8828 89.3584L97.8351 152.416Z" stroke="#606369" stroke-width="9"/>
<path d="M97.8351 151.416C98.2281 152.969 99.6258 154.058 101.228 154.058H196.976C199.257 154.058 200.929 151.911 200.369 149.699L184.417 86.6416C184.024 85.0882 182.626 84 181.024 84H85.2759C82.9948 84 81.3233 86.147 81.8828 88.3584L97.8351 151.416Z" fill="url(#paint10_linear_28435_73310)"/>
<path d="M97.8351 151.416C98.2281 152.969 99.6258 154.058 101.228 154.058H196.976C199.257 154.058 200.929 151.911 200.369 149.699L184.417 86.6416C184.024 85.0882 182.626 84 181.024 84H85.2759C82.9948 84 81.3233 86.147 81.8828 88.3584L97.8351 151.416Z" fill="url(#paint11_linear_28435_73310)"/>
<path d="M97.8351 151.416C98.2281 152.969 99.6258 154.058 101.228 154.058H196.976C199.257 154.058 200.929 151.911 200.369 149.699L184.417 86.6416C184.024 85.0882 182.626 84 181.024 84H85.2759C82.9948 84 81.3233 86.147 81.8828 88.3584L97.8351 151.416Z" stroke="#606369" stroke-width="9"/>
<path d="M96.8962 150.907C97.5137 153.348 99.7102 155.058 102.228 155.058H197.976C201.561 155.058 204.187 151.684 203.308 148.209L187.356 85.1511C186.738 82.71 184.542 81 182.024 81H86.2759C82.6914 81 80.0647 84.3739 80.9438 87.8489L96.8962 150.907Z" fill="url(#paint12_linear_28435_73310)"/>
<path d="M96.8962 150.907C97.5137 153.348 99.7102 155.058 102.228 155.058H197.976C201.561 155.058 204.187 151.684 203.308 148.209L187.356 85.1511C186.738 82.71 184.542 81 182.024 81H86.2759C82.6914 81 80.0647 84.3739 80.9438 87.8489L96.8962 150.907Z" fill="url(#paint13_linear_28435_73310)"/>
<path d="M96.8962 150.907C97.5137 153.348 99.7102 155.058 102.228 155.058H197.976C201.561 155.058 204.187 151.684 203.308 148.209L187.356 85.1511C186.738 82.71 184.542 81 182.024 81H86.2759C82.6914 81 80.0647 84.3739 80.9438 87.8489L96.8962 150.907Z" stroke="#606369" stroke-width="5"/>
<path d="M126 184C126 181.791 127.791 180 130 180H185C187.209 180 189 181.791 189 184H126Z" fill="#3C4043"/>
<path d="M199.691 199.325C199.691 220.685 217.006 238 238.366 238H266C288.091 238 306 220.091 306 198V183.855H215.161C206.617 183.855 199.691 190.781 199.691 199.325Z" fill="#D9D9D9"/>
<path d="M33.0725 132.021C36.8289 140.837 37.3925 146.776 36.7042 158.434" stroke="#091E2E"/>
<path d="M40.9962 147.538C38.9012 150.661 37.7249 153.178 37.2921 158.103" stroke="#091E2E"/>
<ellipse cx="7.64737" cy="12.4296" rx="7.64737" ry="12.4296" transform="matrix(-0.707107 -0.707107 -0.707107 0.707107 62.7863 135.903)" fill="url(#paint14_linear_28435_73310)"/>
<ellipse cx="23.2269" cy="121.185" rx="9.27976" ry="15.0828" transform="rotate(-45 23.2269 121.185)" fill="url(#paint15_linear_28435_73310)"/>
<path fill-rule="evenodd" clip-rule="evenodd" d="M37.6946 158.103H25.2924C21.8473 163.94 21.8473 166.343 21.8473 170.463C21.8473 174.584 26.3259 180.764 32.527 183.854H37.6946V158.103ZM37.6947 158.103H50.0969C53.542 163.94 53.542 166.343 53.542 170.463C53.542 174.584 49.0634 180.764 42.8623 183.854H37.6947V158.103Z" fill="url(#paint16_linear_28435_73310)"/>
<path d="M247.113 114.225L241.5 103L256.128 90.4219L260.42 111.552L247.113 114.225Z" fill="#FE9C96"/>
<rect x="224.782" y="67.6416" width="25.0916" height="38.2977" rx="12.5458" fill="#FE9C96"/>
<path d="M230 92C230 94.2091 228.209 96 226 96C223.791 96 221 95.7091 221 93.5C221 91.2909 225 88 225 83C227.209 83 230 89.7909 230 92Z" fill="#FE9C96"/>
<path fill-rule="evenodd" clip-rule="evenodd" d="M219.5 72.9237C219.5 68.5475 223.048 65 227.424 65H236.008H241.95H246.573C256.477 65 263.74 72.2634 263.74 82.8282C263.74 93.3931 258.458 98.6756 252.515 98.6756C247.442 98.6756 245.29 95.1538 244.545 91.7341C244.101 89.6974 242.612 87.8564 240.63 87.5091V89.1011C240.63 90.7422 239.299 92.0725 237.658 92.0725C236.017 92.0725 234.687 90.7422 234.687 89.1011V80.8473H227.424C223.048 80.8473 219.5 77.2998 219.5 72.9237Z" fill="#39281E"/>
<path d="M179 167.5C182.919 166.716 186 169.5 190 171H200C200 171 203.296 184.186 197.38 184.186C181 184.186 179 178.5 177 178C175 177.5 172 178.5 171.5 180C170.5 180 165 180 164.5 180C164.5 174.5 171.5 169 179 167.5Z" fill="#FE9C96"/>
<path d="M173.153 174.476C173.416 174.392 173.56 174.11 173.476 173.847C173.392 173.584 173.11 173.44 172.847 173.524L173.153 174.476ZM167.5 180C167.5 179.7 167.622 179.269 167.901 178.749C168.174 178.237 168.579 177.676 169.092 177.125C170.122 176.019 171.552 174.99 173.153 174.476L172.847 173.524C171.053 174.1 169.482 175.238 168.361 176.443C167.798 177.047 167.34 177.678 167.019 178.277C166.703 178.867 166.5 179.467 166.5 180H167.5Z" fill="#E28882"/>
<path d="M240.63 87.4504V95.0439V96.6947C243.711 96.6947 249.874 91.4122 249.874 87.4504C249.874 83.4886 246.793 82.168 244.738 82.168C241.315 82.168 240.63 84.1489 240.63 87.4504Z" fill="#FE9C96"/>
<path d="M260.439 110.562C273.315 110.562 287.512 117.825 287.512 140.936V184.186H192.758V164.046H217.189C220.16 159.094 219.806 148.859 221.481 140.275C226.763 113.203 247.563 110.562 260.439 110.562Z" fill="#2979FF"/>
<path d="M260.439 110.562C273.315 110.562 287.512 117.825 287.512 140.936V184.186H192.758V164.046H217.189C220.16 159.094 219.806 148.859 221.481 140.275C226.763 113.203 247.563 110.562 260.439 110.562Z" fill="url(#paint17_linear_28435_73310)" fill-opacity="0.2"/>
<path d="M247 161.5C247 145.208 260.208 132 276.5 132C292.792 132 306 145.208 306 161.5V184H247V161.5Z" fill="#D9D9D9"/>
<path d="M176.054 175.497C176.328 175.467 176.527 175.221 176.497 174.946C176.467 174.672 176.221 174.473 175.946 174.503L176.054 175.497ZM169.5 180C169.5 179.608 169.672 179.152 170.033 178.662C170.392 178.175 170.914 177.686 171.552 177.24C172.829 176.345 174.5 175.666 176.054 175.497L175.946 174.503C174.206 174.692 172.377 175.441 170.978 176.421C170.277 176.912 169.667 177.473 169.228 178.068C168.792 178.661 168.5 179.321 168.5 180H169.5Z" fill="#E28882"/>
</g>
<defs>
<filter id="filter0_d_28435_73310" x="257" y="8" width="66" height="50" filterUnits="userSpaceOnUse" color-interpolation-filters="sRGB">
<feFlood flood-opacity="0" result="BackgroundImageFix"/>
<feColorMatrix in="SourceAlpha" type="matrix" values="0 0 0 0 0 0 0 0 0 0 0 0 0 0 0 0 0 0 127 0" result="hardAlpha"/>
<feOffset dy="1"/>
<feGaussianBlur stdDeviation="0.5"/>
<feComposite in2="hardAlpha" operator="out"/>
<feColorMatrix type="matrix" values="0 0 0 0 0 0 0 0 0 0 0 0 0 0 0 0 0 0 0.16 0"/>
<feBlend mode="normal" in2="BackgroundImageFix" result="effect1_dropShadow_28435_73310"/>
<feBlend mode="normal" in="SourceGraphic" in2="effect1_dropShadow_28435_73310" result="shape"/>
</filter>
<filter id="filter1_d_28435_73310" x="257" y="8" width="66" height="33.2832" filterUnits="userSpaceOnUse" color-interpolation-filters="sRGB">
<feFlood flood-opacity="0" result="BackgroundImageFix"/>
<feColorMatrix in="SourceAlpha" type="matrix" values="0 0 0 0 0 0 0 0 0 0 0 0 0 0 0 0 0 0 127 0" result="hardAlpha"/>
<feOffset dy="1"/>
<feGaussianBlur stdDeviation="0.5"/>
<feComposite in2="hardAlpha" operator="out"/>
<feColorMatrix type="matrix" values="0 0 0 0 0 0 0 0 0 0 0 0 0 0 0 0 0 0 0.16 0"/>
<feBlend mode="normal" in2="BackgroundImageFix" result="effect1_dropShadow_28435_73310"/>
<feBlend mode="normal" in="SourceGraphic" in2="effect1_dropShadow_28435_73310" result="shape"/>
</filter>
<linearGradient id="paint0_linear_28435_73310" x1="345.666" y1="8.10317e-06" x2="-15.3985" y2="145.89" gradientUnits="userSpaceOnUse">
<stop stop-color="#F9F5EB"/>
<stop offset="0.5" stop-color="#D9ECEF"/>
<stop offset="1" stop-color="#C7D5F9"/>
</linearGradient>
<radialGradient id="paint1_radial_28435_73310" cx="0" cy="0" r="1" gradientUnits="userSpaceOnUse" gradientTransform="translate(45.5096 69.5264) rotate(90) scale(8.17241 8.15105)">
<stop stop-color="#73BCFF"/>
<stop offset="1" stop-color="#448AFF"/>
</radialGradient>
<radialGradient id="paint2_radial_28435_73310" cx="0" cy="0" r="1" gradientUnits="userSpaceOnUse" gradientTransform="translate(45.5096 86.8076) rotate(90) scale(8.17241 8.15105)">
<stop stop-color="#73BCFF"/>
<stop offset="1" stop-color="#448AFF"/>
</radialGradient>
<radialGradient id="paint3_radial_28435_73310" cx="0" cy="0" r="1" gradientUnits="userSpaceOnUse" gradientTransform="translate(45.5096 105.322) rotate(90) scale(8.17241 8.15105)">
<stop stop-color="#73BCFF"/>
<stop offset="1" stop-color="#448AFF"/>
</radialGradient>
<radialGradient id="paint4_radial_28435_73310" cx="0" cy="0" r="1" gradientUnits="userSpaceOnUse" gradientTransform="translate(45.5096 122.604) rotate(90) scale(8.17241 8.15105)">
<stop stop-color="#73BCFF"/>
<stop offset="1" stop-color="#448AFF"/>
</radialGradient>
<radialGradient id="paint5_radial_28435_73310" cx="0" cy="0" r="1" gradientUnits="userSpaceOnUse" gradientTransform="translate(45.5096 139.885) rotate(90) scale(8.17241 8.15105)">
<stop stop-color="#73BCFF"/>
<stop offset="1" stop-color="#448AFF"/>
</radialGradient>
<linearGradient id="paint6_linear_28435_73310" x1="140.126" y1="81.5" x2="140.126" y2="160.558" gradientUnits="userSpaceOnUse">
<stop stop-color="#EEF4FF"/>
<stop offset="1" stop-color="#F5F4EC"/>
</linearGradient>
<linearGradient id="paint7_linear_28435_73310" x1="206.124" y1="160.558" x2="63.952" y2="109.454" gradientUnits="userSpaceOnUse">
<stop stop-color="#F9F5EB"/>
<stop offset="0.5" stop-color="#D9ECEF"/>
<stop offset="1" stop-color="#C7D5F9"/>
</linearGradient>
<linearGradient id="paint8_linear_28435_73310" x1="141.126" y1="80.5" x2="141.126" y2="159.558" gradientUnits="userSpaceOnUse">
<stop stop-color="#EEF4FF"/>
<stop offset="1" stop-color="#F5F4EC"/>
</linearGradient>
<linearGradient id="paint9_linear_28435_73310" x1="207.124" y1="159.558" x2="64.952" y2="108.454" gradientUnits="userSpaceOnUse">
<stop stop-color="#F9F5EB"/>
<stop offset="0.5" stop-color="#D9ECEF"/>
<stop offset="1" stop-color="#C7D5F9"/>
</linearGradient>
<linearGradient id="paint10_linear_28435_73310" x1="141.126" y1="79.5" x2="141.126" y2="158.558" gradientUnits="userSpaceOnUse">
<stop stop-color="#EEF4FF"/>
<stop offset="1" stop-color="#F5F4EC"/>
</linearGradient>
<linearGradient id="paint11_linear_28435_73310" x1="207.124" y1="158.558" x2="64.952" y2="107.454" gradientUnits="userSpaceOnUse">
<stop stop-color="#F9F5EB"/>
<stop offset="0.5" stop-color="#D9ECEF"/>
<stop offset="1" stop-color="#C7D5F9"/>
</linearGradient>
<linearGradient id="paint12_linear_28435_73310" x1="142.126" y1="78.5" x2="142.126" y2="157.558" gradientUnits="userSpaceOnUse">
<stop stop-color="#EEF4FF"/>
<stop offset="1" stop-color="#F5F4EC"/>
</linearGradient>
<linearGradient id="paint13_linear_28435_73310" x1="208.124" y1="157.558" x2="65.952" y2="106.454" gradientUnits="userSpaceOnUse">
<stop stop-color="#F9F5EB"/>
<stop offset="0.5" stop-color="#D9ECEF"/>
<stop offset="1" stop-color="#C7D5F9"/>
</linearGradient>
<linearGradient id="paint14_linear_28435_73310" x1="7.64737" y1="0" x2="7.64737" y2="24.8592" gradientUnits="userSpaceOnUse">
<stop stop-color="#B5C7D8"/>
<stop offset="1" stop-color="#588FBC"/>
</linearGradient>
<linearGradient id="paint15_linear_28435_73310" x1="23.2269" y1="106.103" x2="23.2269" y2="136.268" gradientUnits="userSpaceOnUse">
<stop stop-color="#B5C7D8"/>
<stop offset="1" stop-color="#588FBC"/>
</linearGradient>
<linearGradient id="paint16_linear_28435_73310" x1="37.6946" y1="158.103" x2="37.6946" y2="183.854" gradientUnits="userSpaceOnUse">
<stop stop-color="#F9EFCC"/>
<stop offset="1" stop-color="#628AAB"/>
</linearGradient>
<linearGradient id="paint17_linear_28435_73310" x1="240.135" y1="110.562" x2="240.135" y2="184.186" gradientUnits="userSpaceOnUse">
<stop stop-color="white"/>
<stop offset="1" stop-color="white" stop-opacity="0"/>
</linearGradient>
<clipPath id="clip0_28435_73310">
<path d="M0 8C0 3.58172 3.58172 0 8 0H338C342.418 0 346 3.58172 346 8V176C346 180.418 342.418 184 338 184H8.00001C3.58173 184 0 180.418 0 176V8Z" fill="white"/>
</clipPath>
<clipPath id="clip1_28435_73310">
<rect width="57.7366" height="19.069" fill="white" transform="translate(95.4161 13)"/>
</clipPath>
</defs>
</svg>
