<svg width="346" height="184" viewBox="0 0 346 184" fill="none" xmlns="http://www.w3.org/2000/svg">
<g clip-path="url(#clip0_28440_109998)">
<path d="M0 8C0 3.58172 3.58172 0 8 0H338C342.418 0 346 3.58172 346 8V176C346 180.418 342.418 184 338 184H8.00001C3.58173 184 0 180.418 0 176V8Z" fill="url(#paint0_linear_28440_109998)"/>
<path d="M56 17C56 14.7909 57.7909 13 60 13H286C288.209 13 290 14.7909 290 17V184H56V17Z" fill="white"/>
<mask id="path-3-inside-1_28440_109998" fill="white">
<path d="M113 32H290V50H113V32Z"/>
</mask>
<path d="M113 32H290V50H113V32Z" fill="white"/>
<path d="M290 49H113V51H290V49Z" fill="black" fill-opacity="0.08" mask="url(#path-3-inside-1_28440_109998)"/>
<rect x="132.019" y="38.2305" width="32.6042" height="5.53846" rx="2" fill="#F0F0F0"/>
<path fill-rule="evenodd" clip-rule="evenodd" d="M125.094 37C126.25 37 127 37.75 127 38.9062V43.0938C127 44.25 126.25 45 125.094 45H120.906C119.75 45 119 44.25 119 43.0938V38.9062C119 37.75 119.75 37 120.906 37H125.094Z" fill="url(#paint1_radial_28440_109998)"/>
<circle cx="174" cy="41" r="4" fill="#F0483F"/>
<rect x="173.556" y="38.333" width="0.888889" height="3.55556" rx="0.444444" fill="white"/>
<circle cx="174" cy="43.2218" r="0.444444" fill="white"/>
<mask id="path-10-inside-2_28440_109998" fill="white">
<path d="M56 13H290V32.3103H56V13Z"/>
</mask>
<path d="M290 31.3103H56V33.3103H290V31.3103Z" fill="black" fill-opacity="0.16" mask="url(#path-10-inside-2_28440_109998)"/>
<rect x="73" y="20" width="66" height="4" rx="2" fill="#D6D6D6"/>
<path fill-rule="evenodd" clip-rule="evenodd" d="M68.0938 18C69.25 18 70 18.75 70 19.9062V24.0938C70 25.25 69.25 26 68.0938 26H63.9062C62.75 26 62 25.25 62 24.0938V19.9062C62 18.75 62.75 18 63.9062 18H68.0938Z" fill="url(#paint2_radial_28440_109998)"/>
<path fill-rule="evenodd" clip-rule="evenodd" d="M68.0938 18C69.25 18 70 18.75 70 19.9062V24.0938C70 25.25 69.25 26 68.0938 26H63.9062C62.75 26 62 25.25 62 24.0938V19.9062C62 18.75 62.75 18 63.9062 18H68.0938Z" fill="#D6D6D6"/>
<mask id="path-14-outside-3_28440_109998" maskUnits="userSpaceOnUse" x="56" y="32" width="58" height="159" fill="black">
<rect fill="white" x="56" y="32" width="58" height="159"/>
<path d="M56 32H113V191H56V32Z"/>
</mask>
<path d="M112 32V191H114V32H112Z" fill="#EBEBEB" mask="url(#path-14-outside-3_28440_109998)"/>
<rect x="61" y="37" width="46" height="5" rx="2" fill="#F0F0F0"/>
<mask id="path-17-inside-4_28440_109998" fill="white">
<path d="M56 47H113V65H56V47Z"/>
</mask>
<path d="M56 47H113V65H56V47Z" fill="white"/>
<path d="M113 64H56V66H113V64Z" fill="black" fill-opacity="0.08" mask="url(#path-17-inside-4_28440_109998)"/>
<rect x="57" y="49" width="55" height="14" rx="2" fill="#DDEAFF"/>
<rect x="75.0192" y="53.2305" width="32.6042" height="5.53846" rx="2" fill="black" fill-opacity="0.16"/>
<path fill-rule="evenodd" clip-rule="evenodd" d="M68.0938 52C69.25 52 70 52.75 70 53.9062V58.0938C70 59.25 69.25 60 68.0938 60H63.9062C62.75 60 62 59.25 62 58.0938V53.9062C62 52.75 62.75 52 63.9062 52H68.0938Z" fill="url(#paint3_radial_28440_109998)"/>
<mask id="path-22-inside-5_28440_109998" fill="white">
<path d="M56 65H113V83H56V65Z"/>
</mask>
<path d="M56 65H113V83H56V65Z" fill="white"/>
<path d="M113 82H56V84H113V82Z" fill="black" fill-opacity="0.08" mask="url(#path-22-inside-5_28440_109998)"/>
<rect x="75.0192" y="71.2305" width="32.6042" height="5.53846" rx="2" fill="#F0F0F0"/>
<path fill-rule="evenodd" clip-rule="evenodd" d="M68.0938 70C69.25 70 70 70.75 70 71.9062V76.0938C70 77.25 69.25 78 68.0938 78H63.9062C62.75 78 62 77.25 62 76.0938V71.9062C62 70.75 62.75 70 63.9062 70H68.0938Z" fill="url(#paint4_radial_28440_109998)"/>
<path fill-rule="evenodd" clip-rule="evenodd" d="M68.0938 70C69.25 70 70 70.75 70 71.9062V76.0938C70 77.25 69.25 78 68.0938 78H63.9062C62.75 78 62 77.25 62 76.0938V71.9062C62 70.75 62.75 70 63.9062 70H68.0938Z" fill="#D6D6D6"/>
<mask id="path-26-inside-6_28440_109998" fill="white">
<path d="M56 83H113V101H56V83Z"/>
</mask>
<path d="M56 83H113V101H56V83Z" fill="white"/>
<path d="M113 100H56V102H113V100Z" fill="black" fill-opacity="0.08" mask="url(#path-26-inside-6_28440_109998)"/>
<rect x="75.0192" y="89.2305" width="32.6042" height="5.53846" rx="2" fill="#F0F0F0"/>
<path fill-rule="evenodd" clip-rule="evenodd" d="M68.0938 88C69.25 88 70 88.75 70 89.9062V94.0938C70 95.25 69.25 96 68.0938 96H63.9062C62.75 96 62 95.25 62 94.0938V89.9062C62 88.75 62.75 88 63.9062 88H68.0938Z" fill="url(#paint5_radial_28440_109998)"/>
<path fill-rule="evenodd" clip-rule="evenodd" d="M68.0938 88C69.25 88 70 88.75 70 89.9062V94.0938C70 95.25 69.25 96 68.0938 96H63.9062C62.75 96 62 95.25 62 94.0938V89.9062C62 88.75 62.75 88 63.9062 88H68.0938Z" fill="#D6D6D6"/>
<mask id="path-30-inside-7_28440_109998" fill="white">
<path d="M56 101H113V119H56V101Z"/>
</mask>
<path d="M56 101H113V119H56V101Z" fill="white"/>
<path d="M113 118H56V120H113V118Z" fill="black" fill-opacity="0.08" mask="url(#path-30-inside-7_28440_109998)"/>
<rect x="75.0192" y="107.23" width="32.6042" height="5.53846" rx="2" fill="#F0F0F0"/>
<path fill-rule="evenodd" clip-rule="evenodd" d="M68.0938 106C69.25 106 70 106.75 70 107.906V112.094C70 113.25 69.25 114 68.0938 114H63.9062C62.75 114 62 113.25 62 112.094V107.906C62 106.75 62.75 106 63.9062 106H68.0938Z" fill="url(#paint6_radial_28440_109998)"/>
<path fill-rule="evenodd" clip-rule="evenodd" d="M68.0938 106C69.25 106 70 106.75 70 107.906V112.094C70 113.25 69.25 114 68.0938 114H63.9062C62.75 114 62 113.25 62 112.094V107.906C62 106.75 62.75 106 63.9062 106H68.0938Z" fill="#D6D6D6"/>
<mask id="path-34-inside-8_28440_109998" fill="white">
<path d="M56 101H113V119H56V101Z"/>
</mask>
<path d="M56 101H113V119H56V101Z" fill="white"/>
<path d="M113 118H56V120H113V118Z" fill="black" fill-opacity="0.08" mask="url(#path-34-inside-8_28440_109998)"/>
<rect x="75.0192" y="107.23" width="32.6042" height="5.53846" rx="2" fill="#F0F0F0"/>
<path fill-rule="evenodd" clip-rule="evenodd" d="M68.0938 106C69.25 106 70 106.75 70 107.906V112.094C70 113.25 69.25 114 68.0938 114H63.9062C62.75 114 62 113.25 62 112.094V107.906C62 106.75 62.75 106 63.9062 106H68.0938Z" fill="url(#paint7_radial_28440_109998)"/>
<path fill-rule="evenodd" clip-rule="evenodd" d="M68.0938 106C69.25 106 70 106.75 70 107.906V112.094C70 113.25 69.25 114 68.0938 114H63.9062C62.75 114 62 113.25 62 112.094V107.906C62 106.75 62.75 106 63.9062 106H68.0938Z" fill="#D6D6D6"/>
<mask id="path-38-inside-9_28440_109998" fill="white">
<path d="M56 119H113V137H56V119Z"/>
</mask>
<path d="M56 119H113V137H56V119Z" fill="white"/>
<path d="M113 136H56V138H113V136Z" fill="black" fill-opacity="0.08" mask="url(#path-38-inside-9_28440_109998)"/>
<rect x="75.0192" y="125.23" width="32.6042" height="5.53846" rx="2" fill="#F0F0F0"/>
<path fill-rule="evenodd" clip-rule="evenodd" d="M68.0938 124C69.25 124 70 124.75 70 125.906V130.094C70 131.25 69.25 132 68.0938 132H63.9062C62.75 132 62 131.25 62 130.094V125.906C62 124.75 62.75 124 63.9062 124H68.0938Z" fill="url(#paint8_radial_28440_109998)"/>
<path fill-rule="evenodd" clip-rule="evenodd" d="M68.0938 124C69.25 124 70 124.75 70 125.906V130.094C70 131.25 69.25 132 68.0938 132H63.9062C62.75 132 62 131.25 62 130.094V125.906C62 124.75 62.75 124 63.9062 124H68.0938Z" fill="#D6D6D6"/>
<mask id="path-42-inside-10_28440_109998" fill="white">
<path d="M56 119H113V137H56V119Z"/>
</mask>
<path d="M56 119H113V137H56V119Z" fill="white"/>
<path d="M113 136H56V138H113V136Z" fill="black" fill-opacity="0.08" mask="url(#path-42-inside-10_28440_109998)"/>
<rect x="75.0192" y="125.23" width="32.6042" height="5.53846" rx="2" fill="#F0F0F0"/>
<path fill-rule="evenodd" clip-rule="evenodd" d="M68.0938 124C69.25 124 70 124.75 70 125.906V130.094C70 131.25 69.25 132 68.0938 132H63.9062C62.75 132 62 131.25 62 130.094V125.906C62 124.75 62.75 124 63.9062 124H68.0938Z" fill="url(#paint9_radial_28440_109998)"/>
<path fill-rule="evenodd" clip-rule="evenodd" d="M68.0938 124C69.25 124 70 124.75 70 125.906V130.094C70 131.25 69.25 132 68.0938 132H63.9062C62.75 132 62 131.25 62 130.094V125.906C62 124.75 62.75 124 63.9062 124H68.0938Z" fill="#D6D6D6"/>
<mask id="path-46-inside-11_28440_109998" fill="white">
<path d="M56 137H113V155H56V137Z"/>
</mask>
<path d="M56 137H113V155H56V137Z" fill="white"/>
<path d="M113 154H56V156H113V154Z" fill="black" fill-opacity="0.08" mask="url(#path-46-inside-11_28440_109998)"/>
<rect x="75.0192" y="143.23" width="32.6042" height="5.53846" rx="2" fill="#F0F0F0"/>
<path fill-rule="evenodd" clip-rule="evenodd" d="M68.0938 142C69.25 142 70 142.75 70 143.906V148.094C70 149.25 69.25 150 68.0938 150H63.9062C62.75 150 62 149.25 62 148.094V143.906C62 142.75 62.75 142 63.9062 142H68.0938Z" fill="url(#paint10_radial_28440_109998)"/>
<path fill-rule="evenodd" clip-rule="evenodd" d="M68.0938 142C69.25 142 70 142.75 70 143.906V148.094C70 149.25 69.25 150 68.0938 150H63.9062C62.75 150 62 149.25 62 148.094V143.906C62 142.75 62.75 142 63.9062 142H68.0938Z" fill="#D6D6D6"/>
<mask id="path-50-inside-12_28440_109998" fill="white">
<path d="M56 155H113V173H56V155Z"/>
</mask>
<path d="M56 155H113V173H56V155Z" fill="white"/>
<path d="M113 172H56V174H113V172Z" fill="black" fill-opacity="0.08" mask="url(#path-50-inside-12_28440_109998)"/>
<rect x="75.0192" y="161.23" width="32.6042" height="5.53846" rx="2" fill="#F0F0F0"/>
<path fill-rule="evenodd" clip-rule="evenodd" d="M68.0938 160C69.25 160 70 160.75 70 161.906V166.094C70 167.25 69.25 168 68.0938 168H63.9062C62.75 168 62 167.25 62 166.094V161.906C62 160.75 62.75 160 63.9062 160H68.0938Z" fill="url(#paint11_radial_28440_109998)"/>
<path fill-rule="evenodd" clip-rule="evenodd" d="M68.0938 160C69.25 160 70 160.75 70 161.906V166.094C70 167.25 69.25 168 68.0938 168H63.9062C62.75 168 62 167.25 62 166.094V161.906C62 160.75 62.75 160 63.9062 160H68.0938Z" fill="#D6D6D6"/>
<mask id="path-54-inside-13_28440_109998" fill="white">
<path d="M56 173H113V191H56V173Z"/>
</mask>
<path d="M56 173H113V191H56V173Z" fill="white"/>
<path d="M113 190H56V192H113V190Z" fill="black" fill-opacity="0.08" mask="url(#path-54-inside-13_28440_109998)"/>
<rect x="75.0192" y="179.23" width="32.6042" height="5.53846" rx="2" fill="#F0F0F0"/>
<path fill-rule="evenodd" clip-rule="evenodd" d="M68.0938 178C69.25 178 70 178.75 70 179.906V184.094C70 185.25 69.25 186 68.0938 186H63.9062C62.75 186 62 185.25 62 184.094V179.906C62 178.75 62.75 178 63.9062 178H68.0938Z" fill="url(#paint12_radial_28440_109998)"/>
<path fill-rule="evenodd" clip-rule="evenodd" d="M68.0938 178C69.25 178 70 178.75 70 179.906V184.094C70 185.25 69.25 186 68.0938 186H63.9062C62.75 186 62 185.25 62 184.094V179.906C62 178.75 62.75 178 63.9062 178H68.0938Z" fill="#D6D6D6"/>
<rect x="119" y="117" width="26" height="26" rx="13" fill="white"/>
<rect x="119.5" y="117.5" width="25" height="25" rx="12.5" stroke="black" stroke-opacity="0.12"/>
<rect x="119" y="58" width="124" height="6" rx="2" fill="#F0F0F0"/>
<rect x="151" y="90" width="84" height="6" rx="2" fill="#F0F0F0"/>
<rect x="151" y="123" width="84" height="6" rx="2" fill="#F0F0F0"/>
<rect x="151" y="156" width="84" height="6" rx="2" fill="#F0F0F0"/>
<rect x="119" y="68" width="93" height="6" rx="2" fill="#F0F0F0"/>
<rect x="151" y="100" width="61" height="6" rx="2" fill="#F0F0F0"/>
<rect x="151" y="133" width="61" height="6" rx="2" fill="#F0F0F0"/>
<rect x="151" y="166" width="61" height="6" rx="2" fill="#F0F0F0"/>
<rect x="119" y="89.3945" width="26" height="17.2113" rx="1" fill="#7391B7"/>
<path d="M122.911 99.4648H128.521" stroke="#B6D0F1" stroke-linecap="round"/>
<path d="M122.74 102.186H126.311" stroke="#B6D0F1" stroke-linecap="round"/>
<path fill-rule="evenodd" clip-rule="evenodd" d="M138.479 101.671C138.479 101.038 138.991 100.525 139.624 100.525C140.257 100.525 140.769 101.038 140.769 101.671C140.769 102.303 140.257 102.816 139.624 102.816C138.991 102.816 138.479 102.303 138.479 101.671ZM137.734 100.655C137.571 100.957 137.479 101.303 137.479 101.671C137.479 102.038 137.571 102.384 137.734 102.687C137.576 102.77 137.395 102.816 137.204 102.816C136.572 102.816 136.059 102.304 136.059 101.671C136.059 101.038 136.572 100.526 137.204 100.526C137.395 100.526 137.575 100.572 137.734 100.655ZM138.414 99.8989C138.07 99.6634 137.653 99.5256 137.204 99.5256C136.019 99.5256 135.059 100.486 135.059 101.671C135.059 102.856 136.019 103.816 137.204 103.816C137.653 103.816 138.07 103.679 138.414 103.443C138.759 103.679 139.175 103.816 139.624 103.816C140.809 103.816 141.769 102.856 141.769 101.671C141.769 100.486 140.809 99.5254 139.624 99.5254C139.175 99.5254 138.758 99.6632 138.414 99.8989Z" fill="#B6D0F1"/>
<path fill-rule="evenodd" clip-rule="evenodd" d="M121.93 93.873L121.93 93.8631L121.93 94.0966L123.27 94.0966V95.6774L121.93 95.6774L121.93 95.9111C121.93 95.9078 121.93 95.9045 121.93 95.9012V93.873ZM121.93 95.9274C121.944 96.4676 122.386 96.9012 122.93 96.9012H123.27V95.9274L121.93 95.9274ZM123.27 93.8466L121.93 93.8466C121.944 93.3065 122.386 92.873 122.93 92.873H123.27V93.8466ZM123.52 96.9012V92.873H125.101V96.9012H123.52ZM125.351 96.9012H125.69C126.234 96.9012 126.676 96.4676 126.69 95.9274L125.351 95.9274V96.9012ZM125.351 95.6774V94.0966L126.69 94.0966V93.865L126.69 93.873V95.9012L126.69 95.9093V95.6774L125.351 95.6774ZM125.351 93.8466L126.69 93.8466C126.676 93.3065 126.234 92.873 125.69 92.873H125.351V93.8466Z" fill="url(#paint13_linear_28440_109998)"/>
<rect x="119" y="89.3945" width="26" height="17.2113" rx="1" fill="url(#paint14_linear_28440_109998)" fill-opacity="0.5"/>
<mask id="path-74-outside-14_28440_109998" maskUnits="userSpaceOnUse" x="123.292" y="121.43" width="11" height="19" fill="black">
<rect fill="white" x="123.292" y="121.43" width="11" height="19"/>
<path fill-rule="evenodd" clip-rule="evenodd" d="M133.276 126.922C133.276 129.025 131.83 130.791 129.878 131.279L130.634 132.035C131.415 132.816 131.415 134.082 130.634 134.863L129.907 135.59L130.153 135.835C130.889 136.572 130.889 137.766 130.153 138.503C129.416 139.239 128.222 139.239 127.486 138.503L127.205 138.222V131.128C125.503 130.489 124.292 128.847 124.292 126.922C124.292 124.441 126.303 122.43 128.784 122.43C131.265 122.43 133.276 124.441 133.276 126.922ZM128.784 126.641C129.482 126.641 130.047 126.075 130.047 125.377C130.047 124.68 129.482 124.114 128.784 124.114C128.086 124.114 127.521 124.68 127.521 125.377C127.521 126.075 128.086 126.641 128.784 126.641Z"/>
</mask>
<path fill-rule="evenodd" clip-rule="evenodd" d="M133.276 126.922C133.276 129.025 131.83 130.791 129.878 131.279L130.634 132.035C131.415 132.816 131.415 134.082 130.634 134.863L129.907 135.59L130.153 135.835C130.889 136.572 130.889 137.766 130.153 138.503C129.416 139.239 128.222 139.239 127.486 138.503L127.205 138.222V131.128C125.503 130.489 124.292 128.847 124.292 126.922C124.292 124.441 126.303 122.43 128.784 122.43C131.265 122.43 133.276 124.441 133.276 126.922ZM128.784 126.641C129.482 126.641 130.047 126.075 130.047 125.377C130.047 124.68 129.482 124.114 128.784 124.114C128.086 124.114 127.521 124.68 127.521 125.377C127.521 126.075 128.086 126.641 128.784 126.641Z" fill="#FFC509"/>
<path d="M129.878 131.279L129.635 130.309L127.923 130.738L129.171 131.987L129.878 131.279ZM130.634 132.035L129.926 132.742H129.926L130.634 132.035ZM130.634 134.863L129.926 134.156H129.926L130.634 134.863ZM129.907 135.59L129.2 134.883L128.493 135.59L129.2 136.297L129.907 135.59ZM130.153 135.835L130.86 135.128L130.86 135.128L130.153 135.835ZM130.153 138.503L130.86 139.21L130.86 139.21L130.153 138.503ZM127.486 138.503L128.193 137.795L128.193 137.795L127.486 138.503ZM127.205 138.222H126.205V138.636L126.498 138.929L127.205 138.222ZM127.205 131.128H128.205V130.436L127.556 130.192L127.205 131.128ZM130.121 132.25C132.508 131.652 134.276 129.495 134.276 126.922H132.276C132.276 128.556 131.153 129.93 129.635 130.309L130.121 132.25ZM131.341 131.328L130.585 130.572L129.171 131.987L129.926 132.742L131.341 131.328ZM131.341 135.57C132.512 134.399 132.512 132.499 131.341 131.328L129.926 132.742C130.317 133.132 130.317 133.766 129.926 134.156L131.341 135.57ZM130.614 136.297L131.341 135.57L129.926 134.156L129.2 134.883L130.614 136.297ZM130.86 135.128L130.614 134.883L129.2 136.297L129.446 136.543L130.86 135.128ZM130.86 139.21C131.987 138.083 131.987 136.255 130.86 135.128L129.446 136.543C129.792 136.889 129.792 137.449 129.446 137.795L130.86 139.21ZM126.779 139.21C127.906 140.337 129.733 140.337 130.86 139.21L129.446 137.795C129.1 138.141 128.539 138.141 128.193 137.795L126.779 139.21ZM126.498 138.929L126.779 139.21L128.193 137.795L127.912 137.515L126.498 138.929ZM126.205 131.128V138.222H128.205V131.128H126.205ZM123.292 126.922C123.292 129.277 124.774 131.283 126.853 132.064L127.556 130.192C126.232 129.695 125.292 128.417 125.292 126.922H123.292ZM128.784 121.43C125.751 121.43 123.292 123.889 123.292 126.922H125.292C125.292 124.993 126.856 123.43 128.784 123.43V121.43ZM134.276 126.922C134.276 123.889 131.817 121.43 128.784 121.43V123.43C130.713 123.43 132.276 124.993 132.276 126.922H134.276ZM129.047 125.377C129.047 125.523 128.93 125.641 128.784 125.641V127.641C130.034 127.641 131.047 126.627 131.047 125.377H129.047ZM128.784 125.114C128.93 125.114 129.047 125.232 129.047 125.377H131.047C131.047 124.127 130.034 123.114 128.784 123.114V125.114ZM128.521 125.377C128.521 125.232 128.639 125.114 128.784 125.114V123.114C127.534 123.114 126.521 124.127 126.521 125.377H128.521ZM128.784 125.641C128.639 125.641 128.521 125.523 128.521 125.377H126.521C126.521 126.627 127.534 127.641 128.784 127.641V125.641Z" fill="white" mask="url(#path-74-outside-14_28440_109998)"/>
<mask id="path-76-outside-15_28440_109998" maskUnits="userSpaceOnUse" x="126.38" y="121.43" width="11" height="19" fill="black">
<rect fill="white" x="126.38" y="121.43" width="11" height="19"/>
<path fill-rule="evenodd" clip-rule="evenodd" d="M136.364 126.922C136.364 129.025 134.919 130.791 132.967 131.279L133.722 132.035C134.503 132.816 134.503 134.082 133.722 134.863L132.995 135.59L133.241 135.835C133.978 136.572 133.978 137.766 133.241 138.503C132.504 139.239 131.31 139.239 130.574 138.503L130.293 138.222V131.128C128.591 130.489 127.38 128.847 127.38 126.922C127.38 124.441 129.392 122.43 131.872 122.43C134.353 122.43 136.364 124.441 136.364 126.922ZM131.872 126.641C132.57 126.641 133.136 126.075 133.136 125.377C133.136 124.68 132.57 124.114 131.872 124.114C131.175 124.114 130.609 124.68 130.609 125.377C130.609 126.075 131.175 126.641 131.872 126.641Z"/>
</mask>
<path fill-rule="evenodd" clip-rule="evenodd" d="M136.364 126.922C136.364 129.025 134.919 130.791 132.967 131.279L133.722 132.035C134.503 132.816 134.503 134.082 133.722 134.863L132.995 135.59L133.241 135.835C133.978 136.572 133.978 137.766 133.241 138.503C132.504 139.239 131.31 139.239 130.574 138.503L130.293 138.222V131.128C128.591 130.489 127.38 128.847 127.38 126.922C127.38 124.441 129.392 122.43 131.872 122.43C134.353 122.43 136.364 124.441 136.364 126.922ZM131.872 126.641C132.57 126.641 133.136 126.075 133.136 125.377C133.136 124.68 132.57 124.114 131.872 124.114C131.175 124.114 130.609 124.68 130.609 125.377C130.609 126.075 131.175 126.641 131.872 126.641Z" fill="#FF8844"/>
<path d="M132.967 131.279L132.724 130.309L131.011 130.738L132.259 131.987L132.967 131.279ZM133.722 132.035L133.015 132.742L133.015 132.742L133.722 132.035ZM133.722 134.863L133.015 134.156L133.015 134.156L133.722 134.863ZM132.995 135.59L132.288 134.883L131.581 135.59L132.288 136.297L132.995 135.59ZM133.241 135.835L133.948 135.128L133.948 135.128L133.241 135.835ZM133.241 138.503L133.948 139.21L133.948 139.21L133.241 138.503ZM130.574 138.503L131.281 137.795L131.281 137.795L130.574 138.503ZM130.293 138.222H129.293V138.636L129.586 138.929L130.293 138.222ZM130.293 131.128H131.293V130.436L130.645 130.192L130.293 131.128ZM133.209 132.25C135.596 131.652 137.364 129.495 137.364 126.922H135.364C135.364 128.556 134.241 129.93 132.724 130.309L133.209 132.25ZM134.429 131.328L133.674 130.572L132.259 131.987L133.015 132.742L134.429 131.328ZM134.429 135.57C135.601 134.399 135.601 132.499 134.429 131.328L133.015 132.742C133.405 133.132 133.405 133.766 133.015 134.156L134.429 135.57ZM133.702 136.297L134.429 135.57L133.015 134.156L132.288 134.883L133.702 136.297ZM133.948 135.128L133.702 134.883L132.288 136.297L132.534 136.543L133.948 135.128ZM133.948 139.21C135.075 138.083 135.075 136.255 133.948 135.128L132.534 136.543C132.88 136.889 132.88 137.449 132.534 137.795L133.948 139.21ZM129.867 139.21C130.994 140.337 132.821 140.337 133.948 139.21L132.534 137.795C132.188 138.141 131.627 138.141 131.281 137.795L129.867 139.21ZM129.586 138.929L129.867 139.21L131.281 137.795L131 137.515L129.586 138.929ZM129.293 131.128V138.222H131.293V131.128H129.293ZM126.38 126.922C126.38 129.277 127.862 131.283 129.942 132.064L130.645 130.192C129.32 129.695 128.38 128.417 128.38 126.922H126.38ZM131.872 121.43C128.839 121.43 126.38 123.889 126.38 126.922H128.38C128.38 124.993 129.944 123.43 131.872 123.43V121.43ZM137.364 126.922C137.364 123.889 134.906 121.43 131.872 121.43V123.43C133.801 123.43 135.364 124.993 135.364 126.922H137.364ZM132.136 125.377C132.136 125.523 132.018 125.641 131.872 125.641V127.641C133.122 127.641 134.136 126.627 134.136 125.377H132.136ZM131.872 125.114C132.018 125.114 132.136 125.232 132.136 125.377H134.136C134.136 124.127 133.122 123.114 131.872 123.114V125.114ZM131.609 125.377C131.609 125.232 131.727 125.114 131.872 125.114V123.114C130.622 123.114 129.609 124.127 129.609 125.377H131.609ZM131.872 125.641C131.727 125.641 131.609 125.523 131.609 125.377H129.609C129.609 126.627 130.622 127.641 131.872 127.641V125.641Z" fill="white" mask="url(#path-76-outside-15_28440_109998)"/>
<mask id="path-78-outside-16_28440_109998" maskUnits="userSpaceOnUse" x="129.469" y="121.43" width="11" height="19" fill="black">
<rect fill="white" x="129.469" y="121.43" width="11" height="19"/>
<path fill-rule="evenodd" clip-rule="evenodd" d="M139.453 126.922C139.453 129.025 138.007 130.791 136.055 131.279L136.81 132.035C137.591 132.816 137.591 134.082 136.81 134.863L136.084 135.59L136.329 135.835C137.066 136.572 137.066 137.766 136.329 138.503C135.593 139.239 134.399 139.239 133.662 138.503L133.381 138.222V131.128C131.68 130.489 130.469 128.847 130.469 126.922C130.469 124.441 132.48 122.43 134.961 122.43C137.441 122.43 139.453 124.441 139.453 126.922ZM134.961 126.641C135.658 126.641 136.224 126.075 136.224 125.377C136.224 124.68 135.658 124.114 134.961 124.114C134.263 124.114 133.697 124.68 133.697 125.377C133.697 126.075 134.263 126.641 134.961 126.641Z"/>
</mask>
<path fill-rule="evenodd" clip-rule="evenodd" d="M139.453 126.922C139.453 129.025 138.007 130.791 136.055 131.279L136.81 132.035C137.591 132.816 137.591 134.082 136.81 134.863L136.084 135.59L136.329 135.835C137.066 136.572 137.066 137.766 136.329 138.503C135.593 139.239 134.399 139.239 133.662 138.503L133.381 138.222V131.128C131.68 130.489 130.469 128.847 130.469 126.922C130.469 124.441 132.48 122.43 134.961 122.43C137.441 122.43 139.453 124.441 139.453 126.922ZM134.961 126.641C135.658 126.641 136.224 126.075 136.224 125.377C136.224 124.68 135.658 124.114 134.961 124.114C134.263 124.114 133.697 124.68 133.697 125.377C133.697 126.075 134.263 126.641 134.961 126.641Z" fill="#2979FF"/>
<path d="M136.055 131.279L135.812 130.309L134.099 130.738L135.348 131.987L136.055 131.279ZM136.81 132.035L136.103 132.742L136.81 132.035ZM136.81 134.863L136.103 134.156H136.103L136.81 134.863ZM136.084 135.59L135.377 134.883L134.669 135.59L135.377 136.297L136.084 135.59ZM136.329 135.835L137.036 135.128L137.036 135.128L136.329 135.835ZM136.329 138.503L137.036 139.21L137.036 139.21L136.329 138.503ZM133.662 138.503L134.369 137.795L134.369 137.795L133.662 138.503ZM133.381 138.222H132.381V138.636L132.674 138.929L133.381 138.222ZM133.381 131.128H134.381V130.436L133.733 130.192L133.381 131.128ZM136.298 132.25C138.684 131.652 140.453 129.495 140.453 126.922H138.453C138.453 128.556 137.33 129.93 135.812 130.309L136.298 132.25ZM137.517 131.328L136.762 130.572L135.348 131.987L136.103 132.742L137.517 131.328ZM137.517 135.57C138.689 134.399 138.689 132.499 137.517 131.328L136.103 132.742C136.494 133.132 136.494 133.766 136.103 134.156L137.517 135.57ZM136.791 136.297L137.517 135.57L136.103 134.156L135.377 134.883L136.791 136.297ZM137.036 135.128L136.791 134.883L135.377 136.297L135.622 136.543L137.036 135.128ZM137.036 139.21C138.163 138.083 138.163 136.255 137.036 135.128L135.622 136.543C135.968 136.889 135.968 137.449 135.622 137.795L137.036 139.21ZM132.955 139.21C134.082 140.337 135.909 140.337 137.036 139.21L135.622 137.795C135.276 138.141 134.715 138.141 134.369 137.795L132.955 139.21ZM132.674 138.929L132.955 139.21L134.369 137.795L134.089 137.515L132.674 138.929ZM132.381 131.128V138.222H134.381V131.128H132.381ZM129.469 126.922C129.469 129.277 130.951 131.284 133.03 132.064L133.733 130.192C132.409 129.695 131.469 128.417 131.469 126.922H129.469ZM134.961 121.43C131.927 121.43 129.469 123.889 129.469 126.922H131.469C131.469 124.993 133.032 123.43 134.961 123.43V121.43ZM140.453 126.922C140.453 123.889 137.994 121.43 134.961 121.43V123.43C136.889 123.43 138.453 124.993 138.453 126.922H140.453ZM135.224 125.377C135.224 125.523 135.106 125.641 134.961 125.641V127.641C136.211 127.641 137.224 126.627 137.224 125.377H135.224ZM134.961 125.114C135.106 125.114 135.224 125.232 135.224 125.377H137.224C137.224 124.127 136.211 123.114 134.961 123.114V125.114ZM134.697 125.377C134.697 125.232 134.815 125.114 134.961 125.114V123.114C133.711 123.114 132.697 124.127 132.697 125.377H134.697ZM134.961 125.641C134.815 125.641 134.697 125.523 134.697 125.377H132.697C132.697 126.627 133.711 127.641 134.961 127.641V125.641Z" fill="white" mask="url(#path-78-outside-16_28440_109998)"/>
<rect x="119.25" y="155.25" width="25.5" height="17.5" rx="0.75" fill="#DFDFDF" stroke="#737373" stroke-width="0.5"/>
<path opacity="0.3" d="M128.868 164L135.131 164" stroke="#737373" stroke-linecap="round"/>
<path opacity="0.3" d="M129.818 166.755H133.993" stroke="#737373" stroke-linecap="round"/>
<path d="M120.682 169.425C120.658 169.442 120.64 169.835 120.64 170.29C120.64 170.38 120.64 170.462 120.639 170.538C120.635 170.91 120.633 171.119 120.739 171.235C120.874 171.383 121.184 171.382 121.888 171.379C122.001 171.378 122.123 171.378 122.257 171.378C123.039 171.378 123.683 171.366 123.683 171.355C123.683 171.287 123.003 169.516 122.949 169.454C122.907 169.402 122.603 169.385 121.804 169.385C121.207 169.385 120.7 169.402 120.682 169.425Z" fill="#737373"/>
<path d="M127.799 158.131C127.656 158.165 127.632 158.142 127.668 157.972C127.703 157.795 127.763 157.789 127.847 157.966C127.9 158.08 127.894 158.108 127.799 158.131Z" fill="#737373"/>
<path d="M137.803 157.983C137.767 158.165 137.797 158.228 137.91 158.228C138.059 158.228 138.131 158.023 138.023 157.92C137.892 157.789 137.838 157.806 137.803 157.983Z" fill="#737373"/>
<path d="M123.772 158.968C123.641 158.825 123.581 158.376 123.683 158.256C123.725 158.211 123.82 158.171 123.904 158.171C124.071 158.171 124.22 158.444 124.22 158.757C124.22 159.076 123.981 159.19 123.772 158.968Z" fill="#737373"/>
<path fill-rule="evenodd" clip-rule="evenodd" d="M120.652 158.831C120.641 157.175 120.652 156.884 120.73 156.765L120.819 156.634H131.986C142.289 156.634 143.159 156.639 143.261 156.731C143.362 156.816 143.368 156.958 143.368 158.808V160.789H142.086C140.684 160.789 140.547 160.812 140.254 161.108C140.046 161.319 139.968 161.529 139.968 161.86C139.968 162.417 140.386 162.844 140.976 162.884C141.227 162.901 141.376 162.879 141.525 162.81C141.972 162.594 142.104 162.361 141.895 162.144C141.764 162.008 141.68 162.013 141.465 162.19C141.191 162.412 140.899 162.4 140.678 162.167C140.493 161.968 140.469 161.843 140.571 161.621C140.702 161.342 140.923 161.302 142.199 161.302H143.368V169.044H141.042V163.425L140.797 163.385C140.016 163.266 139.431 162.605 139.431 161.837C139.431 161.342 139.7 160.852 140.117 160.579C140.278 160.471 140.487 160.368 140.577 160.351C140.791 160.311 140.791 160.243 140.582 160.203C140.526 160.196 140.317 160.159 140.04 160.11C139.85 160.077 139.629 160.037 139.401 159.998C136.729 159.526 135.112 159.395 131.945 159.395C129.266 159.395 128.336 159.452 126.248 159.742C124.953 159.918 123.253 160.232 123.307 160.283C123.337 160.306 123.45 160.351 123.569 160.385C123.88 160.482 124.244 160.801 124.423 161.142C124.619 161.512 124.637 162.11 124.464 162.474C124.232 162.958 123.766 163.3 123.218 163.385L122.967 163.425V169.044H120.641L120.652 165.184L120.67 161.33L121.744 161.313C122.335 161.302 122.907 161.313 123.021 161.33C123.581 161.427 123.689 162.099 123.176 162.304C122.949 162.395 122.788 162.355 122.49 162.15C122.323 162.03 122.311 162.03 122.168 162.121C121.899 162.287 121.989 162.526 122.394 162.753C122.687 162.918 123.092 162.941 123.402 162.816C123.772 162.674 124.1 162.184 124.1 161.78C124.1 161.569 123.808 161.108 123.581 160.96C123.367 160.824 123.331 160.818 122.018 160.789L120.67 160.761L120.652 158.831ZM131.975 157.539C132.249 157.727 132.321 157.693 132.237 157.397C132.207 157.294 132.154 157.277 131.802 157.271C131.372 157.26 131.193 157.345 131.11 157.602C131.032 157.841 131.39 158.114 131.802 158.114C131.945 158.114 132.04 158.233 131.969 158.324C131.861 158.444 131.581 158.41 131.384 158.25C131.205 158.108 131.062 158.102 131.11 158.245C131.122 158.285 131.145 158.376 131.163 158.455C131.193 158.598 131.217 158.603 131.569 158.598C132.1 158.586 132.118 158.581 132.261 158.455C132.416 158.313 132.44 157.994 132.303 157.863C132.249 157.818 132.112 157.761 131.986 157.744C131.521 157.67 131.348 157.528 131.652 157.454C131.76 157.425 131.855 157.454 131.975 157.539ZM133.913 157.51C133.842 157.345 133.812 157.334 133.466 157.3C133.257 157.277 132.971 157.26 132.834 157.26C132.613 157.26 132.571 157.277 132.571 157.374C132.571 157.436 132.601 157.488 132.631 157.488C132.667 157.488 132.69 157.67 132.69 157.915C132.69 158.245 132.667 158.353 132.601 158.376C132.553 158.398 132.511 158.444 132.511 158.484C132.511 158.558 133.001 158.626 133.52 158.626C133.776 158.626 133.806 158.609 133.907 158.427C134.074 158.137 133.961 158.046 133.705 158.25C133.597 158.336 133.442 158.398 133.341 158.398C133.18 158.398 133.168 158.381 133.168 158.199C133.168 157.972 133.233 157.943 133.359 158.125C133.484 158.307 133.585 158.205 133.585 157.88C133.585 157.681 133.561 157.602 133.502 157.602C133.454 157.602 133.406 157.641 133.382 157.687C133.323 157.835 133.168 157.789 133.168 157.624C133.168 157.482 133.18 157.476 133.382 157.505C133.502 157.528 133.657 157.59 133.728 157.653C133.907 157.818 134.015 157.738 133.913 157.51ZM129.499 157.567C129.547 157.533 129.588 157.459 129.588 157.408C129.588 157.317 129.463 157.306 129.01 157.357C128.807 157.38 128.741 157.505 128.902 157.567C129.016 157.607 129.028 158.342 128.92 158.512C128.879 158.569 128.861 158.638 128.885 158.655C128.902 158.672 129.171 158.672 129.487 158.649L130.054 158.609L130.149 158.381C130.274 158.074 130.161 157.989 129.946 158.233C129.863 158.324 129.732 158.404 129.648 158.416C129.505 158.427 129.499 158.41 129.457 158.028C129.421 157.71 129.433 157.619 129.499 157.567ZM135.44 157.613C135.411 157.436 135.375 157.402 135.255 157.397C135.172 157.391 135.029 157.374 134.927 157.351C134.265 157.22 133.895 158.159 134.444 158.581C134.689 158.774 135.363 158.66 135.464 158.416C135.506 158.296 135.321 158.262 135.202 158.364C135.047 158.495 134.796 158.478 134.713 158.336C134.623 158.176 134.677 157.732 134.802 157.613C134.88 157.539 134.921 157.539 135.053 157.59C135.136 157.63 135.22 157.71 135.238 157.772C135.267 157.88 135.375 157.92 135.446 157.858C135.464 157.841 135.458 157.732 135.44 157.613ZM128.664 158.495C128.616 158.472 128.455 158.228 128.306 157.943C128.061 157.476 128.02 157.431 127.864 157.431C127.644 157.431 127.608 157.482 127.441 158.028C127.369 158.279 127.268 158.524 127.226 158.575C127.077 158.734 127.131 158.797 127.411 158.797C127.638 158.797 127.68 158.78 127.68 158.683C127.68 158.621 127.656 158.569 127.62 158.569C127.59 158.569 127.56 158.518 127.56 158.455C127.56 158.359 127.602 158.342 127.793 158.342C128.032 158.342 128.181 158.484 128.008 158.547C127.841 158.609 127.912 158.74 128.115 158.74C128.616 158.74 128.938 158.592 128.664 158.495ZM136.293 157.681C136.425 157.59 136.413 157.505 136.258 157.465C135.983 157.397 135.613 157.425 135.613 157.516C135.613 157.562 135.643 157.602 135.679 157.602C135.727 157.602 135.733 157.738 135.703 158.074C135.667 158.507 135.673 158.552 135.792 158.655C135.882 158.729 136.031 158.769 136.287 158.786C136.771 158.814 136.866 158.723 136.908 158.205C136.926 157.989 136.979 157.801 137.021 157.767C137.17 157.653 137.111 157.556 136.884 157.533C136.639 157.505 136.532 157.579 136.639 157.698C136.729 157.806 136.657 158.45 136.544 158.558C136.466 158.632 136.425 158.632 136.293 158.575C136.138 158.512 136.132 158.495 136.168 158.131C136.186 157.875 136.228 157.727 136.293 157.681ZM126.904 157.715C126.946 157.693 126.958 157.641 126.94 157.607C126.898 157.545 126.767 157.539 126.385 157.584C126.182 157.607 126.111 157.75 126.272 157.806C126.391 157.852 126.469 158.547 126.373 158.7C126.26 158.865 126.367 158.917 126.743 158.877C127.083 158.837 127.184 158.746 126.994 158.643C126.874 158.575 126.797 157.778 126.904 157.715ZM138.405 158.347C138.638 158.165 138.626 157.841 138.375 157.744C138.316 157.721 138.041 157.67 137.773 157.636C137.343 157.573 137.266 157.573 137.242 157.647C137.224 157.687 137.242 157.75 137.284 157.772C137.397 157.841 137.266 158.609 137.123 158.717C136.979 158.82 137.081 158.888 137.481 158.928C137.827 158.968 137.874 158.951 137.773 158.797C137.689 158.666 137.677 158.478 137.755 158.433C137.785 158.416 137.868 158.535 137.94 158.706C138.059 158.996 138.083 159.013 138.31 159.036C138.477 159.053 138.56 159.03 138.584 158.979C138.602 158.934 138.584 158.882 138.554 158.86C138.518 158.843 138.447 158.74 138.387 158.632C138.286 158.444 138.286 158.433 138.405 158.347ZM125.765 158.023C125.968 158.228 126.081 158.165 125.985 157.898C125.902 157.664 125.878 157.658 125.419 157.71C124.995 157.761 124.816 157.943 124.816 158.33C124.816 158.843 125.192 159.144 125.669 159.019C125.932 158.951 126.236 158.649 126.141 158.558C126.087 158.507 126.027 158.529 125.896 158.649C125.586 158.934 125.293 158.734 125.293 158.239C125.293 157.875 125.52 157.772 125.765 158.023ZM139.67 158.006C139.67 157.926 139.61 157.892 139.395 157.863C139.24 157.846 139.079 157.829 139.037 157.829C138.948 157.829 138.924 157.977 139.008 158.023C139.097 158.08 138.924 158.848 138.799 158.939C138.65 159.047 138.751 159.116 139.145 159.161C139.491 159.207 139.545 159.178 139.443 159.025C139.348 158.871 139.467 158.114 139.586 158.114C139.634 158.114 139.67 158.068 139.67 158.006ZM124.5 159.07C124.786 158.814 124.721 158.25 124.375 158.051C124.041 157.858 123.534 157.943 123.277 158.239C123.05 158.507 123.182 159.065 123.51 159.224C123.814 159.378 124.232 159.309 124.5 159.07ZM141.221 158.467C141.221 158.228 141.167 158.194 140.66 158.091C140.016 157.966 139.95 157.972 139.831 158.165C139.7 158.376 139.783 158.433 140.016 158.302C140.117 158.245 140.219 158.216 140.236 158.239C140.26 158.262 140.242 158.455 140.201 158.677C140.147 158.979 140.099 159.087 140.016 159.11C139.801 159.178 139.908 159.292 140.248 159.361C140.433 159.395 140.618 159.423 140.666 159.423C140.761 159.423 140.767 159.269 140.672 159.241C140.612 159.218 140.612 159.127 140.672 158.797C140.714 158.564 140.755 158.37 140.767 158.359C140.815 158.313 140.982 158.421 141.012 158.518C141.072 158.689 141.221 158.649 141.221 158.467ZM122.848 158.541C122.848 158.518 122.806 158.433 122.758 158.342C122.663 158.165 122.585 158.131 122.52 158.228C122.502 158.256 122.376 158.285 122.245 158.285C121.953 158.285 121.714 158.484 121.714 158.729C121.714 158.979 121.869 159.07 122.311 159.093C122.645 159.11 122.699 159.127 122.699 159.218C122.699 159.406 122.412 159.452 122.126 159.315C121.84 159.173 121.768 159.252 121.923 159.531C122.018 159.713 122.096 159.753 122.162 159.651C122.18 159.617 122.299 159.594 122.424 159.594C122.561 159.594 122.734 159.543 122.854 159.463C123.021 159.355 123.062 159.292 123.074 159.099C123.098 158.78 122.949 158.683 122.448 158.683C122.168 158.683 122.072 158.66 122.072 158.603C122.072 158.467 122.502 158.387 122.579 158.512C122.615 158.569 122.848 158.592 122.848 158.541ZM142.098 158.541C142.157 158.501 142.193 158.455 142.175 158.438C142.157 158.427 141.978 158.376 141.77 158.324C141.441 158.25 141.388 158.25 141.358 158.319C141.34 158.364 141.364 158.444 141.412 158.501C141.537 158.632 141.68 159.082 141.65 159.247C141.638 159.321 141.579 159.395 141.513 159.406C141.322 159.457 141.388 159.588 141.626 159.645C142.157 159.782 142.175 159.782 142.175 159.691C142.175 159.639 142.145 159.583 142.11 159.56C141.937 159.463 142.295 158.945 142.67 158.763C142.897 158.649 142.873 158.592 142.569 158.518C142.355 158.466 142.271 158.446 142.248 158.474C142.232 158.491 142.242 158.529 142.259 158.592C142.283 158.683 142.259 158.757 142.181 158.82C142.074 158.911 142.068 158.911 142.032 158.763C142.002 158.655 142.02 158.592 142.098 158.541Z" fill="#737373"/>
<path d="M140.618 170.592C140.779 170.165 140.952 169.715 141 169.596L141.095 169.385L142.217 169.396L143.338 169.413L143.356 170.29C143.368 171.047 143.356 171.178 143.273 171.269C143.177 171.372 143.058 171.377 141.752 171.377H140.332L140.618 170.592Z" fill="#737373"/>
<rect x="119" y="155" width="26" height="18" rx="1" fill="url(#paint15_linear_28440_109998)" fill-opacity="0.5"/>
<rect x="119" y="117" width="26" height="26" rx="13" fill="url(#paint16_linear_28440_109998)" fill-opacity="0.5"/>
<rect x="119.5" y="117.5" width="25" height="25" rx="12.5" stroke="black" stroke-opacity="0.12"/>
<g filter="url(#filter0_d_28440_109998)">
<path d="M288.297 171.5C287.922 171.5 287.453 171.422 286.891 171.266C286.359 171.141 285.797 170.922 285.203 170.609C278.672 166.891 273.141 163.609 268.609 160.766C264.109 157.922 260.484 155.172 257.734 152.516C255.016 149.828 253.031 146.938 251.781 143.844C250.562 140.719 249.953 137.047 249.953 132.828V97.4844C249.953 95.0781 250.469 93.3438 251.5 92.2812C252.531 91.1875 254.016 90.25 255.953 89.4688C257.047 89.0312 258.547 88.4531 260.453 87.7344C262.359 86.9844 264.453 86.1875 266.734 85.3438C269.047 84.4688 271.344 83.625 273.625 82.8125C275.938 81.9688 278.047 81.2188 279.953 80.5625C281.859 79.875 283.359 79.3438 284.453 78.9688C285.078 78.7812 285.703 78.625 286.328 78.5C286.984 78.375 287.641 78.3125 288.297 78.3125C288.953 78.3125 289.609 78.375 290.266 78.5C290.922 78.625 291.562 78.7812 292.188 78.9688C293.281 79.3438 294.766 79.875 296.641 80.5625C298.547 81.2188 300.641 81.9688 302.922 82.8125C305.234 83.6562 307.531 84.5 309.812 85.3438C312.125 86.1875 314.234 86.9688 316.141 87.6875C318.047 88.4062 319.547 89 320.641 89.4688C322.609 90.2812 324.094 91.2188 325.094 92.2812C326.125 93.3438 326.641 95.0781 326.641 97.4844V132.828C326.641 137.047 326.047 140.75 324.859 143.938C323.672 147.094 321.719 150.047 319 152.797C316.312 155.547 312.703 158.328 308.172 161.141C303.672 163.953 298.078 167.109 291.391 170.609C290.797 170.922 290.219 171.141 289.656 171.266C289.125 171.422 288.672 171.5 288.297 171.5Z" fill="#31A629"/>
<path d="M288.297 171.5C287.922 171.5 287.453 171.422 286.891 171.266C286.359 171.141 285.797 170.922 285.203 170.609C278.672 166.891 273.141 163.609 268.609 160.766C264.109 157.922 260.484 155.172 257.734 152.516C255.016 149.828 253.031 146.938 251.781 143.844C250.562 140.719 249.953 137.047 249.953 132.828V97.4844C249.953 95.0781 250.469 93.3438 251.5 92.2812C252.531 91.1875 254.016 90.25 255.953 89.4688C257.047 89.0312 258.547 88.4531 260.453 87.7344C262.359 86.9844 264.453 86.1875 266.734 85.3438C269.047 84.4688 271.344 83.625 273.625 82.8125C275.938 81.9688 278.047 81.2188 279.953 80.5625C281.859 79.875 283.359 79.3438 284.453 78.9688C285.078 78.7812 285.703 78.625 286.328 78.5C286.984 78.375 287.641 78.3125 288.297 78.3125C288.953 78.3125 289.609 78.375 290.266 78.5C290.922 78.625 291.562 78.7812 292.188 78.9688C293.281 79.3438 294.766 79.875 296.641 80.5625C298.547 81.2188 300.641 81.9688 302.922 82.8125C305.234 83.6562 307.531 84.5 309.812 85.3438C312.125 86.1875 314.234 86.9688 316.141 87.6875C318.047 88.4062 319.547 89 320.641 89.4688C322.609 90.2812 324.094 91.2188 325.094 92.2812C326.125 93.3438 326.641 95.0781 326.641 97.4844V132.828C326.641 137.047 326.047 140.75 324.859 143.938C323.672 147.094 321.719 150.047 319 152.797C316.312 155.547 312.703 158.328 308.172 161.141C303.672 163.953 298.078 167.109 291.391 170.609C290.797 170.922 290.219 171.141 289.656 171.266C289.125 171.422 288.672 171.5 288.297 171.5Z" fill="url(#paint17_linear_28440_109998)" fill-opacity="0.5"/>
</g>
<path d="M270.906 142.297C270.906 145.828 272.547 147.594 275.828 147.594H300.859C304.172 147.594 305.828 145.828 305.828 142.297V123.078C305.828 119.734 304.406 117.969 301.562 117.781V112.109C301.562 107.641 300.344 104.047 297.906 101.328C295.469 98.6094 292.281 97.25 288.344 97.25C284.406 97.25 281.219 98.6094 278.781 101.328C276.344 104.047 275.125 107.641 275.125 112.109V117.781C272.312 117.969 270.906 119.734 270.906 123.078V142.297ZM280.188 117.734V111.547C280.188 108.734 280.938 106.469 282.438 104.75C283.938 103 285.906 102.125 288.344 102.125C290.812 102.125 292.781 103 294.25 104.75C295.75 106.469 296.5 108.734 296.5 111.547V117.734H280.188Z" fill="white"/>
</g>
<defs>
<filter id="filter0_d_28440_109998" x="-9750.05" y="-9920.69" width="20076.7" height="20093.2" filterUnits="userSpaceOnUse" color-interpolation-filters="sRGB">
<feFlood flood-opacity="0" result="BackgroundImageFix"/>
<feColorMatrix in="SourceAlpha" type="matrix" values="0 0 0 0 0 0 0 0 0 0 0 0 0 0 0 0 0 0 127 0" result="hardAlpha"/>
<feMorphology radius="9999" operator="dilate" in="SourceAlpha" result="effect1_dropShadow_28440_109998"/>
<feOffset dy="1"/>
<feGaussianBlur stdDeviation="0.5"/>
<feComposite in2="hardAlpha" operator="out"/>
<feColorMatrix type="matrix" values="0 0 0 0 0 0 0 0 0 0 0 0 0 0 0 0 0 0 0.16 0"/>
<feBlend mode="normal" in2="BackgroundImageFix" result="effect1_dropShadow_28440_109998"/>
<feBlend mode="normal" in="SourceGraphic" in2="effect1_dropShadow_28440_109998" result="shape"/>
</filter>
<linearGradient id="paint0_linear_28440_109998" x1="345.666" y1="8.10317e-06" x2="-15.3985" y2="145.89" gradientUnits="userSpaceOnUse">
<stop stop-color="#F9F5EB"/>
<stop offset="0.5" stop-color="#D9ECEF"/>
<stop offset="1" stop-color="#C7D5F9"/>
</linearGradient>
<radialGradient id="paint1_radial_28440_109998" cx="0" cy="0" r="1" gradientUnits="userSpaceOnUse" gradientTransform="translate(123 37) rotate(90) scale(8)">
<stop stop-color="#73BCFF"/>
<stop offset="1" stop-color="#448AFF"/>
</radialGradient>
<radialGradient id="paint2_radial_28440_109998" cx="0" cy="0" r="1" gradientUnits="userSpaceOnUse" gradientTransform="translate(66 18) rotate(90) scale(8)">
<stop stop-color="#73BCFF"/>
<stop offset="1" stop-color="#448AFF"/>
</radialGradient>
<radialGradient id="paint3_radial_28440_109998" cx="0" cy="0" r="1" gradientUnits="userSpaceOnUse" gradientTransform="translate(66 52) rotate(90) scale(8)">
<stop stop-color="#73BCFF"/>
<stop offset="1" stop-color="#448AFF"/>
</radialGradient>
<radialGradient id="paint4_radial_28440_109998" cx="0" cy="0" r="1" gradientUnits="userSpaceOnUse" gradientTransform="translate(66 70) rotate(90) scale(8)">
<stop stop-color="#73BCFF"/>
<stop offset="1" stop-color="#448AFF"/>
</radialGradient>
<radialGradient id="paint5_radial_28440_109998" cx="0" cy="0" r="1" gradientUnits="userSpaceOnUse" gradientTransform="translate(66 88) rotate(90) scale(8)">
<stop stop-color="#73BCFF"/>
<stop offset="1" stop-color="#448AFF"/>
</radialGradient>
<radialGradient id="paint6_radial_28440_109998" cx="0" cy="0" r="1" gradientUnits="userSpaceOnUse" gradientTransform="translate(66 106) rotate(90) scale(8)">
<stop stop-color="#73BCFF"/>
<stop offset="1" stop-color="#448AFF"/>
</radialGradient>
<radialGradient id="paint7_radial_28440_109998" cx="0" cy="0" r="1" gradientUnits="userSpaceOnUse" gradientTransform="translate(66 106) rotate(90) scale(8)">
<stop stop-color="#73BCFF"/>
<stop offset="1" stop-color="#448AFF"/>
</radialGradient>
<radialGradient id="paint8_radial_28440_109998" cx="0" cy="0" r="1" gradientUnits="userSpaceOnUse" gradientTransform="translate(66 124) rotate(90) scale(8)">
<stop stop-color="#73BCFF"/>
<stop offset="1" stop-color="#448AFF"/>
</radialGradient>
<radialGradient id="paint9_radial_28440_109998" cx="0" cy="0" r="1" gradientUnits="userSpaceOnUse" gradientTransform="translate(66 124) rotate(90) scale(8)">
<stop stop-color="#73BCFF"/>
<stop offset="1" stop-color="#448AFF"/>
</radialGradient>
<radialGradient id="paint10_radial_28440_109998" cx="0" cy="0" r="1" gradientUnits="userSpaceOnUse" gradientTransform="translate(66 142) rotate(90) scale(8)">
<stop stop-color="#73BCFF"/>
<stop offset="1" stop-color="#448AFF"/>
</radialGradient>
<radialGradient id="paint11_radial_28440_109998" cx="0" cy="0" r="1" gradientUnits="userSpaceOnUse" gradientTransform="translate(66 160) rotate(90) scale(8)">
<stop stop-color="#73BCFF"/>
<stop offset="1" stop-color="#448AFF"/>
</radialGradient>
<radialGradient id="paint12_radial_28440_109998" cx="0" cy="0" r="1" gradientUnits="userSpaceOnUse" gradientTransform="translate(66 178) rotate(90) scale(8)">
<stop stop-color="#73BCFF"/>
<stop offset="1" stop-color="#448AFF"/>
</radialGradient>
<linearGradient id="paint13_linear_28440_109998" x1="121.93" y1="92.873" x2="126.69" y2="96.9012" gradientUnits="userSpaceOnUse">
<stop stop-color="#BFBFBF"/>
<stop offset="0.395" stop-color="#EBEBEB"/>
<stop offset="0.57" stop-color="#EBEBEB"/>
<stop offset="1" stop-color="#BFBFBF"/>
</linearGradient>
<linearGradient id="paint14_linear_28440_109998" x1="144.987" y1="89.3945" x2="133.714" y2="107.663" gradientUnits="userSpaceOnUse">
<stop stop-color="white"/>
<stop offset="1" stop-color="white" stop-opacity="0"/>
</linearGradient>
<linearGradient id="paint15_linear_28440_109998" x1="144.987" y1="155" x2="132.968" y2="173.625" gradientUnits="userSpaceOnUse">
<stop stop-color="white"/>
<stop offset="1" stop-color="white" stop-opacity="0"/>
</linearGradient>
<linearGradient id="paint16_linear_28440_109998" x1="144.987" y1="117" x2="125.981" y2="137.39" gradientUnits="userSpaceOnUse">
<stop stop-color="white"/>
<stop offset="1" stop-color="white" stop-opacity="0"/>
</linearGradient>
<linearGradient id="paint17_linear_28440_109998" x1="326.602" y1="78.3125" x2="258.841" y2="138.135" gradientUnits="userSpaceOnUse">
<stop stop-color="white"/>
<stop offset="1" stop-color="white" stop-opacity="0"/>
</linearGradient>
<clipPath id="clip0_28440_109998">
<path d="M0 8C0 3.58172 3.58172 0 8 0H338C342.418 0 346 3.58172 346 8V176C346 180.418 342.418 184 338 184H8.00001C3.58173 184 0 180.418 0 176V8Z" fill="white"/>
</clipPath>
</defs>
</svg>
