<svg width="148" height="122" viewBox="0 0 148 122" fill="none" xmlns="http://www.w3.org/2000/svg">
<path d="M12 12L17.5 17.5M23 23L17.5 17.5M17.5 17.5L23 12L12 23" stroke="#B2C8EB" stroke-opacity="0.35" stroke-width="2" stroke-linecap="round"/>
<path fill-rule="evenodd" clip-rule="evenodd" d="M116.733 49.7939C125.377 48.4773 132 41.0121 132 32C132 22.0589 123.941 14 114 14C104.059 14 96 22.0589 96 32C96 33.9602 96.3133 35.8472 96.8926 37.6136H94.7986C94.2788 35.8327 94 33.9489 94 32C94 20.9543 102.954 12 114 12C125.046 12 134 20.9543 134 32C134 42.1187 126.486 50.4823 116.733 51.8149V49.7939ZM116.733 40.3325V44.1827C119.038 40.5667 120.371 36.2784 120.371 31.6803C120.381 31.1961 119.937 30.7495 119.451 30.7546C118.971 30.7594 118.54 31.2024 118.55 31.6803C118.55 34.7628 117.901 37.6863 116.733 40.3325ZM116.546 35.4705C116.781 34.2641 116.906 33.0194 116.91 31.7465V31.6803V31.5953V31.5762C116.853 30.1801 115.678 29.0445 114.264 29.0445V29.0447C112.815 29.0447 111.618 30.2362 111.618 31.6803C111.612 32.1591 112.048 32.5992 112.529 32.5992C113.01 32.5992 113.445 32.1591 113.439 31.6803C113.439 31.2164 113.799 30.8585 114.264 30.8585C114.73 30.8585 115.089 31.2164 115.089 31.6803C115.086 31.7118 115.086 31.7434 115.089 31.7748C115.084 32.8118 114.99 33.8273 114.816 34.815L116.546 35.4705ZM113.241 34.2184C113.274 33.7093 112.8 33.2094 112.282 33.2392V33.239C112.019 33.2526 111.772 33.3943 111.61 33.6004L113.241 34.2184ZM109.906 32.9549C109.945 32.5569 109.966 32.1537 109.969 31.7465V31.6803V31.5953C110.015 29.2638 111.912 27.4011 114.264 27.4011C115.785 27.4011 117.103 28.1864 117.868 29.3659C118.127 29.7683 118.732 29.8979 119.135 29.6377C119.538 29.3775 119.666 28.7747 119.404 28.374C118.316 26.6948 116.413 25.5873 114.264 25.5873C110.931 25.5873 108.199 28.2772 108.148 31.5858C108.145 31.6173 108.145 31.6489 108.148 31.6803C108.145 31.7118 108.145 31.7434 108.148 31.7748C108.146 31.9452 108.141 32.1145 108.132 32.2829L109.906 32.9549ZM106.498 31.6636V31.5952C106.533 28.3911 108.523 25.6621 111.325 24.5197C111.722 24.3727 111.979 23.9216 111.903 23.5065C111.827 23.0915 111.426 22.7603 111.002 22.7627V22.7628C110.958 22.7627 110.913 22.7658 110.869 22.7722C110.788 22.7834 110.708 22.8057 110.632 22.8383C107.344 24.1794 104.97 27.2998 104.702 30.9832L106.498 31.6636ZM103.11 30.38C103.185 29.7234 103.316 29.0846 103.501 28.4684C103.676 27.9199 103.188 27.2728 102.61 27.2877V27.2877C102.224 27.2974 101.861 27.5788 101.757 27.9489C101.584 28.5228 101.452 29.1135 101.361 29.7175L103.11 30.38ZM101.142 32.4787C101.06 32.9064 100.913 33.3097 100.713 33.683C100.446 34.1034 100.614 34.735 101.055 34.9689C101.083 34.984 101.112 34.9972 101.142 35.0086V32.4787ZM114.264 18.6818C109.659 18.6818 105.594 21.0638 103.274 24.6615C103.012 25.0621 103.142 25.6646 103.546 25.9228C103.949 26.181 104.553 26.0478 104.81 25.6439C106.807 22.5478 110.289 20.4956 114.264 20.4956C117.063 20.4956 119.61 21.5047 121.575 23.1878C121.928 23.5416 122.584 23.5187 122.911 23.1412C123.238 22.7637 123.164 22.1132 122.761 21.8181C120.478 19.8636 117.506 18.6818 114.264 18.6818ZM114.264 22.1298C113.783 22.1228 113.34 22.5573 113.34 23.0367C113.34 23.516 113.783 23.9506 114.264 23.9435C118.56 23.9435 122.021 27.4005 122.021 31.6803C122.018 31.7118 122.018 31.7434 122.021 31.7748C122.013 33.8636 121.744 35.8841 121.253 37.8206C121.138 38.2823 121.455 38.8062 121.918 38.9221C122.381 39.038 122.908 38.7253 123.026 38.2646C123.556 36.1756 123.836 33.996 123.842 31.7465V31.6803C123.842 31.6515 123.842 31.6242 123.842 31.5953V31.5859C123.789 26.37 119.512 22.1299 114.264 22.1299V22.1298ZM124.42 24.142C124.09 24.1389 123.766 24.3321 123.611 24.6221C123.456 24.9121 123.476 25.2872 123.661 25.559C124.807 27.3023 125.48 29.3832 125.492 31.6236C125.492 31.6431 125.492 31.661 125.492 31.6803C125.488 31.7118 125.488 31.7434 125.492 31.7748C125.485 33.6777 125.286 35.5332 124.923 37.3294C124.826 37.7976 125.167 38.3109 125.638 38.4051C126.108 38.4993 126.622 38.1573 126.715 37.6884C127.103 35.7692 127.307 33.7862 127.312 31.7559V31.7465V31.6803L127.312 31.6295L127.312 31.5953V31.5859C127.293 29.0014 126.515 26.5851 125.188 24.5671C125.026 24.3092 124.726 24.1431 124.42 24.142V24.142ZM121.31 39.6344C120.957 39.6587 120.63 39.9067 120.513 40.2389C120.2 41.0952 119.843 41.9326 119.442 42.7423C119.207 43.1699 119.399 43.7745 119.837 43.9904C120.276 44.2063 120.874 43.9907 121.073 43.5452C121.504 42.6766 121.884 41.7812 122.22 40.8624C122.328 40.5799 122.282 40.2438 122.102 40.0006C121.921 39.7573 121.613 39.6146 121.31 39.6344Z" fill="#82A5DB"/>
<path fill-rule="evenodd" clip-rule="evenodd" d="M45.8304 25.981C73.5301 8.48295 110.656 -11.685 136.118 8.30901C159.547 26.7068 143.33 58.9505 130.072 85.3118L130.068 85.3206C129.573 86.3039 129.083 87.2791 128.598 88.2451C119.111 107.176 101.752 120.92 79.249 121.78C48.5159 122.954 10.9277 120.249 1.91609 93.0853C-7.47257 64.7852 19.3153 42.7307 45.8304 25.981ZM20 73C16.6863 73 14 75.6863 14 79V103C14 106.314 16.6863 109 20 109H52C55.3137 109 58 106.314 58 103V98.0462C58 98.4081 58.1955 98.7417 58.5111 98.9186L75.5222 108.452C76.1296 108.792 76.8704 108.792 77.4778 108.452L101.693 94.8812V99.3409C101.693 101.494 103.438 103.239 105.591 103.239C107.744 103.239 109.489 101.494 109.489 99.3409V97.6705H116.886C117.501 97.6705 118 97.1719 118 96.5568V94.3295C118 93.7145 117.501 93.2159 116.886 93.2159H111.716V89.875H114.886C115.501 89.875 116 89.3764 116 88.7614V85.6915V85.4205V71.242C119.059 69.8311 121.182 66.7374 121.182 63.1477V59.8068C121.182 56.2172 119.059 53.1234 116 51.7125V37.2925C116 36.4604 115.485 35.7152 114.706 35.4214L102.353 30.7585C101.699 30.5116 101 30.995 101 31.6941V37C101 37.5523 100.552 38 100 38H90C89.4477 38 89 37.5523 89 37V26.4096C89 25.9936 88.7424 25.621 88.3532 25.4741L77.2063 21.2666C76.7511 21.0947 76.2489 21.0947 75.7937 21.2666L64.6469 25.4741C64.2576 25.621 64 25.9936 64 26.4096V37C64 37.5523 63.5523 38 63 38H53C52.4477 38 52 37.5523 52 37V31.6941C52 30.995 51.301 30.5116 50.6469 30.7585L38.2937 35.4214C37.5152 35.7152 37 36.4604 37 37.2925V72C37 72.5523 37.4477 73 38 73H20Z" fill="#B2C8EB" fill-opacity="0.35"/>
<path fill-rule="evenodd" clip-rule="evenodd" d="M73.6612 108.324C74.9944 109.074 76.6417 108.11 76.6417 106.58V23.2489C76.6417 21.8496 75.2416 20.8829 73.9331 21.3786L65.6831 24.5042C64.9058 24.7987 64.3917 25.5433 64.3917 26.3745V35.6138C64.3917 36.7184 63.4962 37.6138 62.3917 37.6138H54.1417C53.0371 37.6138 52.1417 36.7184 52.1417 35.6138V32.531C52.1417 31.1317 50.7416 30.165 49.4331 30.6607L37.8422 35.0521C37.0649 35.3466 36.5508 36.0911 36.5508 36.9224V70.0002C36.5508 71.1047 37.4462 72.0002 38.5508 72.0002H52.6427C55.6013 72.0002 57.9998 74.5394 57.9998 77.6718V98.3444C57.9998 99.067 58.3895 99.7333 59.0193 100.088L73.6612 108.324Z" fill="#82A5DB" fill-opacity="0.24"/>
<path fill-rule="evenodd" clip-rule="evenodd" d="M77.5594 20.331C76.8767 20.0733 76.1233 20.0733 75.4406 20.331L64.2937 24.5385C63.5152 24.8323 63 25.5775 63 26.4096V37H53V31.6941C53 30.2958 51.6019 29.3292 50.2937 29.8229L37.9406 34.4858C36.7728 34.9266 36 36.0443 36 37.2925V72C36 73.1046 36.8954 74 38 74H52C54.7614 74 57 76.2386 57 79V98.0462C57 98.7699 57.3909 99.4372 58.0222 99.791L75.0333 109.324C75.9445 109.835 77.0555 109.835 77.9666 109.324L101.693 96.0275V93.7348L76.9889 107.58C76.6852 107.75 76.3148 107.75 76.0111 107.58L75.5222 108.452L76.0111 107.58L59 98.0462V79C59 75.134 55.866 72 52 72L38 72V37.2925C38 36.8764 38.2576 36.5039 38.6469 36.3569L51 31.6941V37C51 38.1046 51.8955 39 53 39H63C64.1046 39 65 38.1046 65 37V26.4096L76.1469 22.2021C76.3744 22.1162 76.6255 22.1162 76.8531 22.2021L88 26.4096V37C88 38.1046 88.8955 39 90 39H100C101.105 39 102 38.1046 102 37V31.6941L114.353 36.3569C114.742 36.5039 115 36.8764 115 37.2925V51.3229C115.71 51.5508 116.38 51.8653 117 52.2539V37.2925C117 36.0443 116.227 34.9266 115.059 34.4858L102.706 29.823C101.398 29.3292 100 30.2959 100 31.6941V37H90V26.4096C90 25.5775 89.4848 24.8324 88.7063 24.5385L77.5594 20.331ZM117 70.7006C116.38 71.0892 115.71 71.4037 115 71.6316V84.3126C115.562 84.3695 116 84.8438 116 85.4205V87.9277C116.629 87.3653 117 86.5552 117 85.6915V70.7006ZM112.672 89.875H111.716V90.4105L112.672 89.875ZM115 65.0779C115.386 64.5328 115.614 63.8668 115.614 63.1477V59.8068C115.614 59.0878 115.386 58.4218 115 57.8767V65.0779Z" fill="#82A5DB"/>
<path d="M77.3333 81C78.4379 81 79.3333 80.1046 79.3333 79V73.0047C81.2238 72.3571 82.817 71.0823 83.8317 69.4062C84.8462 67.73 85.2166 65.7603 84.8776 63.8448C84.5385 61.9296 83.5118 60.1922 81.9788 58.9396C80.4456 57.687 78.5052 57 76.5 57C74.4949 57 72.5544 57.687 71.0213 58.9396C69.4883 60.1922 68.4615 61.9296 68.1224 63.8448C67.7834 65.7603 68.1538 67.73 69.1683 69.4062C70.183 71.0823 71.7763 72.3571 73.6667 73.0047V79C73.6667 80.1046 74.5621 81 75.6667 81H77.3333Z" fill="#82A5DB"/>
<path d="M77.3333 81C78.4379 81 79.3333 80.1046 79.3333 79V73.0047C81.2238 72.3571 82.817 71.0823 83.8317 69.4062C84.8462 67.73 85.2166 65.7603 84.8776 63.8448C84.5385 61.9296 83.5118 60.1922 81.9788 58.9396C80.4456 57.687 78.5052 57 76.5 57C74.4949 57 72.5544 57.687 71.0213 58.9396C69.4883 60.1922 68.4615 61.9296 68.1224 63.8448C67.7834 65.7603 68.1538 67.73 69.1683 69.4062C70.183 71.0823 71.7763 72.3571 73.6667 73.0047V79C73.6667 80.1046 74.5621 81 75.6667 81H77.3333Z" fill="#82A5DB" fill-opacity="0.24"/>
<path fill-rule="evenodd" clip-rule="evenodd" d="M20 74C17.2386 74 15 76.2386 15 79V103C15 105.761 17.2386 108 20 108H52C54.7614 108 57 105.761 57 103V79C57 76.2386 54.7614 74 52 74H20ZM13 79C13 75.134 16.134 72 20 72H52C55.866 72 59 75.134 59 79V103C59 106.866 55.866 110 52 110H20C16.134 110 13 106.866 13 103V79Z" fill="black"/>
<path fill-rule="evenodd" clip-rule="evenodd" d="M20 74C17.2386 74 15 76.2386 15 79V103C15 105.761 17.2386 108 20 108H52C54.7614 108 57 105.761 57 103V79C57 76.2386 54.7614 74 52 74H20ZM13 79C13 75.134 16.134 72 20 72H52C55.866 72 59 75.134 59 79V103C59 106.866 55.866 110 52 110H20C16.134 110 13 106.866 13 103V79Z" fill="#82A5DB"/>
<path fill-rule="evenodd" clip-rule="evenodd" d="M51.0278 66.5551C51.0208 58.5655 44.5418 52.0908 36.5505 52.0908C28.5549 52.0908 22.0732 58.5725 22.0732 66.5681V72.6931H27.6414V66.5681C27.6414 61.6477 31.6302 57.659 36.5505 57.659C41.4709 57.659 45.4596 61.6477 45.4596 66.5681V72.6931H51.0278V66.5551Z" fill="#82A5DB"/>
<path d="M27.6416 88.5623L34.3234 95.2441L45.7382 83.8293" stroke="#82A5DB" stroke-width="4" stroke-linecap="round"/>
<path fill-rule="evenodd" clip-rule="evenodd" d="M105.591 48C103.991 48 102.693 49.2974 102.693 50.8977V51.8977H98.9091C94.541 51.8977 91 55.4387 91 59.8068V63.1477C91 67.5158 94.541 71.0568 98.9091 71.0568H102.693V99.3409C102.693 100.941 103.991 102.239 105.591 102.239C107.191 102.239 108.489 100.941 108.489 99.3409V96.6705H116.886C116.949 96.6705 117 96.6196 117 96.5568V94.3295C117 94.2668 116.949 94.2159 116.886 94.2159H110.716V88.875H114.886C114.949 88.875 115 88.8241 115 88.7614V85.4205C115 85.3577 114.949 85.3068 114.886 85.3068H108.489V71.0568H112.273C116.641 71.0568 120.182 67.5158 120.182 63.1477V59.8068C120.182 55.4387 116.641 51.8977 112.273 51.8977H108.489V50.8977C108.489 49.2974 107.191 48 105.591 48ZM100.795 49.8977C101.257 47.6724 103.229 46 105.591 46C107.953 46 109.925 47.6724 110.386 49.8977H112.273C117.745 49.8977 122.182 54.3342 122.182 59.8068V63.1477C122.182 68.6204 117.745 73.0568 112.273 73.0568H110.489V83.3068H114.886C116.054 83.3068 117 84.2531 117 85.4205V88.7614C117 89.9287 116.054 90.875 114.886 90.875H112.716V92.2159H116.886C118.054 92.2159 119 93.1622 119 94.3295V96.5568C119 97.7242 118.054 98.6705 116.886 98.6705H110.489V99.3409C110.489 102.046 108.296 104.239 105.591 104.239C102.886 104.239 100.693 102.046 100.693 99.3409V73.0568H98.9091C93.4365 73.0568 89 68.6204 89 63.1477V59.8068C89 54.3342 93.4365 49.8977 98.9091 49.8977H100.795ZM94.5682 59.8068C94.5682 57.4094 96.5117 55.4659 98.9091 55.4659H112.273C114.67 55.4659 116.614 57.4094 116.614 59.8068V63.1477C116.614 65.5451 114.67 67.4886 112.273 67.4886H98.9091C96.5117 67.4886 94.5682 65.5451 94.5682 63.1477V59.8068ZM98.9091 57.4659C97.6162 57.4659 96.5682 58.514 96.5682 59.8068V63.1477C96.5682 64.4406 97.6162 65.4886 98.9091 65.4886H112.273C113.566 65.4886 114.614 64.4406 114.614 63.1477V59.8068C114.614 58.514 113.566 57.4659 112.273 57.4659H98.9091Z" fill="#82A5DB"/>
</svg>
