<svg width="20" height="20" viewBox="0 0 20 20" fill="none" xmlns="http://www.w3.org/2000/svg">
<path fill-rule="evenodd" clip-rule="evenodd" d="M10.0001 18C14.4184 18 18.0001 14.4183 18.0001 10C18.0001 5.58172 14.4184 2 10.0001 2C5.58184 2 2.00012 5.58172 2.00012 10C2.00012 14.4183 5.58184 18 10.0001 18ZM10.0001 16.96C13.844 16.96 16.9601 13.8439 16.9601 10C16.9601 6.1561 13.844 3.04 10.0001 3.04C6.15622 3.04 3.04012 6.1561 3.04012 10C3.04012 13.8439 6.15622 16.96 10.0001 16.96ZM14.3062 8.10043C14.5594 7.84588 14.5582 7.43432 14.3037 7.18119C14.0491 6.92806 13.6376 6.92921 13.3844 7.18375L8.77963 11.8143L6.62493 9.56105C6.37682 9.3016 5.96537 9.2924 5.70592 9.54051C5.44647 9.78861 5.43727 10.2001 5.68537 10.4595L8.30075 13.1945L8.76142 13.6762L9.23142 13.2036L14.3062 8.10043Z" fill="#31A629"/>
</svg>
