<svg width="20" height="20" viewBox="0 0 20 20" fill="none" xmlns="http://www.w3.org/2000/svg">
<path fill-rule="evenodd" clip-rule="evenodd" d="M4 5H16C16.5523 5 17 5.44772 17 6V6.2L10 9.93333L3 6.2V6C3 5.44772 3.44772 5 4 5ZM3 7.33333V15C3 15.5523 3.44772 16 4 16H11.126C11.0438 15.6804 11 15.3453 11 15C11 12.7909 12.7909 11 15 11C15.7286 11 16.4117 11.1948 17 11.5351V7.33333L10.2353 10.9412L10 11.0667L9.76471 10.9412L3 7.33333ZM18 12.3542V6C18 4.89543 17.1046 4 16 4H4C2.89543 4 2 4.89543 2 6V15C2 16.1046 2.89543 17 4 17H11.5351C12.2267 18.1956 13.5194 19 15 19C17.2091 19 19 17.2091 19 15C19 13.9856 18.6224 13.0593 18 12.3542ZM17.2753 13.4668C17.4711 13.6615 17.472 13.9781 17.2773 14.1739L14.7399 16.7254L14.3783 17.089L14.024 16.7184L12.7163 15.3509C12.5254 15.1514 12.5325 14.8349 12.7321 14.644C12.9317 14.4532 13.2482 14.4602 13.439 14.6598L14.3923 15.6567L16.5682 13.4687C16.7629 13.2729 17.0795 13.272 17.2753 13.4668Z" fill="black" fill-opacity="0.87"/>
</svg>
